<svg id="Layer_1" data-name="Layer 1" xmlns="http://www.w3.org/2000/svg" viewBox="0 0 269.23 247.64"><defs><style>.cls-1{fill:#2b91c9;}.cls-2{fill:#02679a;}.cls-3{fill:#7ac143;}.cls-4{fill:#52b848;}.cls-5{fill:#002b44;}</style></defs><path class="cls-1" d="M294.34,235.77h0l-.29-.82-.12-.32-27.53-77.8h0a25.31,25.31,0,0,0-23.67-16.58H80.58A25.3,25.3,0,0,0,57,156.5h0l0,.14c-.09.23-.17.46-.25.69L29.68,233.88c-.36.9-.69,1.82-1,2.75h0a37.65,37.65,0,0,0-1.65,11h0a37.89,37.89,0,0,0,37.78,37.79H258.49a37.9,37.9,0,0,0,37.79-37.79h0A37.51,37.51,0,0,0,294.34,235.77Z" transform="translate(-27.05 -37.81)"/><rect class="cls-2" y="172.07" width="269.23" height="75.57" rx="37.79"/><circle class="cls-3" cx="230.08" cy="211.62" r="7.14"/><polygon class="cls-4" points="134.62 137.69 199.87 70.33 69.36 70.33 134.62 137.69"/><path class="cls-4" d="M165.9,179.74l57.18-59,8.08-8.33c3.59-3.71,1-10.25-4.24-10.25H96.41c-5.26,0-7.84,6.54-4.25,10.25l57.18,59,8.08,8.33c5.38,5.56,13.86-2.93,8.48-8.48l-57.18-59-8.07-8.34-4.24,10.24H226.92l-4.25-10.24-57.18,59-8.07,8.34C152,176.81,160.52,185.3,165.9,179.74Z" transform="translate(-27.05 -37.81)"/><rect class="cls-4" x="110.21" width="48.82" height="93.17" rx="9"/><path id="path6" class="cls-5" d="M176,225.32a18.27,18.27,0,0,1,9.66-5.44c1.24,0,2.47-.17,3.65-.22a11.67,11.67,0,0,1,4.1,1.06,17.06,17.06,0,0,1,5.22,4.75,22.28,22.28,0,0,1,4.1,9.32,25.3,25.3,0,0,1,.11,3.48c-.84-.84-1.12-2.07-1.73-3.08a14.64,14.64,0,0,0-3-3.6,9.5,9.5,0,0,0-6.34-2.64,9,9,0,0,0-2.69.34,13.25,13.25,0,0,0-6.4,3.88c-.56.68-1.18,1.3-1.68,2a29.06,29.06,0,0,0-1.52,2.59,20.31,20.31,0,0,0-2.3,8.53c.11,1.18.11,2.3.22,3.48.34.79.17,1.86,1,2.31a3.91,3.91,0,0,0,1.69-.44,42.37,42.37,0,0,0,3.59-3.37c1.35-1.12,2.3-2.59,3.59-3.81.73-.56,1.18-1.3,1.91-1.85a25.34,25.34,0,0,1,4.32-3.48,7.16,7.16,0,0,1,4-1.07,6.29,6.29,0,0,1,4.27,2.52,19.81,19.81,0,0,1,3,6.74c.28,1.23.17,2.52.33,3.82a43.39,43.39,0,0,1-2.24,12.57,18.18,18.18,0,0,1-2,4c-.29.34-.46.79-.87.9a21.56,21.56,0,0,1,.43-2.47,11.51,11.51,0,0,0,.12-2.75,27.55,27.55,0,0,0-.06-4.26c-.34-1.41-.39-2.93-.86-4.32a11,11,0,0,0-1.12-2.92,4.64,4.64,0,0,0-1.13-1.57,3.75,3.75,0,0,0-2-.86,8.43,8.43,0,0,0-1.62.5,15.14,15.14,0,0,0-3.26,3,19.47,19.47,0,0,1-2.75,2.35,7.31,7.31,0,0,1-5.11,1.46,16.46,16.46,0,0,1-7-2.47,14.87,14.87,0,0,1-2.75-2.19,13.77,13.77,0,0,1-3.71-7.74,6.18,6.18,0,0,1-.17-2.7,23.72,23.72,0,0,1,2.64-10.27,27.89,27.89,0,0,1,2.8-4.2A4.23,4.23,0,0,1,176,225.32Z" transform="translate(-27.05 -37.81)"/><path id="path3742" class="cls-5" d="M147.35,273.54A18.2,18.2,0,0,1,137.7,279c-1.24.05-2.48.17-3.65.22a11.67,11.67,0,0,1-4.1-1.06,16.93,16.93,0,0,1-5.22-4.78,22.06,22.06,0,0,1-4.1-9.31,23.81,23.81,0,0,1-.11-3.48c.86.86,1.12,2.07,1.72,3.08a15.06,15.06,0,0,0,3,3.6,9.44,9.44,0,0,0,6.34,2.63,8.64,8.64,0,0,0,2.69-.33,13.19,13.19,0,0,0,6.4-3.89c.56-.67,1.18-1.29,1.69-2a30,30,0,0,0,1.51-2.59,20.47,20.47,0,0,0,2.31-8.53c-.12-1.18-.12-2.31-.23-3.48-.34-.79-.17-1.85-1-2.3a2.82,2.82,0,0,0-1.69.43,22.91,22.91,0,0,0-3.59,3.37c-1.34,1.12-2.3,2.59-3.59,3.81-.73.56-1.18,1.3-1.91,1.85a26.23,26.23,0,0,1-4.31,3.49,7.21,7.21,0,0,1-4,1.06,6.29,6.29,0,0,1-4.27-2.52,19.62,19.62,0,0,1-3-6.74c-.28-1.23-.16-2.53-.33-3.82a43.45,43.45,0,0,1,2.24-12.57,17.79,17.79,0,0,1,2-4c.28-.34.43-.79.84-.9a20.83,20.83,0,0,1-.43,2.47,11,11,0,0,0-.11,2.75,26.47,26.47,0,0,0,0,4.27c.34,1.4.4,2.92.84,4.31a10.92,10.92,0,0,0,1.13,2.92,4.39,4.39,0,0,0,1.12,1.57,3.83,3.83,0,0,0,2,.84,8.31,8.31,0,0,0,1.63-.5,15.29,15.29,0,0,0,3.25-3,19.44,19.44,0,0,1,2.75-2.36,7.32,7.32,0,0,1,5.11-1.46,16.41,16.41,0,0,1,7,2.47,14.55,14.55,0,0,1,2.75,2.19,13.79,13.79,0,0,1,3.76,7.77,6.13,6.13,0,0,1,.17,2.69,23.51,23.51,0,0,1-2.64,10.27,27.49,27.49,0,0,1-2.8,4.21A4.74,4.74,0,0,1,147.35,273.54Z" transform="translate(-27.05 -37.81)"/><path id="path10" class="cls-5" d="M155,228.47a9.26,9.26,0,0,1,7.63.56,6.19,6.19,0,0,1,2,2.36,4.19,4.19,0,0,1-.23,3.65,7.75,7.75,0,0,1-3.42,3.42,9.61,9.61,0,0,1-7.37.45,5.55,5.55,0,0,1-3.31-3.42c-.51-1.19.06-2.42.56-3.49A7.83,7.83,0,0,1,155,228.47Z" transform="translate(-27.05 -37.81)"/><path id="path12" class="cls-5" d="M155.21,243.35a5.75,5.75,0,0,1,5-2.76,7.85,7.85,0,0,1,3,.79,4.52,4.52,0,0,1,2.75,3.09,24.26,24.26,0,0,0,.5,4.93c.9,3.37,3.21,6.12,5.67,8.48,1.24,1.46,2.92,2.47,4.16,3.93a38.39,38.39,0,0,1-5.67-.6,18.91,18.91,0,0,1-6.51-2.3,14.51,14.51,0,0,1-3.2-2.19,17.74,17.74,0,0,1-4-4.43,14.21,14.21,0,0,1-2.3-6.48A7.74,7.74,0,0,1,155.21,243.35Z" transform="translate(-27.05 -37.81)"/></svg>