<?xml version="1.0" encoding="UTF-8" standalone="no"?>
<!-- Created with Inkscape (http://www.inkscape.org/) -->

<svg
   width="200"
   height="200"
   viewBox="0 0 52.916667 52.916666"
   version="1.1"
   id="svg5"
   xml:space="preserve"
   inkscape:version="1.2.1 (9c6d41e410, 2022-07-14, custom)"
   sodipodi:docname="big-community.svg"
   inkscape:export-filename="big-community.png"
   inkscape:export-xdpi="96"
   inkscape:export-ydpi="96"
   xmlns:inkscape="http://www.inkscape.org/namespaces/inkscape"
   xmlns:sodipodi="http://sodipodi.sourceforge.net/DTD/sodipodi-0.dtd"
   xmlns:xlink="http://www.w3.org/1999/xlink"
   xmlns="http://www.w3.org/2000/svg"
   xmlns:svg="http://www.w3.org/2000/svg"><sodipodi:namedview
     id="namedview7"
     pagecolor="#ffffff"
     bordercolor="#000000"
     borderopacity="0.25"
     inkscape:showpageshadow="2"
     inkscape:pageopacity="0.0"
     inkscape:pagecheckerboard="0"
     inkscape:deskcolor="#d1d1d1"
     inkscape:document-units="mm"
     showgrid="false"
     inkscape:zoom="2.8673134"
     inkscape:cx="56.150122"
     inkscape:cy="91.200354"
     inkscape:window-width="2560"
     inkscape:window-height="992"
     inkscape:window-x="1680"
     inkscape:window-y="0"
     inkscape:window-maximized="1"
     inkscape:current-layer="layer1" /><defs
     id="defs2"><style
       id="style967">.cls-1{fill:#16171c;stroke:#000;stroke-miterlimit:10;}.cls-2{fill:#2c2d3d;}.cls-3{fill:url(#linear-gradient);}.cls-4{fill:url(#linear-gradient-2);}.cls-5{fill:url(#linear-gradient-3);}</style><linearGradient
       id="linear-gradient"
       x1="70.74"
       y1="207.69"
       x2="304.39"
       y2="456.44"
       gradientTransform="matrix(1, 0, 0, -1, 16.81, 529.63)"
       gradientUnits="userSpaceOnUse"><stop
         offset="0"
         stop-color="#2d85c6"
         id="stop969" /><stop
         offset="1"
         stop-color="#04bacc"
         id="stop971" /></linearGradient><linearGradient
       id="linear-gradient-2"
       x1="146.39"
       y1="136.63"
       x2="380.04"
       y2="385.38"
       xlink:href="#linear-gradient"
       gradientTransform="matrix(0.03640743,0,0,0.03640743,17.268487,27.942277)" /><linearGradient
       id="linear-gradient-3"
       x1="127.32"
       y1="154.54"
       x2="360.97"
       y2="403.29"
       xlink:href="#linear-gradient"
       gradientTransform="matrix(0.03640743,0,0,0.03640743,17.268487,27.942277)" /><linearGradient
       inkscape:collect="always"
       xlink:href="#linear-gradient"
       id="linearGradient1011"
       gradientUnits="userSpaceOnUse"
       gradientTransform="matrix(0.03640743,0,0,-0.03640743,17.880496,47.224744)"
       x1="70.74"
       y1="207.69"
       x2="304.39"
       y2="456.44" /></defs><g
     inkscape:label="Camada 1"
     inkscape:groupmode="layer"
     id="layer1"><circle
       style="fill:#002a43;fill-opacity:1;stroke-width:0.757757;stroke-linecap:round;stroke-linejoin:round"
       id="path3015"
       cx="26.458334"
       cy="26.458334"
       r="26.068842" /><circle
       style="fill:#000000;fill-opacity:0;stroke-width:0.225098;stroke-linecap:round;stroke-linejoin:round"
       id="circle356"
       cx="26.635504"
       cy="14.747956"
       r="8.4191275" /><path
       id="path962"
       style="fill:#0bb1cb;fill-opacity:1;stroke-width:0.124461;stroke-linecap:round;stroke-linejoin:round"
       d="m 39.919161,22.272809 a 5.8031373,5.8031373 0 0 1 -2.904685,0.779362 5.8031373,5.8031373 0 0 1 -2.846293,-0.748273 c -1.093459,0.105455 -2.190044,0.375811 -2.95941,1.070272 -2.032385,1.834497 -2.782022,4.499221 -2.648106,7.775046 1.879858,2.0451 4.877348,2.657706 8.453485,2.528609 3.576133,0.129096 6.573729,-0.483509 8.453589,-2.528609 0.133914,-3.275826 -0.581606,-5.979177 -2.648214,-7.775046 -0.772788,-0.671551 -1.818552,-0.978954 -2.900366,-1.101361 z" /><path
       id="path924"
       style="fill:#2d85c6;fill-opacity:1;stroke-width:0.124461;stroke-linecap:round;stroke-linejoin:round"
       d="m 18.806878,22.272809 a 5.8031373,5.8031373 0 0 1 -2.90469,0.779362 5.8031373,5.8031373 0 0 1 -2.84629,-0.748273 c -1.093461,0.105455 -2.190042,0.375811 -2.959414,1.070272 -2.0323791,1.834497 -2.7820168,4.499221 -2.6481006,7.775046 1.8798541,2.0451 4.8773436,2.657706 8.4534816,2.528609 3.576137,0.129096 6.573733,-0.483509 8.453591,-2.528609 0.133917,-3.275826 -0.581604,-5.979177 -2.648212,-7.775046 -0.772789,-0.671551 -1.818551,-0.978954 -2.900366,-1.101361 z" /><path
       id="path9779"
       style="fill:#002a43;fill-opacity:1;stroke-width:0.182501;stroke-linecap:round;stroke-linejoin:round"
       d="m 30.37985,21.170931 a 8.2887132,8.2887132 0 0 1 -3.744939,0.899433 8.2887132,8.2887132 0 0 1 -3.648938,-0.848698 c -1.774653,0.11698 -3.62164,0.480369 -4.875825,1.612443 -2.980125,2.68996 -4.079364,6.597278 -3.883005,11.400687 2.756472,2.998772 7.151766,3.897054 12.39553,3.70775 5.243763,0.189304 9.639173,-0.708978 12.395645,-3.70775 0.196364,-4.803409 -0.852816,-8.767368 -3.88312,-11.400687 -1.252524,-1.088433 -2.99387,-1.52494 -4.755348,-1.663178 z" /><path
       id="path518"
       style="fill:#2a92c9;fill-opacity:1;stroke-width:0.165803;stroke-linecap:round;stroke-linejoin:round"
       d="m 30.036144,21.939259 a 7.5303697,7.5303697 0 0 1 -3.40231,0.817143 7.5303697,7.5303697 0 0 1 -3.315093,-0.771049 c -1.612288,0.106277 -3.290292,0.43642 -4.429731,1.464918 -2.707469,2.443853 -3.706139,5.993686 -3.527745,10.357626 2.50428,2.724411 6.497444,3.540508 11.261449,3.368524 4.764006,0.171984 8.757275,-0.644113 11.261555,-3.368524 0.178398,-4.36394 -0.774791,-7.965232 -3.52785,-10.357626 -1.137928,-0.98885 -2.719957,-1.385421 -4.320275,-1.511012 z" /><path
       id="circle677"
       style="fill:#0bb1cb;fill-opacity:1;stroke-width:0.122865;stroke-linecap:round;stroke-linejoin:round"
       d="m 37.100049,12.672202 a 4.5954117,4.5954117 0 0 0 -3.055056,1.165911 7.5686346,7.5686346 0 0 1 0.141194,1.451857 7.5686346,7.5686346 0 0 1 -1.183072,4.053542 4.5954117,4.5954117 0 0 0 4.096934,2.519431 4.5954117,4.5954117 0 0 0 4.595427,-4.595317 4.5954117,4.5954117 0 0 0 -4.595427,-4.595424 z" /><path
       id="circle681"
       style="fill:#2d85c6;fill-opacity:1;stroke-width:0.122865;stroke-linecap:round;stroke-linejoin:round"
       d="m 16.020162,12.672202 a 4.5954117,4.5954117 0 0 0 -4.595427,4.595425 4.5954117,4.5954117 0 0 0 4.595427,4.595316 4.5954117,4.5954117 0 0 0 4.148536,-2.620359 7.5686346,7.5686346 0 0 1 -1.119716,-3.952614 7.5686346,7.5686346 0 0 1 0.128565,-1.360859 4.5954117,4.5954117 0 0 0 -3.157385,-1.256909 z" /><circle
       style="fill:#2a92c9;fill-opacity:1;stroke-width:0.165803;stroke-linecap:round;stroke-linejoin:round"
       id="path354"
       cx="26.633873"
       cy="15.225991"
       r="6.2013769" /><circle
       style="fill:#002a43;fill-opacity:1;stroke-width:0.237773;stroke-linecap:round;stroke-linejoin:round"
       id="circle671"
       cx="26.458334"
       cy="39.05706"
       r="8.8931503" /><g
       id="g4696"
       transform="matrix(0.84496065,0,0,0.84496065,3.9918525,7.5716477)"><circle
         class="cls-1"
         cx="26.611727"
         cy="37.333572"
         r="9.1313477"
         id="circle978"
         style="stroke-width:0.0364074" /><path
         class="cls-2"
         d="m 34.205952,34.407144 a 1.8527741,1.8527741 0 0 0 -1.266979,-0.527543 c -0.178032,0.02585 -0.364074,-0.0055 -0.535553,0.06735 -0.498418,0.109223 -0.926569,0.41905 -1.284454,0.769289 -0.107038,0.136528 -0.235921,0.254852 -0.339682,0.39138 -0.09684,0.176212 -0.227182,0.332036 -0.307643,0.516622 -0.289075,0.516985 -0.420141,1.111519 -0.458733,1.701683 0.02002,0.231915 0.02512,0.461646 0.04879,0.691741 0.06663,0.152547 0.0324,0.370264 0.20643,0.456549 0.115412,0.02148 0.229367,-0.03095 0.331672,-0.08556 0.266502,-0.185678 0.498417,-0.421598 0.713585,-0.669897 0.267595,-0.223177 0.463103,-0.519898 0.713222,-0.759095 0.140897,-0.112863 0.238468,-0.262497 0.376453,-0.37172 0.256672,-0.266866 0.554485,-0.487859 0.862492,-0.691741 0.242109,-0.12961 0.514801,-0.234464 0.79623,-0.218444 a 1.2484108,1.2484108 0 0 1 0.854118,0.504607 3.1827375,3.1827375 0 0 1 0.463467,0.889433 8.3919126,8.3919126 0 0 0 -0.261041,-1.37074 c -0.140169,-0.166382 -0.19296,-0.393564 -0.315289,-0.57196 -0.17694,-0.256673 -0.350239,-0.529 -0.597081,-0.72196 z"
         id="path980"
         style="stroke-width:0.0364074" /><path
         class="cls-2"
         d="m 19.173324,36.077153 c 0.07027,0.285434 0.07573,0.585796 0.170751,0.863948 0.05061,0.199513 0.109222,0.405579 0.218444,0.580335 0.07027,0.107402 0.117232,0.233372 0.223542,0.312012 0.109222,0.104489 0.262133,0.142353 0.407763,0.170022 a 2.8561629,2.8561629 0 0 0 0.327667,-0.09976 c 0.251939,-0.161285 0.456185,-0.385191 0.64878,-0.610917 0.182037,-0.155824 0.336405,-0.348783 0.546112,-0.473296 0.299997,-0.189683 0.655333,-0.356793 1.019408,-0.29126 0.498417,0.02294 0.961156,0.254852 1.388215,0.496233 0.190047,0.135436 0.395749,0.254852 0.54866,0.432521 0.398661,0.427787 0.681911,0.970622 0.754726,1.553141 0.03859,0.17694 0.08082,0.364074 0.03641,0.541014 0.0076,0.712858 -0.224997,1.41006 -0.526451,2.051923 -0.174756,0.289439 -0.332036,0.594533 -0.562131,0.841376 -0.08993,0.130338 -0.179488,0.260677 -0.308371,0.356792 -0.515529,0.539923 -1.186882,0.94987 -1.926317,1.088583 l -0.732517,0.04478 a 2.5761897,2.5761897 0 0 1 -0.524995,-0.102669 8.4589023,8.4589023 0 0 0 2.475705,1.77741 c 4.223262,1.994399 9.263142,0.187863 11.257541,-4.034671 a 2.464783,2.464783 0 0 0 0.05461,-0.280701 c 0.01748,-0.18495 0.04624,-0.368443 0.02694,-0.553029 0.04551,-0.282522 -0.01019,-0.570869 -0.01347,-0.856667 -0.0699,-0.285798 -0.07573,-0.58616 -0.170751,-0.863948 -0.05024,-0.199513 -0.107402,-0.405579 -0.218444,-0.580335 -0.0699,-0.107402 -0.117232,-0.233371 -0.223178,-0.312375 -0.109222,-0.104126 -0.262133,-0.141989 -0.407763,-0.169659 a 2.6351698,2.6351698 0 0 0 -0.327667,0.09976 c -0.251939,0.161285 -0.456185,0.385191 -0.649144,0.610917 -0.182037,0.156188 -0.336405,0.349147 -0.546112,0.473297 -0.300361,0.191503 -0.655334,0.358977 -1.019408,0.293444 -0.498782,-0.02294 -0.96152,-0.254853 -1.388579,-0.496234 -0.190047,-0.135799 -0.395749,-0.254852 -0.548296,-0.43252 -0.400482,-0.425967 -0.682275,-0.972078 -0.75509,-1.554597 -0.03641,-0.176576 -0.08083,-0.362254 -0.03641,-0.540651 -0.0076,-0.712857 0.224998,-1.410059 0.526816,-2.051922 0.174391,-0.289439 0.331672,-0.594898 0.561767,-0.84174 0.08993,-0.130339 0.179488,-0.260677 0.30837,-0.356429 0.515894,-0.540286 1.187247,-0.950234 1.926318,-1.088946 l 0.733609,-0.04333 a 2.4483997,2.4483997 0 0 1 0.699387,0.164198 8.433053,8.433053 0 0 0 -6.181253,-2.688325 c -3.488924,0 -6.483436,2.111631 -7.776627,5.123982 a 0.28907499,0.28907499 0 0 0 -0.0058,0.03641 c -0.01748,0.185314 -0.04624,0.368443 -0.02621,0.554849 -0.04551,0.282886 0.01019,0.571233 0.01347,0.857031 z m 8.716667,1.901196 c 0.175848,0.673174 0.640042,1.224018 1.132635,1.699499 0.24575,0.291259 0.582519,0.488588 0.828269,0.787129 a 7.4613387,7.4613387 0 0 1 -1.134092,-0.126334 3.7943824,3.7943824 0 0 1 -1.301201,-0.462375 c -0.218445,-0.137984 -0.460554,-0.250119 -0.642591,-0.439073 -0.319658,-0.24393 -0.580335,-0.553757 -0.798779,-0.885065 -0.236649,-0.391744 -0.436889,-0.827177 -0.461282,-1.287731 0.02039,-0.16711 0.04332,-0.341865 0.121964,-0.492592 0.196236,-0.360434 0.608004,-0.546112 1.004117,-0.555213 0.20279,0.03313 0.416501,0.04915 0.598538,0.152911 0.28325,0.09357 0.464559,0.353516 0.553757,0.621111 0.02585,0.330579 0.01529,0.666984 0.09866,0.987733 z m -3.136136,-3.495113 a 1.6922173,1.6922173 0 0 1 0.83737,-0.69429 c 0.178033,-0.07063 0.364075,-0.128154 0.564316,-0.116868 0.336404,-0.05643 0.685187,0.04915 0.970986,0.22427 0.149634,0.138348 0.327667,0.268687 0.39502,0.469292 a 0.85120571,0.85120571 0 0 1 -0.04733,0.7256 c -0.131431,0.304366 -0.400482,0.531913 -0.688829,0.684096 -0.220629,0.104125 -0.453272,0.202425 -0.701207,0.188226 -0.263226,0.04769 -0.533005,-0.0073 -0.778027,-0.09648 -0.303274,-0.123785 -0.574509,-0.364074 -0.658246,-0.689192 -0.09794,-0.23228 0.0076,-0.480943 0.105946,-0.69429 z"
         id="path982"
         style="stroke-width:0.0364074" /><path
         class="cls-2"
         d="m 18.943229,39.78343 a 2.8889296,2.8889296 0 0 1 -0.34041,-0.582519 8.4046552,8.4046552 0 0 0 0.336405,1.415156 1.5207384,1.5207384 0 0 0 0.117596,0.218445 c 0.17694,0.257036 0.349147,0.529364 0.597082,0.721959 a 1.8567789,1.8567789 0 0 0 1.267342,0.528636 c 0.177669,-0.02621 0.364075,0.0055 0.53519,-0.06735 0.498781,-0.109223 0.926569,-0.419414 1.284454,-0.769289 0.109222,-0.136892 0.236284,-0.254852 0.339681,-0.391744 0.09721,-0.175848 0.227182,-0.331672 0.307643,-0.516258 0.289075,-0.516985 0.420142,-1.111519 0.458734,-1.702047 -0.02003,-0.231551 -0.02512,-0.461282 -0.04879,-0.691741 -0.06626,-0.152547 -0.03204,-0.370264 -0.206431,-0.456185 -0.113227,-0.02148 -0.229002,0.03095 -0.331671,0.08519 -0.266139,0.186042 -0.498418,0.421962 -0.713222,0.669897 -0.267594,0.223541 -0.463466,0.520262 -0.713585,0.759095 -0.140897,0.112863 -0.238469,0.262497 -0.376453,0.371719 -0.254852,0.266503 -0.554121,0.487496 -0.862128,0.691742 -0.242474,0.129246 -0.514801,0.234463 -0.796595,0.218444 a 1.2524156,1.2524156 0 0 1 -0.854846,-0.50315 z"
         id="path984"
         style="stroke-width:0.0364074" /><path
         class="cls-3"
         d="m 25.671322,35.231409 c 0.247934,0.0142 0.480578,-0.0841 0.701207,-0.188227 0.28689,-0.152183 0.557398,-0.379729 0.688829,-0.684095 a 0.85193386,0.85193386 0 0 0 0.04733,-0.725965 c -0.06735,-0.200605 -0.245386,-0.330943 -0.39502,-0.469291 -0.286163,-0.17512 -0.634582,-0.280702 -0.970987,-0.22427 -0.199148,-0.01129 -0.386282,0.04624 -0.564315,0.116868 a 1.6933096,1.6933096 0 0 0 -0.837371,0.694653 c -0.0983,0.213348 -0.205338,0.462011 -0.106673,0.694654 0.08374,0.32439 0.354972,0.565408 0.658246,0.689193 0.24575,0.08883 0.515529,0.144173 0.778754,0.09648 z"
         id="path986"
         style="fill:url(#linearGradient1011);stroke-width:0.0364074" /><path
         class="cls-4"
         d="m 28.610494,38.944966 c -0.492593,-0.475481 -0.956788,-1.027053 -1.132635,-1.699498 -0.08337,-0.32075 -0.07281,-0.657155 -0.09867,-0.987734 -0.0892,-0.267595 -0.270507,-0.527544 -0.553757,-0.621111 -0.182037,-0.103761 -0.395748,-0.11978 -0.598538,-0.152911 -0.396113,0.01056 -0.807881,0.195144 -1.004117,0.555213 -0.07864,0.150727 -0.101576,0.325483 -0.121965,0.492593 0.02512,0.460554 0.224634,0.895987 0.461283,1.288095 0.218444,0.331307 0.479121,0.641135 0.798779,0.885064 0.182037,0.188955 0.42269,0.300726 0.642591,0.43871 a 3.7863727,3.7863727 0 0 0 1.301201,0.462738 7.4562417,7.4562417 0 0 0 1.134092,0.126334 c -0.244294,-0.298905 -0.582519,-0.497325 -0.828269,-0.787493 z"
         id="path988"
         style="fill:url(#linear-gradient-2);stroke-width:0.0364074" /><path
         class="cls-5"
         d="m 26.588789,28.028563 c -5.099953,0 -9.234016,4.134427 -9.234016,9.234016 0,5.099589 4.134063,9.234017 9.234016,9.234017 5.099953,0 9.234017,-4.134064 9.234017,-9.234017 0,-5.099953 -4.134428,-9.234016 -9.234017,-9.234016 z m -7.34884,12.795027 c -0.247934,-0.192595 -0.420141,-0.464559 -0.597082,-0.721595 a 1.4522924,1.4522924 0 0 1 -0.117596,-0.218445 8.4046552,8.4046552 0 0 1 -0.336404,-1.415157 2.8721822,2.8721822 0 0 0 0.340409,0.582519 1.2498671,1.2498671 0 0 0 0.854847,0.502787 c 0.281793,0.01602 0.554121,-0.0892 0.796594,-0.218445 0.308007,-0.203882 0.605456,-0.425239 0.862128,-0.691741 0.137984,-0.109222 0.235556,-0.258493 0.376453,-0.37172 0.250119,-0.238833 0.445991,-0.535189 0.713586,-0.759095 0.214804,-0.247934 0.447083,-0.483855 0.713221,-0.669897 0.102669,-0.05425 0.218445,-0.106309 0.331672,-0.08519 0.174027,0.08629 0.140169,0.303638 0.20643,0.456185 0.0233,0.230459 0.0284,0.460554 0.04879,0.691741 -0.03859,0.590529 -0.170023,1.185062 -0.459098,1.702048 -0.08046,0.184949 -0.210435,0.340773 -0.307642,0.516257 -0.103033,0.136528 -0.23228,0.254852 -0.339682,0.392108 -0.357885,0.349511 -0.785672,0.659339 -1.284454,0.769289 -0.169659,0.07282 -0.357521,0.04114 -0.534825,0.06735 a 1.8567789,1.8567789 0 0 1 -1.267343,-0.529 z m 15.019522,-0.261406 a 2.5142971,2.5142971 0 0 1 -0.05461,0.280702 c -1.994763,4.222898 -7.033551,6.031255 -11.256813,4.035035 a 8.4505286,8.4505286 0 0 1 -2.475705,-1.777775 2.5244912,2.5244912 0 0 0 0.524631,0.102669 l 0.732881,-0.04478 c 0.739435,-0.138712 1.410788,-0.54866 1.925954,-1.088582 0.128882,-0.09612 0.218444,-0.226454 0.30837,-0.356429 0.230459,-0.246842 0.387376,-0.551936 0.562495,-0.841739 0.30109,-0.641863 0.533733,-1.339066 0.526452,-2.051559 0.04442,-0.178397 0.0022,-0.364074 -0.03641,-0.541015 -0.07281,-0.582518 -0.356064,-1.126445 -0.754726,-1.554233 -0.152911,-0.179124 -0.358613,-0.297084 -0.54866,-0.43252 -0.427059,-0.241017 -0.889797,-0.473297 -1.388215,-0.496233 -0.364074,-0.06553 -0.719411,0.101576 -1.019408,0.291259 -0.209707,0.124514 -0.364074,0.317473 -0.546112,0.473297 -0.194051,0.225726 -0.396476,0.449632 -0.651328,0.610916 a 2.8033721,2.8033721 0 0 1 -0.327667,0.09939 c -0.14563,-0.02731 -0.297449,-0.06553 -0.407764,-0.170023 -0.106309,-0.07864 -0.153275,-0.204246 -0.223541,-0.311648 -0.109222,-0.174755 -0.167838,-0.381185 -0.218445,-0.580334 -0.09502,-0.278153 -0.100484,-0.578514 -0.170751,-0.863948 -0.0033,-0.285799 -0.05898,-0.574146 -0.01347,-0.857031 -0.02002,-0.186406 0.0087,-0.369536 0.02621,-0.554849 a 0.28907499,0.28907499 0 0 1 0.0058,-0.03641 c 1.293192,-3.011258 4.288795,-5.124346 7.777719,-5.124346 a 8.4345093,8.4345093 0 0 1 6.18089,2.688325 2.4727926,2.4727926 0 0 0 -0.699387,-0.164198 l -0.732517,0.04442 c -0.739071,0.138712 -1.410424,0.548659 -1.926317,1.088946 -0.128883,0.09575 -0.218445,0.226454 -0.308371,0.356428 -0.230095,0.246843 -0.387375,0.552301 -0.561767,0.84174 -0.301818,0.641863 -0.534461,1.339066 -0.526816,2.051923 -0.04442,0.178396 0,0.364074 0.03641,0.54065 0.07281,0.582519 0.356065,1.128631 0.75509,1.554962 0.152547,0.17876 0.358249,0.296356 0.548296,0.43252 0.427059,0.240289 0.889797,0.473297 1.388579,0.496233 0.364075,0.06517 0.719047,-0.101941 1.019408,-0.293444 0.209707,-0.124149 0.364075,-0.317108 0.546112,-0.473296 0.192595,-0.225726 0.397205,-0.449632 0.64878,-0.610917 a 2.6541016,2.6541016 0 0 1 0.327667,-0.09976 c 0.14563,0.02767 0.297085,0.06553 0.407763,0.169294 0.10631,0.07937 0.153275,0.205338 0.223542,0.312376 0.109222,0.174756 0.167838,0.380822 0.218444,0.580334 0.09466,0.277789 0.100485,0.57815 0.170751,0.863949 0.0033,0.286162 0.05898,0.574145 0.01347,0.856667 0.02075,0.184949 -0.0095,0.368443 -0.02694,0.553028 z m -0.609825,-5.616938 c -0.281429,-0.01602 -0.554121,0.08883 -0.79623,0.218445 -0.308007,0.203881 -0.60582,0.424874 -0.862492,0.691741 -0.137985,0.109222 -0.235557,0.258857 -0.376453,0.37172 -0.250119,0.239197 -0.445627,0.535917 -0.713222,0.759095 -0.215168,0.248298 -0.447083,0.484219 -0.713585,0.669896 -0.102305,0.05461 -0.216261,0.107038 -0.331672,0.08556 -0.174028,-0.08629 -0.139805,-0.304002 -0.20643,-0.456549 -0.02367,-0.230095 -0.02876,-0.459826 -0.04879,-0.691741 0.03859,-0.590165 0.169658,-1.184698 0.458733,-1.701684 0.08046,-0.18495 0.210799,-0.340773 0.307643,-0.516621 0.103761,-0.136528 0.232644,-0.254852 0.339681,-0.39138 0.357886,-0.35024 0.786037,-0.659703 1.284455,-0.769653 0.170022,-0.07281 0.357521,-0.04151 0.535553,-0.06735 a 1.8567789,1.8567789 0 0 1 1.266978,0.527544 c 0.248299,0.193323 0.420142,0.465287 0.596718,0.721959 0.122329,0.178397 0.17512,0.405579 0.315653,0.572325 a 8.4731012,8.4731012 0 0 1 0.261041,1.370376 3.1951161,3.1951161 0 0 0 -0.463467,-0.88907 1.2498671,1.2498671 0 0 0 -0.854118,-0.504607 z"
         id="path990"
         style="fill:url(#linear-gradient-3);stroke-width:0.0364074" /></g></g></svg>
