<?xml version="1.0" encoding="UTF-8" standalone="no"?>
<!-- Created with Inkscape (http://www.inkscape.org/) -->

<svg
   width="24"
   height="24"
   viewBox="0 0 6.35 6.3499999"
   version="1.1"
   id="svg5"
   xml:space="preserve"
   inkscape:version="1.3 (0e150ed6c4, 2023-07-21)"
   sodipodi:docname="big-community.svg"
   inkscape:export-filename="big-community.pdf"
   inkscape:export-xdpi="96"
   inkscape:export-ydpi="96"
   xmlns:inkscape="http://www.inkscape.org/namespaces/inkscape"
   xmlns:sodipodi="http://sodipodi.sourceforge.net/DTD/sodipodi-0.dtd"
   xmlns:xlink="http://www.w3.org/1999/xlink"
   xmlns="http://www.w3.org/2000/svg"
   xmlns:svg="http://www.w3.org/2000/svg"><sodipodi:namedview
     id="namedview7"
     pagecolor="#ffffff"
     bordercolor="#000000"
     borderopacity="0.25"
     inkscape:showpageshadow="2"
     inkscape:pageopacity="0.0"
     inkscape:pagecheckerboard="0"
     inkscape:deskcolor="#d1d1d1"
     inkscape:document-units="mm"
     showgrid="false"
     inkscape:zoom="8.109987"
     inkscape:cx="-30.024709"
     inkscape:cy="23.736166"
     inkscape:window-width="3440"
     inkscape:window-height="1358"
     inkscape:window-x="2560"
     inkscape:window-y="0"
     inkscape:window-maximized="1"
     inkscape:current-layer="layer1"><inkscape:page
       x="0"
       y="0"
       width="6.3499999"
       height="6.3499999"
       id="page18"
       margin="0"
       bleed="0" /></sodipodi:namedview><defs
     id="defs2"><style
       id="style967">.cls-1{fill:#16171c;stroke:#000;stroke-miterlimit:10;}.cls-2{fill:#2c2d3d;}.cls-3{fill:url(#linear-gradient);}.cls-4{fill:url(#linear-gradient-2);}.cls-5{fill:url(#linear-gradient-3);}</style><linearGradient
       id="linear-gradient"
       x1="70.739998"
       y1="207.69"
       x2="304.39001"
       y2="456.44"
       gradientTransform="matrix(1,0,0,-1,16.81,529.63)"
       gradientUnits="userSpaceOnUse"><stop
         offset="0"
         stop-color="#2d85c6"
         id="stop969" /><stop
         offset="1"
         stop-color="#04bacc"
         id="stop971" /></linearGradient><linearGradient
       id="linear-gradient-2"
       x1="146.39"
       y1="136.63"
       x2="380.04001"
       y2="385.38"
       xlink:href="#linear-gradient"
       gradientTransform="matrix(0.03640743,0,0,0.03640743,17.268487,27.942277)" /><linearGradient
       id="linear-gradient-3"
       x1="127.32"
       y1="154.53999"
       x2="360.97"
       y2="403.29001"
       xlink:href="#linear-gradient"
       gradientTransform="matrix(0.03640743,0,0,0.03640743,17.268487,27.942277)" /><radialGradient
       id="a"
       cx="0"
       cy="0"
       r="1"
       gradientTransform="matrix(0,5.8208333,-5.8208333,0,3.175,0.26458333)"
       gradientUnits="userSpaceOnUse"><stop
         stop-color="#A1DEFF"
         id="stop9"
         offset="0"
         style="stop-color:#002a43;stop-opacity:1;" /><stop
         offset="1"
         stop-color="#005B90"
         id="stop10"
         style="stop-color:#2c2d3d;stop-opacity:1;" /></radialGradient><radialGradient
       fx="0"
       fy="0"
       cx="0"
       cy="0"
       r="1"
       gradientUnits="userSpaceOnUse"
       gradientTransform="matrix(0,16.5,-16.5,0,9,0.75)"
       spreadMethod="pad"
       id="radialGradient2"><stop
         style="stop-opacity:1;stop-color:#002a43"
         offset="0"
         id="stop1" /><stop
         style="stop-opacity:1;stop-color:#2c2d3d"
         offset="1"
         id="stop2" /></radialGradient><linearGradient
       x1="70.739998"
       y1="207.69"
       x2="304.39001"
       y2="456.44"
       gradientUnits="userSpaceOnUse"
       gradientTransform="matrix(0.00886934,0,0,-0.00886934,6.878542,14.862903)"
       spreadMethod="pad"
       id="linearGradient15-3"><stop
         style="stop-opacity:1;stop-color:#2d85c6"
         offset="0"
         id="stop14" /><stop
         style="stop-opacity:1;stop-color:#04bacc"
         offset="1"
         id="stop15" /></linearGradient><linearGradient
       x1="146.39"
       y1="136.63"
       x2="380.04001"
       y2="385.38"
       gradientUnits="userSpaceOnUse"
       gradientTransform="matrix(0.00886934,0,0,0.00886934,6.729449,10.165435)"
       spreadMethod="pad"
       id="linearGradient17-6"><stop
         style="stop-opacity:1;stop-color:#2d85c6"
         offset="0"
         id="stop16" /><stop
         style="stop-opacity:1;stop-color:#04bacc"
         offset="1"
         id="stop17" /></linearGradient><linearGradient
       x1="127.32"
       y1="154.53999"
       x2="360.97"
       y2="403.29001"
       gradientUnits="userSpaceOnUse"
       gradientTransform="matrix(0.00886934,0,0,0.00886934,6.729449,10.165435)"
       spreadMethod="pad"
       id="linearGradient19"><stop
         style="stop-opacity:1;stop-color:#2d85c6"
         offset="0"
         id="stop18" /><stop
         style="stop-opacity:1;stop-color:#04bacc"
         offset="1"
         id="stop19" /></linearGradient></defs><g
     inkscape:label="Camada 1"
     inkscape:groupmode="layer"
     id="layer1"
     transform="translate(-16.35)" /><g
     id="g1"
     inkscape:groupmode="layer"
     inkscape:label="1"
     transform="scale(0.26458333)"><path
       id="path2-7"
       d="m 7.195,0.836 c 0.09,0 0.176,-0.012 0.258,-0.035 1.078,-0.071 2.156,-0.067 3.231,0.008 0.976,0.078 1.921,0.289 2.836,0.636 1.519,0.625 2.558,1.711 3.121,3.254 0.32,0.93 0.507,1.887 0.566,2.867 0.078,1.231 0.051,2.469 -0.086,3.692 -0.101,0.859 -0.328,1.699 -0.672,2.492 -0.637,1.383 -1.672,2.336 -3.101,2.859 C 12.195,17 10.992,17.207 9.773,17.227 8.402,17.301 7.031,17.195 5.684,16.918 3.199,16.367 1.668,14.852 1.09,12.375 0.844,11.266 0.73,10.129 0.754,8.992 0.727,7.785 0.855,6.578 1.141,5.402 1.75,3.09 3.219,1.656 5.547,1.102 6.09,0.969 6.641,0.879 7.199,0.836 Z"
       transform="scale(1.3333333)"
       style="fill:url(#radialGradient2);fill-rule:evenodd;stroke:none" /><path
       id="path3-5"
       d="m 12.883,7.598 c -0.258,0.144 -0.547,0.222 -0.84,0.222 -0.285,0 -0.57,-0.074 -0.82,-0.215 -0.317,0.032 -0.633,0.11 -0.852,0.309 -0.586,0.527 -0.805,1.297 -0.766,2.242 0.543,0.59 1.407,0.766 2.438,0.731 1.031,0.035 1.895,-0.141 2.437,-0.731 C 14.52,9.211 14.312,8.434 13.719,7.914 13.496,7.723 13.191,7.633 12.883,7.598 Z"
       style="fill:#0bb1cb;fill-opacity:1;fill-rule:nonzero;stroke:none"
       transform="scale(1.3333333)" /><path
       id="path4-3"
       d="M 6.793,7.598 C 6.539,7.742 6.25,7.82 5.957,7.82 5.668,7.82 5.387,7.746 5.137,7.605 4.82,7.637 4.504,7.715 4.281,7.914 3.695,8.441 3.48,9.211 3.52,10.156 c 0.542,0.59 1.406,0.766 2.437,0.731 1.031,0.035 1.895,-0.141 2.438,-0.731 C 8.434,9.211 8.227,8.434 7.629,7.914 7.406,7.723 7.105,7.633 6.793,7.598 Z"
       style="fill:#2d85c6;fill-opacity:1;fill-rule:nonzero;stroke:none"
       transform="scale(1.3333333)" /><path
       id="path5-5"
       d="M 10.129,7.277 C 9.797,7.449 9.426,7.539 9.051,7.539 8.688,7.539 8.328,7.453 8,7.293 7.488,7.328 6.953,7.434 6.594,7.758 5.734,8.535 5.418,9.66 5.473,11.047 6.27,11.91 7.535,12.168 9.047,12.113 10.559,12.168 11.828,11.91 12.621,11.047 12.68,9.66 12.375,8.52 11.5,7.758 11.141,7.445 10.637,7.32 10.129,7.277 Z"
       style="fill:#002a43;fill-opacity:1;fill-rule:nonzero;stroke:none"
       transform="scale(1.3333333)" /><path
       id="path6-6"
       d="M 10.031,7.5 C 9.727,7.656 9.391,7.734 9.051,7.734 8.719,7.734 8.391,7.66 8.094,7.516 7.629,7.543 7.145,7.641 6.816,7.938 6.035,8.641 5.75,9.664 5.801,10.922 c 0.722,0.785 1.875,1.019 3.246,0.973 1.375,0.046 2.523,-0.188 3.246,-0.973 C 12.344,9.664 12.07,8.625 11.277,7.938 10.949,7.652 10.492,7.535 10.031,7.5 Z"
       style="fill:#2a92c9;fill-opacity:1;fill-rule:nonzero;stroke:none"
       transform="scale(1.3333333)" /><path
       id="path7-2"
       d="m 12.066,4.828 c -0.324,0 -0.636,0.121 -0.878,0.336 0.027,0.141 0.039,0.277 0.039,0.418 0,0.414 -0.118,0.82 -0.34,1.172 0.226,0.445 0.683,0.723 1.179,0.726 0.735,0 1.329,-0.593 1.329,-1.328 0,-0.73 -0.594,-1.324 -1.329,-1.324 z"
       style="fill:#0bb1cb;fill-opacity:1;fill-rule:nonzero;stroke:none"
       transform="scale(1.3333333)" /><path
       id="path8"
       d="m 5.992,4.828 c -0.734,0 -1.328,0.594 -1.328,1.324 0,0.735 0.594,1.328 1.328,1.328 C 6.5,7.48 6.969,7.184 7.188,6.723 6.977,6.379 6.863,5.984 6.863,5.582 6.863,5.453 6.875,5.32 6.902,5.191 6.656,4.957 6.328,4.828 5.992,4.828 Z"
       style="fill:#2d85c6;fill-opacity:1;fill-rule:nonzero;stroke:none"
       transform="scale(1.3333333)" /><path
       id="path9-9"
       d="m 10.84,5.566 c 0,0.985 -0.801,1.786 -1.789,1.786 -0.989,0 -1.789,-0.801 -1.789,-1.786 0,-0.988 0.8,-1.789 1.789,-1.789 0.988,0 1.789,0.801 1.789,1.789 z"
       style="fill:#2a92c9;fill-opacity:1;fill-rule:nonzero;stroke:none"
       transform="scale(1.3333333)" /><path
       id="path10-1"
       d="M 11.562,12.438 C 11.562,13.852 10.418,15 9,15 7.582,15 6.438,13.852 6.438,12.438 6.438,11.02 7.582,9.871 9,9.871 c 1.418,0 2.562,1.149 2.562,2.567 z"
       style="fill:#002a43;fill-opacity:1;fill-rule:nonzero;stroke:none"
       transform="scale(1.3333333)" /><path
       id="path11-2"
       d="m 11.23,12.453 c 0,1.231 -0.996,2.227 -2.226,2.227 -1.227,0 -2.223,-0.996 -2.223,-2.227 0,-1.226 0.996,-2.223 2.223,-2.223 1.23,0 2.226,0.997 2.226,2.223 z"
       style="fill:#16171c;fill-opacity:1;fill-rule:nonzero;stroke:#000000;stroke-width:0.0872017;stroke-linecap:butt;stroke-linejoin:miter;stroke-miterlimit:10;stroke-dasharray:none;stroke-opacity:1"
       transform="scale(1.3333333)" /><path
       id="path12-7"
       d="m 10.855,11.742 c -0.082,-0.082 -0.191,-0.129 -0.308,-0.129 -0.043,0.004 -0.09,-0.004 -0.129,0.016 -0.121,0.027 -0.227,0.101 -0.313,0.187 -0.027,0.032 -0.058,0.063 -0.085,0.094 -0.024,0.043 -0.055,0.082 -0.075,0.125 -0.07,0.129 -0.101,0.274 -0.109,0.418 0.004,0.055 0.004,0.109 0.012,0.168 0.015,0.035 0.007,0.09 0.047,0.109 0.031,0.008 0.058,-0.007 0.082,-0.019 0.066,-0.047 0.121,-0.102 0.175,-0.164 0.063,-0.055 0.114,-0.125 0.172,-0.184 0.035,-0.027 0.059,-0.066 0.094,-0.09 0.062,-0.066 0.133,-0.121 0.207,-0.171 0.059,-0.032 0.129,-0.055 0.195,-0.051 0.082,0.008 0.16,0.054 0.207,0.121 0.051,0.066 0.09,0.14 0.114,0.219 C 11.129,12.277 11.109,12.164 11.078,12.055 11.043,12.016 11.031,11.961 11,11.918 10.957,11.855 10.914,11.789 10.855,11.742 Z"
       style="fill:#2c2d3d;fill-opacity:1;fill-rule:nonzero;stroke:none"
       transform="scale(1.3333333)" /><path
       id="path13-0"
       d="m 7.195,12.148 c 0.016,0.067 0.016,0.141 0.039,0.211 0.012,0.047 0.028,0.098 0.055,0.141 0.016,0.023 0.027,0.055 0.055,0.074 0.027,0.028 0.062,0.035 0.097,0.043 0.028,-0.008 0.055,-0.015 0.082,-0.023 0.059,-0.039 0.11,-0.094 0.157,-0.153 0.043,-0.035 0.082,-0.082 0.132,-0.113 0.075,-0.047 0.161,-0.086 0.25,-0.07 0.122,0.004 0.235,0.062 0.336,0.121 0.047,0.031 0.098,0.062 0.137,0.105 0.094,0.102 0.164,0.235 0.184,0.379 0.008,0.043 0.019,0.086 0.008,0.129 0,0.176 -0.055,0.344 -0.129,0.5 -0.043,0.07 -0.082,0.145 -0.137,0.207 -0.023,0.031 -0.043,0.063 -0.074,0.086 -0.125,0.133 -0.289,0.231 -0.469,0.266 l -0.18,0.011 C 7.695,14.059 7.652,14.051 7.609,14.035 c 0.172,0.18 0.379,0.328 0.606,0.434 1.027,0.488 2.254,0.047 2.742,-0.981 0.004,-0.023 0.008,-0.047 0.012,-0.07 0.004,-0.047 0.011,-0.09 0.008,-0.133 0.011,-0.07 -0.004,-0.14 -0.004,-0.211 -0.016,-0.07 -0.02,-0.14 -0.043,-0.211 -0.012,-0.047 -0.024,-0.097 -0.051,-0.14 -0.02,-0.028 -0.031,-0.059 -0.055,-0.075 -0.027,-0.027 -0.066,-0.035 -0.101,-0.043 -0.028,0.008 -0.055,0.016 -0.078,0.024 -0.063,0.039 -0.114,0.094 -0.161,0.148 -0.043,0.039 -0.082,0.086 -0.132,0.118 -0.071,0.046 -0.161,0.085 -0.247,0.07 C 9.984,12.961 9.871,12.902 9.766,12.844 9.719,12.812 9.668,12.781 9.633,12.738 9.535,12.637 9.465,12.504 9.449,12.359 9.441,12.316 9.43,12.273 9.441,12.23 9.438,12.055 9.496,11.887 9.566,11.73 9.609,11.66 9.648,11.582 9.703,11.523 9.727,11.492 9.75,11.461 9.781,11.438 9.906,11.305 10.07,11.207 10.25,11.172 l 0.18,-0.012 c 0.058,0.004 0.113,0.02 0.168,0.039 -0.387,-0.418 -0.934,-0.652 -1.504,-0.652 -0.852,0 -1.582,0.512 -1.895,1.246 0,0.004 -0.004,0.008 -0.004,0.012 -0.004,0.043 -0.011,0.09 -0.004,0.133 -0.011,0.07 0,0.14 0.004,0.21 z m 2.121,0.461 c 0.043,0.164 0.157,0.301 0.278,0.414 0.058,0.071 0.14,0.122 0.199,0.192 -0.09,0 -0.184,-0.012 -0.273,-0.031 C 9.406,13.168 9.301,13.129 9.203,13.074 9.148,13.039 9.09,13.012 9.043,12.965 8.969,12.906 8.902,12.832 8.852,12.75 8.793,12.656 8.742,12.547 8.738,12.438 8.742,12.395 8.75,12.352 8.77,12.316 8.816,12.23 8.914,12.184 9.012,12.18 c 0.05,0.008 0.101,0.011 0.144,0.039 0.071,0.023 0.114,0.086 0.137,0.152 0.008,0.078 0.004,0.16 0.023,0.238 z M 8.555,11.758 C 8.602,11.68 8.672,11.621 8.758,11.59 8.801,11.574 8.844,11.559 8.895,11.562 8.977,11.547 9.062,11.574 9.133,11.617 9.168,11.648 9.211,11.68 9.227,11.73 9.25,11.789 9.246,11.852 9.215,11.906 9.184,11.98 9.117,12.035 9.047,12.074 8.996,12.098 8.938,12.121 8.879,12.121 8.812,12.133 8.746,12.117 8.688,12.098 8.613,12.066 8.547,12.008 8.527,11.93 c -0.023,-0.059 0,-0.118 0.028,-0.172 z"
       style="fill:#2c2d3d;fill-opacity:1;fill-rule:nonzero;stroke:none"
       transform="scale(1.3333333)" /><path
       id="path14-9"
       d="M 7.137,13.051 C 7.105,13.008 7.078,12.957 7.055,12.906 c 0.015,0.117 0.043,0.235 0.082,0.348 0.008,0.016 0.015,0.035 0.027,0.051 0.043,0.062 0.086,0.129 0.148,0.175 0.083,0.082 0.192,0.129 0.309,0.129 C 7.664,13.605 7.707,13.613 7.75,13.594 7.871,13.566 7.977,13.492 8.062,13.406 8.09,13.375 8.121,13.344 8.145,13.312 8.168,13.27 8.199,13.23 8.219,13.188 8.289,13.059 8.324,12.914 8.332,12.77 8.328,12.715 8.324,12.66 8.32,12.602 8.305,12.566 8.312,12.512 8.27,12.492 8.242,12.484 8.215,12.5 8.188,12.512 8.125,12.559 8.066,12.613 8.016,12.676 7.949,12.73 7.902,12.801 7.84,12.859 7.809,12.887 7.785,12.926 7.75,12.949 7.688,13.016 7.613,13.07 7.539,13.121 7.48,13.152 7.414,13.176 7.344,13.172 7.262,13.164 7.188,13.117 7.137,13.051 Z"
       style="fill:#2c2d3d;fill-opacity:1;fill-rule:nonzero;stroke:none"
       transform="scale(1.3333333)" /><path
       id="path15"
       d="M 8.777,11.941 C 8.836,11.945 8.895,11.922 8.949,11.895 9.016,11.859 9.082,11.805 9.113,11.73 9.145,11.676 9.148,11.609 9.125,11.551 9.109,11.504 9.066,11.473 9.031,11.438 8.961,11.395 8.875,11.367 8.793,11.383 8.746,11.379 8.699,11.395 8.656,11.41 8.57,11.445 8.5,11.504 8.453,11.582 8.43,11.633 8.402,11.691 8.426,11.75 c 0.019,0.078 0.086,0.137 0.16,0.168 0.062,0.02 0.125,0.035 0.191,0.023 z"
       transform="scale(1.3333333)"
       style="fill:url(#linearGradient15-3);stroke:none" /><path
       id="path17"
       d="M 9.492,12.848 C 9.371,12.73 9.258,12.594 9.215,12.434 9.195,12.355 9.199,12.273 9.191,12.191 9.172,12.125 9.125,12.062 9.059,12.039 9.012,12.016 8.961,12.012 8.91,12.004 c -0.094,0 -0.195,0.047 -0.242,0.133 -0.02,0.039 -0.027,0.082 -0.031,0.121 0.008,0.113 0.054,0.219 0.113,0.312 0.055,0.082 0.117,0.157 0.195,0.219 0.043,0.043 0.102,0.07 0.157,0.106 0.097,0.054 0.203,0.093 0.316,0.113 0.09,0.015 0.184,0.027 0.277,0.031 C 9.637,12.965 9.551,12.918 9.492,12.848 Z"
       transform="scale(1.3333333)"
       style="fill:url(#linearGradient17-6);stroke:none" /><path
       id="path19"
       d="m 9,10.188 c -1.242,0 -2.25,1.007 -2.25,2.25 0,1.242 1.008,2.246 2.25,2.246 1.242,0 2.25,-1.004 2.25,-2.246 0,-1.243 -1.008,-2.25 -2.25,-2.25 z M 7.211,13.305 C 7.148,13.258 7.105,13.191 7.062,13.129 7.055,13.109 7.043,13.094 7.035,13.074 7,12.961 6.973,12.848 6.953,12.73 c 0.024,0.051 0.051,0.098 0.082,0.141 0.051,0.067 0.125,0.113 0.211,0.121 0.066,0.004 0.133,-0.019 0.192,-0.051 0.078,-0.05 0.148,-0.105 0.21,-0.168 0.036,-0.027 0.059,-0.062 0.094,-0.089 0.059,-0.059 0.106,-0.133 0.172,-0.188 0.055,-0.058 0.109,-0.117 0.176,-0.164 0.023,-0.012 0.051,-0.023 0.078,-0.02 0.043,0.024 0.035,0.075 0.051,0.114 0.008,0.054 0.008,0.109 0.011,0.168 C 8.223,12.738 8.191,12.883 8.121,13.008 8.102,13.051 8.066,13.09 8.043,13.133 8.02,13.168 7.988,13.195 7.961,13.23 7.875,13.312 7.77,13.391 7.648,13.414 7.609,13.434 7.562,13.426 7.52,13.434 7.402,13.43 7.293,13.383 7.211,13.305 Z m 3.656,-0.067 c 0,0.024 -0.008,0.047 -0.012,0.071 -0.484,1.027 -1.714,1.468 -2.742,0.984 -0.226,-0.109 -0.429,-0.254 -0.601,-0.434 0.039,0.012 0.082,0.02 0.125,0.024 L 7.816,13.871 C 7.996,13.84 8.16,13.738 8.285,13.605 8.316,13.582 8.34,13.551 8.359,13.52 8.418,13.461 8.453,13.387 8.496,13.316 8.57,13.16 8.629,12.988 8.625,12.816 8.637,12.773 8.625,12.727 8.617,12.684 8.598,12.543 8.531,12.41 8.434,12.305 8.395,12.262 8.348,12.234 8.301,12.199 8.195,12.141 8.082,12.086 7.961,12.078 7.871,12.062 7.785,12.102 7.715,12.148 7.66,12.18 7.625,12.227 7.578,12.266 7.531,12.32 7.484,12.375 7.422,12.414 7.395,12.422 7.367,12.43 7.34,12.438 7.305,12.43 7.27,12.422 7.242,12.398 7.215,12.379 7.203,12.348 7.188,12.32 7.16,12.277 7.148,12.227 7.133,12.18 7.109,12.113 7.109,12.039 7.094,11.969 c 0,-0.071 -0.016,-0.141 -0.004,-0.207 -0.004,-0.047 0,-0.09 0.008,-0.137 0,-0.004 0,-0.008 0,-0.008 0.316,-0.734 1.043,-1.25 1.894,-1.25 0.57,0 1.117,0.238 1.504,0.656 C 10.441,11 10.387,10.988 10.328,10.984 l -0.18,0.008 c -0.179,0.035 -0.343,0.137 -0.468,0.266 -0.032,0.023 -0.055,0.054 -0.075,0.086 -0.058,0.062 -0.093,0.136 -0.136,0.207 -0.074,0.156 -0.133,0.324 -0.129,0.5 -0.012,0.043 0,0.09 0.008,0.133 0.019,0.14 0.086,0.273 0.183,0.378 0.039,0.043 0.09,0.071 0.133,0.106 0.106,0.059 0.219,0.113 0.34,0.121 0.09,0.016 0.176,-0.027 0.25,-0.074 0.051,-0.031 0.086,-0.078 0.133,-0.113 0.047,-0.055 0.093,-0.11 0.156,-0.149 0.027,-0.012 0.055,-0.019 0.082,-0.027 0.035,0.008 0.07,0.015 0.098,0.043 0.027,0.019 0.039,0.051 0.054,0.074 0.028,0.043 0.039,0.094 0.055,0.145 0.02,0.066 0.023,0.14 0.039,0.207 0,0.07 0.016,0.14 0.004,0.21 0.004,0.043 -0.004,0.09 -0.008,0.133 z m -0.148,-1.367 c -0.067,-0.004 -0.133,0.024 -0.192,0.055 -0.078,0.047 -0.148,0.101 -0.211,0.168 -0.035,0.027 -0.058,0.062 -0.093,0.09 -0.059,0.058 -0.106,0.128 -0.172,0.183 C 10,12.43 9.941,12.488 9.875,12.531 9.852,12.547 9.824,12.559 9.797,12.551 9.754,12.531 9.762,12.48 9.746,12.441 9.738,12.387 9.738,12.328 9.734,12.273 c 0.008,-0.144 0.039,-0.289 0.11,-0.414 0.019,-0.047 0.054,-0.082 0.078,-0.125 0.023,-0.035 0.055,-0.062 0.082,-0.097 0.086,-0.086 0.191,-0.16 0.312,-0.188 0.043,-0.015 0.086,-0.008 0.129,-0.015 0.117,0 0.227,0.046 0.309,0.128 0.062,0.047 0.105,0.114 0.148,0.176 0.028,0.043 0.039,0.098 0.075,0.141 0.031,0.109 0.05,0.219 0.066,0.332 -0.027,-0.078 -0.066,-0.152 -0.113,-0.215 -0.051,-0.07 -0.125,-0.113 -0.211,-0.125 z"
       transform="scale(1.3333333)"
       style="fill:url(#linearGradient19);stroke:none" /></g></svg>
