<?xml version="1.0" encoding="UTF-8" standalone="no"?>
<svg
   id="Layer_1"
   data-name="Layer 1"
   viewBox="0 0 23.999999 24"
   version="1.1"
   sodipodi:docname="icon-big-hd-install.svg"
   width="24"
   height="24"
   inkscape:version="1.3 (0e150ed6c4, 2023-07-21)"
   xml:space="preserve"
   inkscape:export-filename="icon-big-hd-install.png"
   inkscape:export-xdpi="800"
   inkscape:export-ydpi="800"
   xmlns:inkscape="http://www.inkscape.org/namespaces/inkscape"
   xmlns:sodipodi="http://sodipodi.sourceforge.net/DTD/sodipodi-0.dtd"
   xmlns:xlink="http://www.w3.org/1999/xlink"
   xmlns="http://www.w3.org/2000/svg"
   xmlns:svg="http://www.w3.org/2000/svg"><sodipodi:namedview
     id="namedview2"
     pagecolor="#ffffff"
     bordercolor="#000000"
     borderopacity="0.25"
     inkscape:showpageshadow="2"
     inkscape:pageopacity="0.0"
     inkscape:pagecheckerboard="0"
     inkscape:deskcolor="#d1d1d1"
     inkscape:zoom="16"
     inkscape:cx="11.15625"
     inkscape:cy="6.28125"
     inkscape:window-width="1920"
     inkscape:window-height="1216"
     inkscape:window-x="6000"
     inkscape:window-y="588"
     inkscape:window-maximized="0"
     inkscape:current-layer="Layer_1" /><defs
     id="defs1"><linearGradient
       id="linearGradient47"
       inkscape:collect="always"><stop
         style="stop-color:#ededed;stop-opacity:1;"
         offset="0"
         id="stop46" /><stop
         style="stop-color:#ebebeb;stop-opacity:1;"
         offset="1"
         id="stop47" /></linearGradient><style
       id="style1">.cls-1{fill:#2b91c9;}.cls-2{fill:#02679a;}.cls-3{fill:#7ac143;}.cls-4{fill:#52b848;}.cls-5{fill:#002b44;}</style><radialGradient
       fx="0"
       fy="0"
       cx="0"
       cy="0"
       r="1"
       gradientUnits="userSpaceOnUse"
       gradientTransform="matrix(0,16.5,-16.5,0,8.999991,0.750011)"
       spreadMethod="pad"
       id="radialGradient7410-3"><stop
         style="stop-opacity:1;stop-color:#8fc8ff"
         offset="0"
         id="stop7406-6" /><stop
         style="stop-opacity:1;stop-color:#0056a8"
         offset="1"
         id="stop7408-7" /></radialGradient><radialGradient
       fx="0"
       fy="0"
       cx="0"
       cy="0"
       r="1"
       gradientUnits="userSpaceOnUse"
       gradientTransform="matrix(0,16.5,-16.5,0,8.999991,0.750011)"
       spreadMethod="pad"
       id="radialGradient7410-3-5"><stop
         style="stop-color:#d9d9d9;stop-opacity:1;"
         offset="0"
         id="stop7406-6-6" /><stop
         style="stop-color:#fafafa;stop-opacity:1;"
         offset="1"
         id="stop7408-7-2" /></radialGradient><linearGradient
       inkscape:collect="always"
       xlink:href="#linearGradient47"
       id="linearGradient46"
       gradientUnits="userSpaceOnUse"
       gradientTransform="matrix(1.5402879,0,0,1.5402879,-6.4834547,-6.483455)"
       x1="11.962032"
       y1="3.9620316"
       x2="11.962032"
       y2="19.973257" /><linearGradient
       id="linearGradient7395"
       x1="70.739998"
       y1="207.69"
       x2="304.39001"
       y2="456.44"
       gradientTransform="matrix(1,0,0,-1,16.81,529.63)"
       gradientUnits="userSpaceOnUse"><stop
         offset="0"
         stop-color="#2d85c6"
         id="stop7391"
         style="stop-color:#175577;stop-opacity:1;" /><stop
         offset="1"
         stop-color="#04bacc"
         id="stop7393"
         style="stop-color:#088294;stop-opacity:1;" /></linearGradient><style
       id="style326">.cls-1{fill:url(#linear-gradient);}.cls-2{fill:url(#linear-gradient-2);}.cls-3{fill:url(#linear-gradient-3);}</style><linearGradient
       id="linear-gradient"
       x1="91.919998"
       y1="320.23999"
       x2="319.51999"
       y2="77.93"
       gradientUnits="userSpaceOnUse"><stop
         offset="0"
         stop-color="#2d85c6"
         id="stop328" /><stop
         offset="1"
         stop-color="#04bacc"
         id="stop330" /></linearGradient><linearGradient
       id="linear-gradient-2"
       x1="165.60001"
       y1="389.44"
       x2="393.20001"
       y2="147.14"
       xlink:href="#linear-gradient" /><linearGradient
       id="linear-gradient-3"
       x1="147.03999"
       y1="372.01001"
       x2="374.63"
       y2="129.7"
       xlink:href="#linear-gradient" /><style
       id="style367">.cls-1{fill:#16171c;stroke:#000;stroke-miterlimit:10;}.cls-2{fill:#2c2d3d;}.cls-3{fill:url(#linear-gradient);}.cls-4{fill:url(#linear-gradient-2);}.cls-5{fill:url(#linear-gradient-3);}</style><linearGradient
       id="linear-gradient-35"
       x1="70.739998"
       y1="207.69"
       x2="304.39001"
       y2="456.44"
       gradientTransform="matrix(1,0,0,-1,16.81,529.63)"
       gradientUnits="userSpaceOnUse"><stop
         offset="0"
         stop-color="#2d85c6"
         id="stop369" /><stop
         offset="1"
         stop-color="#04bacc"
         id="stop371" /></linearGradient><linearGradient
       id="linear-gradient-2-6"
       x1="146.39"
       y1="136.63"
       x2="380.04001"
       y2="385.38"
       xlink:href="#linear-gradient-35"
       gradientTransform="matrix(0.34840416,0,0,0.34840416,-1.6409995,-30.677203)" /><linearGradient
       id="linear-gradient-3-2"
       x1="111.69788"
       y1="292.29407"
       x2="466.25455"
       y2="253.84193"
       xlink:href="#linearGradient7395"
       gradientTransform="matrix(0.34659038,0,0,0.34659038,-345.43135,80.852366)" /><style
       id="style411">.cls-1{fill:url(#linear-gradient);}.cls-2{fill:url(#linear-gradient-2);}.cls-3{fill:url(#linear-gradient-3);}</style><style
       id="style447">.cls-1{fill:#16171c;stroke:#000;stroke-miterlimit:10;}.cls-2{fill:#2c2d3d;}.cls-3{fill:url(#linear-gradient);}.cls-4{fill:url(#linear-gradient-2);}.cls-5{fill:url(#linear-gradient-3);}</style><linearGradient
       inkscape:collect="always"
       xlink:href="#linear-gradient-35"
       id="linearGradient247"
       gradientUnits="userSpaceOnUse"
       gradientTransform="matrix(1.3802025,0,0,-1.3802025,-175.83571,385.74273)"
       x1="70.739998"
       y1="207.69"
       x2="304.39001"
       y2="456.44" /><linearGradient
       inkscape:collect="always"
       xlink:href="#linear-gradient-35"
       id="linearGradient248"
       gradientTransform="matrix(1.3802025,0,0,1.3802025,-199.0369,-345.2539)"
       x1="146.39"
       y1="136.63"
       x2="380.04001"
       y2="385.38" /><linearGradient
       inkscape:collect="always"
       xlink:href="#linearGradient14872"
       id="linearGradient249"
       gradientUnits="userSpaceOnUse"
       gradientTransform="matrix(3.3260203,0,0,3.3260203,-469.88718,-412.5311)"
       x1="328.03387"
       y1="201.04596"
       x2="284.53772"
       y2="38.716057" /><linearGradient
       inkscape:collect="always"
       id="linearGradient14872"><stop
         style="stop-color:#283efd;stop-opacity:1;"
         offset="0"
         id="stop14868" /><stop
         style="stop-color:#10f3ff;stop-opacity:1;"
         offset="1"
         id="stop14870" /></linearGradient><linearGradient
       inkscape:collect="always"
       xlink:href="#linearGradient3753"
       id="linearGradient250"
       gradientUnits="userSpaceOnUse"
       gradientTransform="matrix(3.3260203,0,0,3.3260203,-470.17364,-411.4736)"
       x1="102.5537"
       y1="201.07986"
       x2="161.90266"
       y2="130.75484" /><linearGradient
       inkscape:collect="always"
       id="linearGradient3753"><stop
         style="stop-color:#000000;stop-opacity:1;"
         offset="0"
         id="stop3749" /><stop
         style="stop-color:#000000;stop-opacity:0;"
         offset="1"
         id="stop3751" /></linearGradient><linearGradient
       inkscape:collect="always"
       xlink:href="#linearGradient3753"
       id="linearGradient251"
       gradientUnits="userSpaceOnUse"
       gradientTransform="matrix(3.3260203,0,0,3.3260203,-470.17364,-411.4736)"
       x1="136.71155"
       y1="112.77216"
       x2="127.96666"
       y2="124.48015" /><linearGradient
       inkscape:collect="always"
       xlink:href="#linearGradient3753"
       id="linearGradient252"
       gradientUnits="userSpaceOnUse"
       gradientTransform="matrix(3.3260203,0,0,3.3260203,-470.17364,-411.4736)"
       x1="108.50922"
       y1="138.97209"
       x2="115.03763"
       y2="130.46425" /><linearGradient
       inkscape:collect="always"
       xlink:href="#linearGradient4025"
       id="linearGradient253"
       gradientUnits="userSpaceOnUse"
       gradientTransform="matrix(3.9822295,0,0,3.9822295,-265.3462,-606.6439)"
       x1="89.06459"
       y1="139.31154"
       x2="105.55106"
       y2="114.01978" /><linearGradient
       inkscape:collect="always"
       id="linearGradient4025"><stop
         style="stop-color:#091f2d;stop-opacity:1;"
         offset="0"
         id="stop4021" /><stop
         style="stop-color:#091f2d;stop-opacity:0;"
         offset="1"
         id="stop4023" /></linearGradient><linearGradient
       inkscape:collect="always"
       xlink:href="#linearGradient3753"
       id="linearGradient254"
       gradientUnits="userSpaceOnUse"
       gradientTransform="matrix(-3.3260203,0,0,-3.3260203,769.75468,433.60678)"
       x1="180.99303"
       y1="52.836334"
       x2="107.37358"
       y2="184.64915" /><linearGradient
       inkscape:collect="always"
       xlink:href="#linearGradient3753"
       id="linearGradient255"
       gradientUnits="userSpaceOnUse"
       gradientTransform="matrix(-3.3260203,0,0,-3.3260203,769.75468,433.60678)"
       x1="136.71155"
       y1="112.77216"
       x2="127.96666"
       y2="124.48015" /><linearGradient
       inkscape:collect="always"
       xlink:href="#linearGradient3753"
       id="linearGradient256"
       gradientUnits="userSpaceOnUse"
       gradientTransform="matrix(-3.3260203,0,0,-3.3260203,769.75468,433.60678)"
       x1="108.50922"
       y1="138.97209"
       x2="115.03763"
       y2="130.46425" /><linearGradient
       inkscape:collect="always"
       xlink:href="#linearGradient4754"
       id="linearGradient257"
       gradientUnits="userSpaceOnUse"
       gradientTransform="matrix(3.9822295,0,0,3.9822295,-231.26083,-199.359)"
       x1="93.887825"
       y1="67.032059"
       x2="105.47661"
       y2="46.598228" /><linearGradient
       inkscape:collect="always"
       id="linearGradient4754"><stop
         style="stop-color:#134865;stop-opacity:1;"
         offset="0"
         id="stop4750" /><stop
         style="stop-color:#134865;stop-opacity:0;"
         offset="1"
         id="stop4752" /></linearGradient><linearGradient
       inkscape:collect="always"
       xlink:href="#linear-gradient-35"
       id="linearGradient258"
       gradientUnits="userSpaceOnUse"
       gradientTransform="matrix(1.3802025,0,0,-1.3802025,-175.83571,385.74273)"
       x1="70.739998"
       y1="207.69"
       x2="304.39001"
       y2="456.44" /><linearGradient
       inkscape:collect="always"
       xlink:href="#linear-gradient-35"
       id="linearGradient259"
       gradientTransform="matrix(1.3802025,0,0,1.3802025,-199.0369,-345.2539)"
       x1="146.39"
       y1="136.63"
       x2="380.04001"
       y2="385.38" /><linearGradient
       inkscape:collect="always"
       xlink:href="#linearGradient14872"
       id="linearGradient260"
       gradientUnits="userSpaceOnUse"
       gradientTransform="matrix(3.3260203,0,0,3.3260203,-469.88718,-412.5311)"
       x1="328.03387"
       y1="201.04596"
       x2="284.53772"
       y2="38.716057" /><linearGradient
       inkscape:collect="always"
       xlink:href="#linearGradient3753"
       id="linearGradient261"
       gradientUnits="userSpaceOnUse"
       gradientTransform="matrix(3.3260203,0,0,3.3260203,-470.17364,-411.4736)"
       x1="102.5537"
       y1="201.07986"
       x2="161.90266"
       y2="130.75484" /><linearGradient
       inkscape:collect="always"
       xlink:href="#linearGradient3753"
       id="linearGradient262"
       gradientUnits="userSpaceOnUse"
       gradientTransform="matrix(3.3260203,0,0,3.3260203,-470.17364,-411.4736)"
       x1="136.71155"
       y1="112.77216"
       x2="127.96666"
       y2="124.48015" /><linearGradient
       inkscape:collect="always"
       xlink:href="#linearGradient3753"
       id="linearGradient263"
       gradientUnits="userSpaceOnUse"
       gradientTransform="matrix(3.3260203,0,0,3.3260203,-470.17364,-411.4736)"
       x1="108.50922"
       y1="138.97209"
       x2="115.03763"
       y2="130.46425" /><linearGradient
       inkscape:collect="always"
       xlink:href="#linearGradient4025"
       id="linearGradient264"
       gradientUnits="userSpaceOnUse"
       gradientTransform="matrix(3.9822295,0,0,3.9822295,-265.3462,-606.6439)"
       x1="89.06459"
       y1="139.31154"
       x2="105.55106"
       y2="114.01978" /><linearGradient
       inkscape:collect="always"
       xlink:href="#linearGradient3753"
       id="linearGradient265"
       gradientUnits="userSpaceOnUse"
       gradientTransform="matrix(-3.3260203,0,0,-3.3260203,769.75468,433.60678)"
       x1="180.99303"
       y1="52.836334"
       x2="107.37358"
       y2="184.64915" /><linearGradient
       inkscape:collect="always"
       xlink:href="#linearGradient3753"
       id="linearGradient266"
       gradientUnits="userSpaceOnUse"
       gradientTransform="matrix(-3.3260203,0,0,-3.3260203,769.75468,433.60678)"
       x1="136.71155"
       y1="112.77216"
       x2="127.96666"
       y2="124.48015" /><linearGradient
       inkscape:collect="always"
       xlink:href="#linearGradient3753"
       id="linearGradient267"
       gradientUnits="userSpaceOnUse"
       gradientTransform="matrix(-3.3260203,0,0,-3.3260203,769.75468,433.60678)"
       x1="108.50922"
       y1="138.97209"
       x2="115.03763"
       y2="130.46425" /><linearGradient
       inkscape:collect="always"
       xlink:href="#linearGradient4754"
       id="linearGradient268"
       gradientUnits="userSpaceOnUse"
       gradientTransform="matrix(3.9822295,0,0,3.9822295,-231.26083,-199.359)"
       x1="93.887825"
       y1="67.032059"
       x2="105.47661"
       y2="46.598228" /><linearGradient
       inkscape:collect="always"
       xlink:href="#linear-gradient-35"
       id="linearGradient269"
       gradientUnits="userSpaceOnUse"
       gradientTransform="matrix(1.3802025,0,0,-1.3802025,-175.83571,385.74273)"
       x1="70.739998"
       y1="207.69"
       x2="304.39001"
       y2="456.44" /><linearGradient
       inkscape:collect="always"
       xlink:href="#linear-gradient-35"
       id="linearGradient270"
       gradientTransform="matrix(1.3802025,0,0,1.3802025,-199.0369,-345.2539)"
       x1="146.39"
       y1="136.63"
       x2="380.04001"
       y2="385.38" /><linearGradient
       inkscape:collect="always"
       xlink:href="#linearGradient14872"
       id="linearGradient271"
       gradientUnits="userSpaceOnUse"
       gradientTransform="matrix(3.3260203,0,0,3.3260203,-469.88718,-412.5311)"
       x1="328.03387"
       y1="201.04596"
       x2="284.53772"
       y2="38.716057" /><linearGradient
       inkscape:collect="always"
       xlink:href="#linearGradient3753"
       id="linearGradient272"
       gradientUnits="userSpaceOnUse"
       gradientTransform="matrix(3.3260203,0,0,3.3260203,-470.17364,-411.4736)"
       x1="102.5537"
       y1="201.07986"
       x2="161.90266"
       y2="130.75484" /><linearGradient
       inkscape:collect="always"
       xlink:href="#linearGradient3753"
       id="linearGradient273"
       gradientUnits="userSpaceOnUse"
       gradientTransform="matrix(3.3260203,0,0,3.3260203,-470.17364,-411.4736)"
       x1="136.71155"
       y1="112.77216"
       x2="127.96666"
       y2="124.48015" /><linearGradient
       inkscape:collect="always"
       xlink:href="#linearGradient3753"
       id="linearGradient274"
       gradientUnits="userSpaceOnUse"
       gradientTransform="matrix(3.3260203,0,0,3.3260203,-470.17364,-411.4736)"
       x1="108.50922"
       y1="138.97209"
       x2="115.03763"
       y2="130.46425" /><linearGradient
       inkscape:collect="always"
       xlink:href="#linearGradient4025"
       id="linearGradient275"
       gradientUnits="userSpaceOnUse"
       gradientTransform="matrix(3.9822295,0,0,3.9822295,-265.3462,-606.6439)"
       x1="89.06459"
       y1="139.31154"
       x2="105.55106"
       y2="114.01978" /><linearGradient
       inkscape:collect="always"
       xlink:href="#linearGradient3753"
       id="linearGradient276"
       gradientUnits="userSpaceOnUse"
       gradientTransform="matrix(-3.3260203,0,0,-3.3260203,769.75468,433.60678)"
       x1="180.99303"
       y1="52.836334"
       x2="107.37358"
       y2="184.64915" /><linearGradient
       inkscape:collect="always"
       xlink:href="#linearGradient3753"
       id="linearGradient277"
       gradientUnits="userSpaceOnUse"
       gradientTransform="matrix(-3.3260203,0,0,-3.3260203,769.75468,433.60678)"
       x1="136.71155"
       y1="112.77216"
       x2="127.96666"
       y2="124.48015" /><linearGradient
       inkscape:collect="always"
       xlink:href="#linearGradient3753"
       id="linearGradient278"
       gradientUnits="userSpaceOnUse"
       gradientTransform="matrix(-3.3260203,0,0,-3.3260203,769.75468,433.60678)"
       x1="108.50922"
       y1="138.97209"
       x2="115.03763"
       y2="130.46425" /><linearGradient
       inkscape:collect="always"
       xlink:href="#linearGradient4754"
       id="linearGradient279"
       gradientUnits="userSpaceOnUse"
       gradientTransform="matrix(3.9822295,0,0,3.9822295,-231.26083,-199.359)"
       x1="93.887825"
       y1="67.032059"
       x2="105.47661"
       y2="46.598228" /></defs><path
     id="circle46"
     style="fill:url(#linearGradient46);fill-opacity:1;stroke:none;stroke-width:1.333;stroke-linecap:round;stroke-linejoin:round;stroke-dasharray:none;stroke-dashoffset:0.943094;stroke-opacity:0.15;paint-order:stroke markers fill"
     d="M 12.09375,1 C 11.375925,0.9981 10.657357,1.02133 9.9394531,1.06836 9.8301932,1.10017 9.715543,1.11455 9.5957031,1.11328 8.8532649,1.17295 8.1202737,1.291799 7.3964844,1.468749 4.2903005,2.207237 2.3309294,4.119453 1.5195312,7.205077 c -0.3803086,1.572377 -0.55227494,3.16696 -0.515625,4.785156 -0.0306299,1.521798 0.118796,3.026123 0.4472657,4.511719 0.7740082,3.300094 2.8173325,5.318941 6.1289062,6.056641 1.7991562,0.370198 3.6172289,0.507609 5.4531249,0.412109 1.632196,-0.0276 3.218976,-0.302319 4.763672,-0.824219 1.906196,-0.699298 3.286121,-1.970002 4.136719,-3.8125 0.458598,-1.062598 0.755578,-2.169414 0.892578,-3.320312 0.1831,-1.637496 0.221934,-3.279132 0.115234,-4.923828 C 22.864206,8.780055 22.612445,7.505252 22.185547,6.265624 21.439149,4.206668 20.05294,2.759719 18.027344,1.92578 16.808946,1.462362 15.54779,1.181497 14.246094,1.080077 13.528294,1.029237 12.811575,1.001907 12.09375,0.999997 Z"
     sodipodi:nodetypes="cccccccccccccccccc" /><g
     id="g279"
     transform="matrix(0.02449307,0,0,0.02449307,8.3246745,11.741517)"
     style="stroke-width:40.8279"><path
       class="cls-3"
       d="m 119.51388,-68.9235 c 9.39917,0.5382 18.21864,-3.1883 26.58267,-7.1357 10.87597,-5.7692 21.13091,-14.3955 26.11344,-25.934 a 32.296738,32.296738 0 0 0 1.79424,-27.5213 c -2.55334,-7.6048 -9.30254,-12.546 -14.97517,-17.7908 -10.84841,-6.6387 -24.05694,-10.6413 -36.80999,-8.502 -7.54971,-0.4279 -14.64397,1.7529 -21.39313,4.4304 a 64.193218,64.193218 0 0 0 -31.74468,26.3343 c -3.72658,8.088 -7.78434,17.5148 -4.04397,26.3343 3.17446,12.2976 13.45693,21.4345 24.95403,26.1272 9.31637,3.3677 19.54365,5.4656 29.52256,3.6576 z"
       id="path74"
       style="fill:url(#linearGradient258);stroke-width:56.3507" /><path
       class="cls-4"
       d="M 230.93758,71.8571 C 212.26343,53.8316 194.6659,32.9216 187.99949,7.4292 c -3.16068,-12.1596 -2.76041,-24.9126 -3.74036,-37.4448 -3.38146,-10.1445 -10.2549,-19.9992 -20.99289,-23.5463 -6.90101,-3.9336 -15.00275,-4.5408 -22.69051,-5.7968 -15.01657,0.4002 -30.62666,7.3978 -38.06596,21.048 -2.98126,5.7141 -3.85077,12.339 -4.6237,18.6742 0.95238,17.4595 8.51587,33.9668 17.48721,48.8315 8.2812,12.5599 18.16343,24.3054 30.2816,33.5527 6.90101,7.1633 16.02418,11.4005 24.36056,16.6315 a 143.54106,143.54106 0 0 0 49.32846,17.5424 282.66546,282.66546 0 0 0 42.99331,4.7893 C 253.07605,90.3794 240.25399,82.8573 230.93758,71.8571 Z"
       id="path75"
       style="fill:url(#linearGradient259);stroke-width:56.3507" /><path
       id="path76"
       style="fill:url(#linearGradient260);fill-opacity:1;stroke-width:50.5728"
       class="cls-2"
       d="m 349.96796,-213.9998 c -6.98701,-0.012 -14.37204,0.5732 -22.23739,1.9109 -125.84999,20.9953 -120.41342,167.3386 -120.41342,167.3386 0,0 -0.12756,64.7999 60.44117,97.5626 50.33994,28.9855 79.27318,-2.3759 84.22818,-7.3162 4.95564,-4.943 107.23701,-132.9905 90.7872,110.2498 0,0 36.02084,-39.1885 38.27572,-132.5229 2.25489,-93.3351 -57.70211,-99.0048 -57.70211,-99.0048 0,0 -26.52548,-6.6518 -79.18219,50.2413 -52.656,56.8926 -56.33199,54.3498 -56.33199,54.3498 0,0 -14.86822,10.4775 -16.6148,-15.8945 -1.74532,-26.3713 -7.45578,-106.3025 72.94679,-149.5701 80.40324,-43.2671 119.44012,62.7112 119.44012,62.7112 0,0 -8.83608,-139.871 -113.63728,-140.0551 z m -225.50879,60.4768 a 42.734594,56.991844 77.92 0 0 -16.03831,1.6561 42.734594,56.991844 77.92 0 0 -46.78127,53.7369 42.734594,56.991844 77.92 0 0 64.65788,29.8422 42.734594,56.991844 77.92 0 0 46.78112,-53.7012 42.734594,56.991844 77.92 0 0 -48.61942,-31.5359 z m -266.37958,17.876 c 0,0 -35.9852,39.2369 -38.23949,132.5592 -2.25485,93.3223 57.70216,99.0767 57.70216,99.0767 0,0 26.48918,6.6519 79.14581,-50.2412 52.65665,-56.8926 56.3683,-54.3498 56.3683,-54.3498 0,0 14.86826,-10.4776 16.6148,15.8944 1.74533,26.3714 7.43225,106.3032 -72.9831,149.5702 -80.41531,43.267 -119.44005,-62.7112 -119.44005,-62.7112 0,0 10.02337,159.1285 135.91092,138.1447 C 99.04649,211.3129 93.53606,64.9575 93.53606,64.9575 c 0,0 0.12756,-64.7375 -60.47681,-97.5627 -50.34062,-28.9854 -79.27321,2.3377 -84.22824,7.28 -4.95568,4.943 -107.18854,132.993 -90.75142,-110.3218 z m 281.48084,78.0292 A 43.589288,43.589288 0 0 0 97.3566,-0.6731 c 0,0 25.4923,100.9259 161.89618,104.1585 0,0 -78.79356,-56.4217 -76.94766,-120.8452 a 43.589288,43.589288 0 0 0 -42.74469,-40.258 z" /><path
       id="path77"
       style="fill:url(#linearGradient261);fill-opacity:1;stroke-width:50.5728"
       class="cls-2"
       d="m -142.69857,-134.7433 c 0,0 -35.98514,39.2369 -38.23939,132.5592 -2.25489,93.3223 57.70211,99.0767 57.70211,99.0767 0,0 26.4892,6.6519 79.14587,-50.2413 52.65667,-56.8925 56.36827,-54.3497 56.36827,-54.3497 0,0 14.86826,-10.4776 16.61484,15.8943 1.74532,26.3714 7.43221,106.3033 -72.98311,149.5703 -80.41533,43.2671 -119.44013,-62.7113 -119.44013,-62.7113 0,0 10.02342,159.1287 135.91097,138.1449 C 98.26843,212.2166 92.75799,65.8612 92.75799,65.8612 c 0,0 0.12756,-64.7376 -60.47679,-97.5627 -50.34066,-28.9855 -79.27326,2.3377 -84.22826,7.28 -4.95564,4.9429 -107.1886,132.993 -90.75151,-110.3218 z"
       sodipodi:nodetypes="ccccccsccccsc" /><path
       style="fill:url(#linearGradient262);fill-opacity:1;stroke-width:107.787;stroke-linecap:round;stroke-linejoin:round"
       d="M -49.69673,-26.2612 C -31.1938,-42.3106 12.68308,-36.4385 27.36665,-2.5365 20.90422,-19.0703 4.74067,-3.7505 -13.44681,14.8887 L -29.50668,31.5932 -79.6783,2.6493 c 5.91436,-4.215 12.16259,-9.5785 18.83649,-16.406 z"
       id="path78"
       sodipodi:nodetypes="ccccccc" /><path
       style="fill:url(#linearGradient263);fill-opacity:1;stroke-width:107.787;stroke-linecap:round;stroke-linejoin:round"
       d="m -138.97531,-23.5046 c 14.64728,63.7478 60.89833,108.0193 101.50887,63.3112 L -77.39283,0.9763 c -42.98032,27.9235 -52.55482,2.1607 -61.58248,-24.4809 z"
       id="path79"
       sodipodi:nodetypes="cccc" /><path
       id="path80"
       style="fill:url(#linearGradient264);fill-opacity:1;stroke-width:50.5728"
       class="cls-2"
       d="m 124.76999,-153.5069 c -5.33075,-0.032 -10.73135,0.5243 -16.03829,1.6561 -30.78979,6.5898 -51.73835,30.6531 -46.78129,53.737 4.95251,23.0642 33.89351,36.4216 64.65792,29.8422 30.76847,-6.5884 51.70982,-30.6274 46.7812,-53.7013 -3.96566,-18.5504 -23.76467,-31.3925 -48.61954,-31.5359 z"
       sodipodi:nodetypes="ccccccc" /><path
       id="path81"
       style="fill:url(#linearGradient265);fill-opacity:1;stroke-width:50.5728"
       class="cls-2"
       d="m 442.27963,156.8765 c 0,0 35.98514,-39.237 38.23939,-132.5592 2.25488,-93.3223 -57.70216,-99.0768 -57.70216,-99.0768 0,0 -26.48915,-6.6519 -79.14582,50.2413 -52.65667,56.8925 -56.36831,54.3497 -56.36831,54.3497 0,0 -14.86822,10.4776 -16.6148,-15.8943 -1.74532,-26.3714 -7.43225,-106.3033 72.98311,-149.5703 80.41533,-43.267 119.44012,62.7113 119.44012,62.7113 0,0 -10.02342,-159.1286 -135.91096,-138.1449 -125.88758,20.9832 -120.37713,167.3386 -120.37713,167.3386 0,0 -0.12756,64.7376 60.47678,97.5627 50.34062,28.9855 79.27323,-2.3377 84.22827,-7.28 4.95564,-4.9429 107.18859,-132.993 90.75151,110.3219 z"
       sodipodi:nodetypes="ccccccsccccsc" /><path
       style="fill:url(#linearGradient266);fill-opacity:1;stroke-width:107.787;stroke-linecap:round;stroke-linejoin:round"
       d="m 349.27779,48.3943 c -18.50293,16.0494 -62.37981,10.1774 -77.06338,-23.7247 6.46243,16.5339 22.62594,1.214 40.81345,-17.4251 l 16.05988,-16.7046 50.17162,28.9439 c -5.91436,4.215 -12.16263,9.5785 -18.83653,16.406 z"
       id="path82"
       sodipodi:nodetypes="ccccccc" /><path
       style="fill:url(#linearGradient267);fill-opacity:1;stroke-width:107.787;stroke-linecap:round;stroke-linejoin:round"
       d="M 438.55633,45.6377 C 423.90905,-18.1101 377.658,-62.3816 337.0475,-17.6735 l 39.92639,38.8303 c 42.98028,-27.9234 52.55478,-2.1607 61.58244,24.4809 z"
       id="path83"
       sodipodi:nodetypes="cccc" /><path
       id="path84"
       style="fill:url(#linearGradient268);fill-opacity:1;stroke-width:50.5728"
       class="cls-2"
       d="m 139.56047,-57.6178 c -29.86101,-0.4885 -51.35836,28.5173 -42.20393,56.9447 0,0 25.49232,100.9259 161.89624,104.1585 0,0 -78.79352,-56.4217 -76.94762,-120.8452 -1.71715,-22.4428 -20.23942,-39.8875 -42.74469,-40.258 z"
       sodipodi:nodetypes="ccccc" /><path
       class="cls-3"
       d="m 119.51388,-68.9235 c 9.39917,0.5382 18.21864,-3.1883 26.58267,-7.1357 10.87597,-5.7692 21.13091,-14.3955 26.11344,-25.934 a 32.296738,32.296738 0 0 0 1.79424,-27.5213 c -2.55334,-7.6048 -9.30254,-12.546 -14.97517,-17.7908 -10.84841,-6.6387 -24.05694,-10.6413 -36.80999,-8.502 -7.54971,-0.4279 -14.64397,1.7529 -21.39313,4.4304 a 64.193218,64.193218 0 0 0 -31.74468,26.3343 c -3.72658,8.088 -7.78434,17.5148 -4.04397,26.3343 3.17446,12.2976 13.45693,21.4345 24.95403,26.1272 9.31637,3.3677 19.54365,5.4656 29.52256,3.6576 z"
       id="path110"
       style="fill:url(#linearGradient269);stroke-width:56.3507" /><path
       class="cls-4"
       d="M 230.93758,71.8571 C 212.26343,53.8316 194.6659,32.9216 187.99949,7.4292 c -3.16068,-12.1596 -2.76041,-24.9126 -3.74036,-37.4448 -3.38146,-10.1445 -10.2549,-19.9992 -20.99289,-23.5463 -6.90101,-3.9336 -15.00275,-4.5408 -22.69051,-5.7968 -15.01657,0.4002 -30.62666,7.3978 -38.06596,21.048 -2.98126,5.7141 -3.85077,12.339 -4.6237,18.6742 0.95238,17.4595 8.51587,33.9668 17.48721,48.8315 8.2812,12.5599 18.16343,24.3054 30.2816,33.5527 6.90101,7.1633 16.02418,11.4005 24.36056,16.6315 a 143.54106,143.54106 0 0 0 49.32846,17.5424 282.66546,282.66546 0 0 0 42.99331,4.7893 C 253.07605,90.3794 240.25399,82.8573 230.93758,71.8571 Z"
       id="path111"
       style="fill:url(#linearGradient270);stroke-width:56.3507" /><path
       id="path112"
       style="fill:url(#linearGradient271);fill-opacity:1;stroke-width:50.5728"
       class="cls-2"
       d="m 349.96796,-213.9998 c -6.98701,-0.012 -14.37204,0.5732 -22.23739,1.9109 -125.84999,20.9953 -120.41342,167.3386 -120.41342,167.3386 0,0 -0.12756,64.7999 60.44117,97.5626 50.33994,28.9855 79.27318,-2.3759 84.22818,-7.3162 4.95564,-4.943 107.23701,-132.9905 90.7872,110.2498 0,0 36.02084,-39.1885 38.27572,-132.5229 2.25489,-93.3351 -57.70211,-99.0048 -57.70211,-99.0048 0,0 -26.52548,-6.6518 -79.18219,50.2413 -52.656,56.8926 -56.33199,54.3498 -56.33199,54.3498 0,0 -14.86822,10.4775 -16.6148,-15.8945 -1.74532,-26.3713 -7.45578,-106.3025 72.94679,-149.5701 80.40324,-43.2671 119.44012,62.7112 119.44012,62.7112 0,0 -8.83608,-139.871 -113.63728,-140.0551 z m -225.50879,60.4768 a 42.734594,56.991844 77.92 0 0 -16.03831,1.6561 42.734594,56.991844 77.92 0 0 -46.78127,53.7369 42.734594,56.991844 77.92 0 0 64.65788,29.8422 42.734594,56.991844 77.92 0 0 46.78112,-53.7012 42.734594,56.991844 77.92 0 0 -48.61942,-31.5359 z m -266.37958,17.876 c 0,0 -35.9852,39.2369 -38.23949,132.5592 -2.25485,93.3223 57.70216,99.0767 57.70216,99.0767 0,0 26.48918,6.6519 79.14581,-50.2412 52.65665,-56.8926 56.3683,-54.3498 56.3683,-54.3498 0,0 14.86826,-10.4776 16.6148,15.8944 1.74533,26.3714 7.43225,106.3032 -72.9831,149.5702 -80.41531,43.267 -119.44005,-62.7112 -119.44005,-62.7112 0,0 10.02337,159.1285 135.91092,138.1447 C 99.04649,211.3129 93.53606,64.9575 93.53606,64.9575 c 0,0 0.12756,-64.7375 -60.47681,-97.5627 -50.34062,-28.9854 -79.27321,2.3377 -84.22824,7.28 -4.95568,4.943 -107.18854,132.993 -90.75142,-110.3218 z m 281.48084,78.0292 A 43.589288,43.589288 0 0 0 97.3566,-0.6731 c 0,0 25.4923,100.9259 161.89618,104.1585 0,0 -78.79356,-56.4217 -76.94766,-120.8452 a 43.589288,43.589288 0 0 0 -42.74469,-40.258 z" /><path
       id="path113"
       style="fill:url(#linearGradient272);fill-opacity:1;stroke-width:50.5728"
       class="cls-2"
       d="m -142.69857,-134.7433 c 0,0 -35.98514,39.2369 -38.23939,132.5592 -2.25489,93.3223 57.70211,99.0767 57.70211,99.0767 0,0 26.4892,6.6519 79.14587,-50.2413 52.65667,-56.8925 56.36827,-54.3497 56.36827,-54.3497 0,0 14.86826,-10.4776 16.61484,15.8943 1.74532,26.3714 7.43221,106.3033 -72.98311,149.5703 -80.41533,43.2671 -119.44013,-62.7113 -119.44013,-62.7113 0,0 10.02342,159.1287 135.91097,138.1449 C 98.26843,212.2166 92.75799,65.8612 92.75799,65.8612 c 0,0 0.12756,-64.7376 -60.47679,-97.5627 -50.34066,-28.9855 -79.27326,2.3377 -84.22826,7.28 -4.95564,4.9429 -107.1886,132.993 -90.75151,-110.3218 z"
       sodipodi:nodetypes="ccccccsccccsc" /><path
       style="fill:url(#linearGradient273);fill-opacity:1;stroke-width:107.787;stroke-linecap:round;stroke-linejoin:round"
       d="M -49.69673,-26.2612 C -31.1938,-42.3106 12.68308,-36.4385 27.36665,-2.5365 20.90422,-19.0703 4.74067,-3.7505 -13.44681,14.8887 L -29.50668,31.5932 -79.6783,2.6493 c 5.91436,-4.215 12.16259,-9.5785 18.83649,-16.406 z"
       id="path114"
       sodipodi:nodetypes="ccccccc" /><path
       style="fill:url(#linearGradient274);fill-opacity:1;stroke-width:107.787;stroke-linecap:round;stroke-linejoin:round"
       d="m -138.97531,-23.5046 c 14.64728,63.7478 60.89833,108.0193 101.50887,63.3112 L -77.39283,0.9763 c -42.98032,27.9235 -52.55482,2.1607 -61.58248,-24.4809 z"
       id="path115"
       sodipodi:nodetypes="cccc" /><path
       id="path116"
       style="fill:url(#linearGradient275);fill-opacity:1;stroke-width:50.5728"
       class="cls-2"
       d="m 124.76999,-153.5069 c -5.33075,-0.032 -10.73135,0.5243 -16.03829,1.6561 -30.78979,6.5898 -51.73835,30.6531 -46.78129,53.737 4.95251,23.0642 33.89351,36.4216 64.65792,29.8422 30.76847,-6.5884 51.70982,-30.6274 46.7812,-53.7013 -3.96566,-18.5504 -23.76467,-31.3925 -48.61954,-31.5359 z"
       sodipodi:nodetypes="ccccccc" /><path
       id="path117"
       style="fill:url(#linearGradient276);fill-opacity:1;stroke-width:50.5728"
       class="cls-2"
       d="m 442.27963,156.8765 c 0,0 35.98514,-39.237 38.23939,-132.5592 2.25488,-93.3223 -57.70216,-99.0768 -57.70216,-99.0768 0,0 -26.48915,-6.6519 -79.14582,50.2413 -52.65667,56.8925 -56.36831,54.3497 -56.36831,54.3497 0,0 -14.86822,10.4776 -16.6148,-15.8943 -1.74532,-26.3714 -7.43225,-106.3033 72.98311,-149.5703 80.41533,-43.267 119.44012,62.7113 119.44012,62.7113 0,0 -10.02342,-159.1286 -135.91096,-138.1449 -125.88758,20.9832 -120.37713,167.3386 -120.37713,167.3386 0,0 -0.12756,64.7376 60.47678,97.5627 50.34062,28.9855 79.27323,-2.3377 84.22827,-7.28 4.95564,-4.9429 107.18859,-132.993 90.75151,110.3219 z"
       sodipodi:nodetypes="ccccccsccccsc" /><path
       style="fill:url(#linearGradient277);fill-opacity:1;stroke-width:107.787;stroke-linecap:round;stroke-linejoin:round"
       d="m 349.27779,48.3943 c -18.50293,16.0494 -62.37981,10.1774 -77.06338,-23.7247 6.46243,16.5339 22.62594,1.214 40.81345,-17.4251 l 16.05988,-16.7046 50.17162,28.9439 c -5.91436,4.215 -12.16263,9.5785 -18.83653,16.406 z"
       id="path118"
       sodipodi:nodetypes="ccccccc" /><path
       style="fill:url(#linearGradient278);fill-opacity:1;stroke-width:107.787;stroke-linecap:round;stroke-linejoin:round"
       d="M 438.55633,45.6377 C 423.90905,-18.1101 377.658,-62.3816 337.0475,-17.6735 l 39.92639,38.8303 c 42.98028,-27.9234 52.55478,-2.1607 61.58244,24.4809 z"
       id="path119"
       sodipodi:nodetypes="cccc" /><path
       id="path120"
       style="fill:url(#linearGradient279);fill-opacity:1;stroke-width:50.5728"
       class="cls-2"
       d="m 139.56047,-57.6178 c -29.86101,-0.4885 -51.35836,28.5173 -42.20393,56.9447 0,0 25.49232,100.9259 161.89624,104.1585 0,0 -78.79352,-56.4217 -76.94762,-120.8452 -1.71715,-22.4428 -20.23942,-39.8875 -42.74469,-40.258 z"
       sodipodi:nodetypes="ccccc" /><path
       class="cls-3"
       d="m 119.51388,-68.9235 c 9.39917,0.5382 18.21864,-3.1883 26.58267,-7.1357 10.87597,-5.7692 21.13091,-14.3955 26.11344,-25.934 a 32.296738,32.296738 0 0 0 1.79424,-27.5213 c -2.55334,-7.6048 -9.30254,-12.546 -14.97517,-17.7908 -10.84841,-6.6387 -24.05694,-10.6413 -36.80999,-8.502 -7.54971,-0.4279 -14.64397,1.7529 -21.39313,4.4304 a 64.193218,64.193218 0 0 0 -31.74468,26.3343 c -3.72658,8.088 -7.78434,17.5148 -4.04397,26.3343 3.17446,12.2976 13.45693,21.4345 24.95403,26.1272 9.31637,3.3677 19.54365,5.4656 29.52256,3.6576 z"
       id="path146"
       style="fill:url(#linearGradient247);stroke-width:56.3507" /><path
       class="cls-4"
       d="M 230.93758,71.8571 C 212.26343,53.8316 194.6659,32.9216 187.99949,7.4292 c -3.16068,-12.1596 -2.76041,-24.9126 -3.74036,-37.4448 -3.38146,-10.1445 -10.2549,-19.9992 -20.99289,-23.5463 -6.90101,-3.9336 -15.00275,-4.5408 -22.69051,-5.7968 -15.01657,0.4002 -30.62666,7.3978 -38.06596,21.048 -2.98126,5.7141 -3.85077,12.339 -4.6237,18.6742 0.95238,17.4595 8.51587,33.9668 17.48721,48.8315 8.2812,12.5599 18.16343,24.3054 30.2816,33.5527 6.90101,7.1633 16.02418,11.4005 24.36056,16.6315 a 143.54106,143.54106 0 0 0 49.32846,17.5424 282.66546,282.66546 0 0 0 42.99331,4.7893 C 253.07605,90.3794 240.25399,82.8573 230.93758,71.8571 Z"
       id="path147"
       style="fill:url(#linearGradient248);stroke-width:56.3507" /><path
       id="path148"
       style="fill:url(#linearGradient249);fill-opacity:1;stroke-width:50.5728"
       class="cls-2"
       d="m 349.96796,-213.9998 c -6.98701,-0.012 -14.37204,0.5732 -22.23739,1.9109 -125.84999,20.9953 -120.41342,167.3386 -120.41342,167.3386 0,0 -0.12756,64.7999 60.44117,97.5626 50.33994,28.9855 79.27318,-2.3759 84.22818,-7.3162 4.95564,-4.943 107.23701,-132.9905 90.7872,110.2498 0,0 36.02084,-39.1885 38.27572,-132.5229 2.25489,-93.3351 -57.70211,-99.0048 -57.70211,-99.0048 0,0 -26.52548,-6.6518 -79.18219,50.2413 -52.656,56.8926 -56.33199,54.3498 -56.33199,54.3498 0,0 -14.86822,10.4775 -16.6148,-15.8945 -1.74532,-26.3713 -7.45578,-106.3025 72.94679,-149.5701 80.40324,-43.2671 119.44012,62.7112 119.44012,62.7112 0,0 -8.83608,-139.871 -113.63728,-140.0551 z m -225.50879,60.4768 a 42.734594,56.991844 77.92 0 0 -16.03831,1.6561 42.734594,56.991844 77.92 0 0 -46.78127,53.7369 42.734594,56.991844 77.92 0 0 64.65788,29.8422 42.734594,56.991844 77.92 0 0 46.78112,-53.7012 42.734594,56.991844 77.92 0 0 -48.61942,-31.5359 z m -266.37958,17.876 c 0,0 -35.9852,39.2369 -38.23949,132.5592 -2.25485,93.3223 57.70216,99.0767 57.70216,99.0767 0,0 26.48918,6.6519 79.14581,-50.2412 52.65665,-56.8926 56.3683,-54.3498 56.3683,-54.3498 0,0 14.86826,-10.4776 16.6148,15.8944 1.74533,26.3714 7.43225,106.3032 -72.9831,149.5702 -80.41531,43.267 -119.44005,-62.7112 -119.44005,-62.7112 0,0 10.02337,159.1285 135.91092,138.1447 C 99.04649,211.3129 93.53606,64.9575 93.53606,64.9575 c 0,0 0.12756,-64.7375 -60.47681,-97.5627 -50.34062,-28.9854 -79.27321,2.3377 -84.22824,7.28 -4.95568,4.943 -107.18854,132.993 -90.75142,-110.3218 z m 281.48084,78.0292 A 43.589288,43.589288 0 0 0 97.3566,-0.6731 c 0,0 25.4923,100.9259 161.89618,104.1585 0,0 -78.79356,-56.4217 -76.94766,-120.8452 a 43.589288,43.589288 0 0 0 -42.74469,-40.258 z" /><path
       id="path149"
       style="fill:url(#linearGradient250);fill-opacity:1;stroke-width:50.5728"
       class="cls-2"
       d="m -142.69857,-134.7433 c 0,0 -35.98514,39.2369 -38.23939,132.5592 -2.25489,93.3223 57.70211,99.0767 57.70211,99.0767 0,0 26.4892,6.6519 79.14587,-50.2413 52.65667,-56.8925 56.36827,-54.3497 56.36827,-54.3497 0,0 14.86826,-10.4776 16.61484,15.8943 1.74532,26.3714 7.43221,106.3033 -72.98311,149.5703 -80.41533,43.2671 -119.44013,-62.7113 -119.44013,-62.7113 0,0 10.02342,159.1287 135.91097,138.1449 C 98.26843,212.2166 92.75799,65.8612 92.75799,65.8612 c 0,0 0.12756,-64.7376 -60.47679,-97.5627 -50.34066,-28.9855 -79.27326,2.3377 -84.22826,7.28 -4.95564,4.9429 -107.1886,132.993 -90.75151,-110.3218 z"
       sodipodi:nodetypes="ccccccsccccsc" /><path
       style="fill:url(#linearGradient251);fill-opacity:1;stroke-width:107.787;stroke-linecap:round;stroke-linejoin:round"
       d="M -49.69673,-26.2612 C -31.1938,-42.3106 12.68308,-36.4385 27.36665,-2.5365 20.90422,-19.0703 4.74067,-3.7505 -13.44681,14.8887 L -29.50668,31.5932 -79.6783,2.6493 c 5.91436,-4.215 12.16259,-9.5785 18.83649,-16.406 z"
       id="path150"
       sodipodi:nodetypes="ccccccc" /><path
       style="fill:url(#linearGradient252);fill-opacity:1;stroke-width:107.787;stroke-linecap:round;stroke-linejoin:round"
       d="m -138.97531,-23.5046 c 14.64728,63.7478 60.89833,108.0193 101.50887,63.3112 L -77.39283,0.9763 c -42.98032,27.9235 -52.55482,2.1607 -61.58248,-24.4809 z"
       id="path151"
       sodipodi:nodetypes="cccc" /><path
       id="path152"
       style="fill:url(#linearGradient253);fill-opacity:1;stroke-width:50.5728"
       class="cls-2"
       d="m 124.76999,-153.5069 c -5.33075,-0.032 -10.73135,0.5243 -16.03829,1.6561 -30.78979,6.5898 -51.73835,30.6531 -46.78129,53.737 4.95251,23.0642 33.89351,36.4216 64.65792,29.8422 30.76847,-6.5884 51.70982,-30.6274 46.7812,-53.7013 -3.96566,-18.5504 -23.76467,-31.3925 -48.61954,-31.5359 z"
       sodipodi:nodetypes="ccccccc" /><path
       id="path153"
       style="fill:url(#linearGradient254);fill-opacity:1;stroke-width:50.5728"
       class="cls-2"
       d="m 442.27963,156.8765 c 0,0 35.98514,-39.237 38.23939,-132.5592 2.25488,-93.3223 -57.70216,-99.0768 -57.70216,-99.0768 0,0 -26.48915,-6.6519 -79.14582,50.2413 -52.65667,56.8925 -56.36831,54.3497 -56.36831,54.3497 0,0 -14.86822,10.4776 -16.6148,-15.8943 -1.74532,-26.3714 -7.43225,-106.3033 72.98311,-149.5703 80.41533,-43.267 119.44012,62.7113 119.44012,62.7113 0,0 -10.02342,-159.1286 -135.91096,-138.1449 -125.88758,20.9832 -120.37713,167.3386 -120.37713,167.3386 0,0 -0.12756,64.7376 60.47678,97.5627 50.34062,28.9855 79.27323,-2.3377 84.22827,-7.28 4.95564,-4.9429 107.18859,-132.993 90.75151,110.3219 z"
       sodipodi:nodetypes="ccccccsccccsc" /><path
       style="fill:url(#linearGradient255);fill-opacity:1;stroke-width:107.787;stroke-linecap:round;stroke-linejoin:round"
       d="m 349.27779,48.3943 c -18.50293,16.0494 -62.37981,10.1774 -77.06338,-23.7247 6.46243,16.5339 22.62594,1.214 40.81345,-17.4251 l 16.05988,-16.7046 50.17162,28.9439 c -5.91436,4.215 -12.16263,9.5785 -18.83653,16.406 z"
       id="path154"
       sodipodi:nodetypes="ccccccc" /><path
       style="fill:url(#linearGradient256);fill-opacity:1;stroke-width:107.787;stroke-linecap:round;stroke-linejoin:round"
       d="M 438.55633,45.6377 C 423.90905,-18.1101 377.658,-62.3816 337.0475,-17.6735 l 39.92639,38.8303 c 42.98028,-27.9234 52.55478,-2.1607 61.58244,24.4809 z"
       id="path155"
       sodipodi:nodetypes="cccc" /><path
       id="path156"
       style="fill:url(#linearGradient257);fill-opacity:1;stroke-width:50.5728"
       class="cls-2"
       d="m 139.56047,-57.6178 c -29.86101,-0.4885 -51.35836,28.5173 -42.20393,56.9447 0,0 25.49232,100.9259 161.89624,104.1585 0,0 -78.79352,-56.4217 -76.94762,-120.8452 -1.71715,-22.4428 -20.23942,-39.8875 -42.74469,-40.258 z"
       sodipodi:nodetypes="ccccc" /></g></svg>
