<?xml version="1.0" encoding="UTF-8" standalone="no"?>
<!-- Created with Inkscape (http://www.inkscape.org/) -->

<svg
   width="256"
   height="256"
   viewBox="0 0 67.733332 67.733333"
   version="1.1"
   id="svg1"
   inkscape:version="1.3 (0e150ed6c4, 2023-07-21)"
   sodipodi:docname="logo.svg"
   xmlns:inkscape="http://www.inkscape.org/namespaces/inkscape"
   xmlns:sodipodi="http://sodipodi.sourceforge.net/DTD/sodipodi-0.dtd"
   xmlns:xlink="http://www.w3.org/1999/xlink"
   xmlns="http://www.w3.org/2000/svg"
   xmlns:svg="http://www.w3.org/2000/svg">
  <sodipodi:namedview
     id="namedview1"
     pagecolor="#ffffff"
     bordercolor="#000000"
     borderopacity="0.25"
     inkscape:showpageshadow="2"
     inkscape:pageopacity="0.0"
     inkscape:pagecheckerboard="0"
     inkscape:deskcolor="#d1d1d1"
     inkscape:document-units="mm"
     inkscape:zoom="2.054307"
     inkscape:cx="202.50138"
     inkscape:cy="190.08843"
     inkscape:window-width="3440"
     inkscape:window-height="1358"
     inkscape:window-x="2560"
     inkscape:window-y="0"
     inkscape:window-maximized="1"
     inkscape:current-layer="layer1" />
  <defs
     id="defs1">
    <linearGradient
       id="linear-gradient-35"
       x1="70.739998"
       y1="207.69"
       x2="304.39001"
       y2="456.44"
       gradientTransform="matrix(1,0,0,-1,16.81,529.63)"
       gradientUnits="userSpaceOnUse">
      <stop
         offset="0"
         stop-color="#2d85c6"
         id="stop369" />
      <stop
         offset="1"
         stop-color="#04bacc"
         id="stop371" />
    </linearGradient>
    <linearGradient
       inkscape:collect="always"
       id="linearGradient14872">
      <stop
         style="stop-color:#283efd;stop-opacity:1;"
         offset="0"
         id="stop14868" />
      <stop
         style="stop-color:#10f3ff;stop-opacity:1;"
         offset="1"
         id="stop14870" />
    </linearGradient>
    <linearGradient
       inkscape:collect="always"
       id="linearGradient3753">
      <stop
         style="stop-color:#000000;stop-opacity:1;"
         offset="0"
         id="stop3749" />
      <stop
         style="stop-color:#000000;stop-opacity:0;"
         offset="1"
         id="stop3751" />
    </linearGradient>
    <linearGradient
       inkscape:collect="always"
       id="linearGradient4025">
      <stop
         style="stop-color:#091f2d;stop-opacity:1;"
         offset="0"
         id="stop4021" />
      <stop
         style="stop-color:#091f2d;stop-opacity:0;"
         offset="1"
         id="stop4023" />
    </linearGradient>
    <linearGradient
       inkscape:collect="always"
       id="linearGradient4754">
      <stop
         style="stop-color:#134865;stop-opacity:1;"
         offset="0"
         id="stop4750" />
      <stop
         style="stop-color:#134865;stop-opacity:0;"
         offset="1"
         id="stop4752" />
    </linearGradient>
    <linearGradient
       inkscape:collect="always"
       xlink:href="#linearGradient47"
       id="linearGradient1-2"
       gradientUnits="userSpaceOnUse"
       gradientTransform="matrix(3.8662155,0,0,3.8662155,-12.398142,-18.074236)"
       x1="11.962032"
       y1="3.9620316"
       x2="11.962032"
       y2="19.973257" />
    <linearGradient
       id="linearGradient47"
       inkscape:collect="always">
      <stop
         style="stop-color:#ededed;stop-opacity:1;"
         offset="0"
         id="stop46" />
      <stop
         style="stop-color:#ebebeb;stop-opacity:1;"
         offset="1"
         id="stop47" />
    </linearGradient>
    <linearGradient
       inkscape:collect="always"
       xlink:href="#linear-gradient-35"
       id="linearGradient89-7"
       gradientUnits="userSpaceOnUse"
       gradientTransform="matrix(0.08485358,0,0,-0.08485358,13.960938,51.386653)"
       x1="70.739998"
       y1="207.69"
       x2="304.39001"
       y2="456.44" />
    <linearGradient
       inkscape:collect="always"
       xlink:href="#linear-gradient-35"
       id="linearGradient90-5"
       gradientTransform="matrix(0.08485358,0,0,0.08485358,12.534549,6.4456498)"
       x1="146.39"
       y1="136.63"
       x2="380.04001"
       y2="385.38" />
    <linearGradient
       inkscape:collect="always"
       xlink:href="#linearGradient14872"
       id="linearGradient91-9"
       gradientUnits="userSpaceOnUse"
       gradientTransform="matrix(0.20448068,0,0,0.20448068,-4.1170773,2.3095092)"
       x1="328.03387"
       y1="201.04596"
       x2="284.53772"
       y2="38.716057" />
    <linearGradient
       inkscape:collect="always"
       xlink:href="#linearGradient3753"
       id="linearGradient92-7"
       gradientUnits="userSpaceOnUse"
       gradientTransform="matrix(0.20448068,0,0,0.20448068,-4.134688,2.3745239)"
       x1="102.5537"
       y1="201.07986"
       x2="161.90266"
       y2="130.75484" />
    <linearGradient
       inkscape:collect="always"
       xlink:href="#linearGradient3753"
       id="linearGradient93-3"
       gradientUnits="userSpaceOnUse"
       gradientTransform="matrix(0.20448068,0,0,0.20448068,-4.134688,2.3745239)"
       x1="136.71155"
       y1="112.77216"
       x2="127.96666"
       y2="124.48015" />
    <linearGradient
       inkscape:collect="always"
       xlink:href="#linearGradient3753"
       id="linearGradient94-0"
       gradientUnits="userSpaceOnUse"
       gradientTransform="matrix(0.20448068,0,0,0.20448068,-4.134688,2.3745239)"
       x1="108.50922"
       y1="138.97209"
       x2="115.03763"
       y2="130.46425" />
    <linearGradient
       inkscape:collect="always"
       xlink:href="#linearGradient4025"
       id="linearGradient95-2"
       gradientUnits="userSpaceOnUse"
       gradientTransform="matrix(0.24482382,0,0,0.24482382,8.4579143,-9.6243669)"
       x1="89.06459"
       y1="139.31154"
       x2="105.55106"
       y2="114.01978" />
    <linearGradient
       inkscape:collect="always"
       xlink:href="#linearGradient3753"
       id="linearGradient96-8"
       gradientUnits="userSpaceOnUse"
       gradientTransform="matrix(-0.20448068,0,0,-0.20448068,72.094971,54.329291)"
       x1="180.99303"
       y1="52.836334"
       x2="107.37358"
       y2="184.64915" />
    <linearGradient
       inkscape:collect="always"
       xlink:href="#linearGradient3753"
       id="linearGradient97-9"
       gradientUnits="userSpaceOnUse"
       gradientTransform="matrix(-0.20448068,0,0,-0.20448068,72.094971,54.329291)"
       x1="136.71155"
       y1="112.77216"
       x2="127.96666"
       y2="124.48015" />
    <linearGradient
       inkscape:collect="always"
       xlink:href="#linearGradient3753"
       id="linearGradient98-0"
       gradientUnits="userSpaceOnUse"
       gradientTransform="matrix(-0.20448068,0,0,-0.20448068,72.094971,54.329291)"
       x1="108.50922"
       y1="138.97209"
       x2="115.03763"
       y2="130.46425" />
    <linearGradient
       inkscape:collect="always"
       xlink:href="#linearGradient4754"
       id="linearGradient99-3"
       gradientUnits="userSpaceOnUse"
       gradientTransform="matrix(0.24482382,0,0,0.24482382,10.553451,15.415135)"
       x1="93.887825"
       y1="67.032059"
       x2="105.47661"
       y2="46.598228" />
    <linearGradient
       inkscape:collect="always"
       xlink:href="#linear-gradient-35"
       id="linearGradient23"
       gradientUnits="userSpaceOnUse"
       gradientTransform="matrix(0.08485358,0,0,-0.08485358,13.960938,51.386653)"
       x1="70.739998"
       y1="207.69"
       x2="304.39001"
       y2="456.44" />
    <linearGradient
       inkscape:collect="always"
       xlink:href="#linear-gradient-35"
       id="linearGradient24"
       gradientTransform="matrix(0.08485358,0,0,0.08485358,12.534549,6.4456498)"
       x1="146.39"
       y1="136.63"
       x2="380.04001"
       y2="385.38" />
    <linearGradient
       inkscape:collect="always"
       xlink:href="#linearGradient14872"
       id="linearGradient25"
       gradientUnits="userSpaceOnUse"
       gradientTransform="matrix(0.20448068,0,0,0.20448068,-4.1170773,2.3095092)"
       x1="328.03387"
       y1="201.04596"
       x2="284.53772"
       y2="38.716057" />
    <linearGradient
       inkscape:collect="always"
       xlink:href="#linearGradient3753"
       id="linearGradient26"
       gradientUnits="userSpaceOnUse"
       gradientTransform="matrix(0.20448068,0,0,0.20448068,-4.134688,2.3745239)"
       x1="102.5537"
       y1="201.07986"
       x2="161.90266"
       y2="130.75484" />
    <linearGradient
       inkscape:collect="always"
       xlink:href="#linearGradient3753"
       id="linearGradient27"
       gradientUnits="userSpaceOnUse"
       gradientTransform="matrix(0.20448068,0,0,0.20448068,-4.134688,2.3745239)"
       x1="136.71155"
       y1="112.77216"
       x2="127.96666"
       y2="124.48015" />
    <linearGradient
       inkscape:collect="always"
       xlink:href="#linearGradient3753"
       id="linearGradient28"
       gradientUnits="userSpaceOnUse"
       gradientTransform="matrix(0.20448068,0,0,0.20448068,-4.134688,2.3745239)"
       x1="108.50922"
       y1="138.97209"
       x2="115.03763"
       y2="130.46425" />
    <linearGradient
       inkscape:collect="always"
       xlink:href="#linearGradient4025"
       id="linearGradient29"
       gradientUnits="userSpaceOnUse"
       gradientTransform="matrix(0.24482382,0,0,0.24482382,8.4579143,-9.6243669)"
       x1="89.06459"
       y1="139.31154"
       x2="105.55106"
       y2="114.01978" />
    <linearGradient
       inkscape:collect="always"
       xlink:href="#linearGradient3753"
       id="linearGradient30"
       gradientUnits="userSpaceOnUse"
       gradientTransform="matrix(-0.20448068,0,0,-0.20448068,72.094971,54.329291)"
       x1="180.99303"
       y1="52.836334"
       x2="107.37358"
       y2="184.64915" />
    <linearGradient
       inkscape:collect="always"
       xlink:href="#linearGradient3753"
       id="linearGradient31"
       gradientUnits="userSpaceOnUse"
       gradientTransform="matrix(-0.20448068,0,0,-0.20448068,72.094971,54.329291)"
       x1="136.71155"
       y1="112.77216"
       x2="127.96666"
       y2="124.48015" />
    <linearGradient
       inkscape:collect="always"
       xlink:href="#linearGradient3753"
       id="linearGradient32"
       gradientUnits="userSpaceOnUse"
       gradientTransform="matrix(-0.20448068,0,0,-0.20448068,72.094971,54.329291)"
       x1="108.50922"
       y1="138.97209"
       x2="115.03763"
       y2="130.46425" />
    <linearGradient
       inkscape:collect="always"
       xlink:href="#linearGradient4754"
       id="linearGradient33"
       gradientUnits="userSpaceOnUse"
       gradientTransform="matrix(0.24482382,0,0,0.24482382,10.553451,15.415135)"
       x1="93.887825"
       y1="67.032059"
       x2="105.47661"
       y2="46.598228" />
    <linearGradient
       inkscape:collect="always"
       xlink:href="#linear-gradient-35"
       id="linearGradient34"
       gradientUnits="userSpaceOnUse"
       gradientTransform="matrix(0.08485358,0,0,-0.08485358,13.960938,51.386653)"
       x1="70.739998"
       y1="207.69"
       x2="304.39001"
       y2="456.44" />
    <linearGradient
       inkscape:collect="always"
       xlink:href="#linear-gradient-35"
       id="linearGradient35"
       gradientTransform="matrix(0.08485358,0,0,0.08485358,12.534549,6.4456498)"
       x1="146.39"
       y1="136.63"
       x2="380.04001"
       y2="385.38" />
    <linearGradient
       inkscape:collect="always"
       xlink:href="#linearGradient14872"
       id="linearGradient36"
       gradientUnits="userSpaceOnUse"
       gradientTransform="matrix(0.20448068,0,0,0.20448068,-4.1170773,2.3095092)"
       x1="328.03387"
       y1="201.04596"
       x2="284.53772"
       y2="38.716057" />
    <linearGradient
       inkscape:collect="always"
       xlink:href="#linearGradient3753"
       id="linearGradient37"
       gradientUnits="userSpaceOnUse"
       gradientTransform="matrix(0.20448068,0,0,0.20448068,-4.134688,2.3745239)"
       x1="102.5537"
       y1="201.07986"
       x2="161.90266"
       y2="130.75484" />
    <linearGradient
       inkscape:collect="always"
       xlink:href="#linearGradient3753"
       id="linearGradient38"
       gradientUnits="userSpaceOnUse"
       gradientTransform="matrix(0.20448068,0,0,0.20448068,-4.134688,2.3745239)"
       x1="136.71155"
       y1="112.77216"
       x2="127.96666"
       y2="124.48015" />
    <linearGradient
       inkscape:collect="always"
       xlink:href="#linearGradient3753"
       id="linearGradient39"
       gradientUnits="userSpaceOnUse"
       gradientTransform="matrix(0.20448068,0,0,0.20448068,-4.134688,2.3745239)"
       x1="108.50922"
       y1="138.97209"
       x2="115.03763"
       y2="130.46425" />
    <linearGradient
       inkscape:collect="always"
       xlink:href="#linearGradient4025"
       id="linearGradient40"
       gradientUnits="userSpaceOnUse"
       gradientTransform="matrix(0.24482382,0,0,0.24482382,8.4579143,-9.6243669)"
       x1="89.06459"
       y1="139.31154"
       x2="105.55106"
       y2="114.01978" />
    <linearGradient
       inkscape:collect="always"
       xlink:href="#linearGradient3753"
       id="linearGradient41"
       gradientUnits="userSpaceOnUse"
       gradientTransform="matrix(-0.20448068,0,0,-0.20448068,72.094971,54.329291)"
       x1="180.99303"
       y1="52.836334"
       x2="107.37358"
       y2="184.64915" />
    <linearGradient
       inkscape:collect="always"
       xlink:href="#linearGradient3753"
       id="linearGradient42"
       gradientUnits="userSpaceOnUse"
       gradientTransform="matrix(-0.20448068,0,0,-0.20448068,72.094971,54.329291)"
       x1="136.71155"
       y1="112.77216"
       x2="127.96666"
       y2="124.48015" />
    <linearGradient
       inkscape:collect="always"
       xlink:href="#linearGradient3753"
       id="linearGradient43"
       gradientUnits="userSpaceOnUse"
       gradientTransform="matrix(-0.20448068,0,0,-0.20448068,72.094971,54.329291)"
       x1="108.50922"
       y1="138.97209"
       x2="115.03763"
       y2="130.46425" />
    <linearGradient
       inkscape:collect="always"
       xlink:href="#linearGradient4754"
       id="linearGradient44"
       gradientUnits="userSpaceOnUse"
       gradientTransform="matrix(0.24482382,0,0,0.24482382,10.553451,15.415135)"
       x1="93.887825"
       y1="67.032059"
       x2="105.47661"
       y2="46.598228" />
  </defs>
  <g
     inkscape:label="Camada 1"
     inkscape:groupmode="layer"
     id="layer1">
    <g
       id="g44"
       transform="matrix(1.1399388,0,0,1.1399388,-4.8860766,-0.80870212)"
       style="stroke-width:0.87724">
      <path
         id="circle46-9"
         style="fill:url(#linearGradient1-2);fill-opacity:1;stroke:none;stroke-width:0.309394;stroke-linecap:round;stroke-linejoin:round;stroke-dasharray:none;stroke-dashoffset:0.943094;stroke-opacity:0.15;paint-order:stroke markers fill"
         d="m 34.231762,0.70968929 c -1.801777,-0.0047 -3.605434,0.053542 -5.407408,0.1715876 -0.27426,0.079851 -0.562032,0.1159395 -0.862843,0.1127551 C 26.097943,1.143801 24.258097,1.4421244 22.441342,1.8862803 14.644633,3.7399296 9.7264941,8.5397078 7.6898346,16.28481 6.7352374,20.23157 6.3035913,24.23407 6.3955846,28.295839 6.3187056,32.115644 6.69377,35.891591 7.51825,39.620526 c 1.9428071,8.283436 7.071673,13.350864 15.383923,15.202534 4.515987,0.92922 9.07946,1.27413 13.687663,1.034419 4.09691,-0.06928 8.079837,-0.758839 11.957105,-2.068839 4.784677,-1.75528 8.248363,-4.944824 10.383417,-9.569606 1.151115,-2.667184 1.896548,-5.445359 2.240423,-8.334183 0.459603,-4.110214 0.557074,-8.23082 0.289242,-12.359104 C 61.26625,20.2381 60.634315,17.038267 59.562778,13.926726 57.689278,8.7586218 54.209807,5.1266928 49.12544,3.0334558 46.067178,1.8702481 42.901604,1.1652603 39.634269,0.91068939 37.832553,0.78307419 36.033536,0.71447789 34.231762,0.70968479 Z"
         sodipodi:nodetypes="cccccccccccccccccc" />
      <path
         class="cls-3"
         d="m 32.118756,23.43419 c 0.577863,0.03309 1.120076,-0.196014 1.634282,-0.438696 0.668646,-0.354685 1.299107,-0.885023 1.605423,-1.594399 a 1.9855738,1.9855738 0 0 0 0.110238,-1.691984 c -0.156972,-0.467537 -0.571919,-0.771316 -0.920659,-1.093763 -0.666947,-0.408139 -1.478993,-0.654216 -2.263047,-0.522694 -0.464152,-0.02631 -0.900297,0.107766 -1.315229,0.272377 a 3.9465402,3.9465402 0 0 0 -1.951637,1.619009 c -0.229104,0.497241 -0.478572,1.076793 -0.248619,1.619008 0.195168,0.756046 0.827331,1.317773 1.534158,1.606276 0.572752,0.207043 1.201518,0.33602 1.815014,0.224866 z"
         id="path74-2-3"
         style="fill:url(#linearGradient23);stroke-width:0.320351" />
      <path
         class="cls-4"
         d="m 38.96899,32.089252 c -1.148083,-1.108191 -2.229962,-2.393718 -2.639798,-3.960968 -0.194319,-0.747561 -0.169709,-1.531603 -0.229953,-2.302073 -0.207891,-0.623674 -0.630464,-1.229532 -1.290634,-1.447603 -0.424254,-0.241835 -0.922341,-0.279165 -1.394985,-0.356383 -0.923209,0.02461 -1.882901,0.45481 -2.340259,1.294012 -0.183281,0.351297 -0.236747,0.758591 -0.284254,1.148072 0.05853,1.073395 0.523547,2.088248 1.075086,3.002117 0.509126,0.77217 1.116679,1.494273 1.861687,2.062789 0.424272,0.440392 0.985152,0.700892 1.497672,1.02249 a 8.8247726,8.8247726 0 0 0 3.032666,1.078489 17.378013,17.378013 0 0 0 2.64318,0.294442 c -0.569356,-0.69665 -1.357656,-1.159102 -1.930408,-1.835384 z"
         id="path75-8-6"
         style="fill:url(#linearGradient24);stroke-width:0.320351" />
      <path
         id="path76-9-1"
         style="fill:url(#linearGradient25);fill-opacity:1;stroke-width:0.287501"
         class="cls-2"
         d="m 46.286865,14.515032 c -0.429564,-7.38e-4 -0.883587,0.03524 -1.367132,0.117486 -7.737145,1.290772 -7.402913,10.287824 -7.402913,10.287824 0,0 -0.0076,3.983838 3.715869,5.998059 3.094852,1.782002 4.873641,-0.146069 5.178274,-0.449792 0.304663,-0.303892 6.592822,-8.176134 5.581514,6.778055 0,0 2.214524,-2.409273 2.353148,-8.147385 0.138594,-5.738157 -3.547464,-6.086724 -3.547464,-6.086724 0,0 -1.630764,-0.408947 -4.86806,3.088789 -3.237236,3.497704 -3.463232,3.341375 -3.463232,3.341375 0,0 -0.91408,0.644148 -1.021468,-0.97718 -0.107356,-1.621282 -0.458374,-6.535379 4.4847,-9.195432 4.943119,-2.660021 7.343077,3.855427 7.343077,3.855427 0,0 -0.543229,-8.599141 -6.986313,-8.610459 z m -13.864067,3.718059 a 2.6272836,3.5038063 77.92 0 0 -0.986031,0.101807 2.6272836,3.5038063 77.92 0 0 -2.876059,3.303696 2.6272836,3.5038063 77.92 0 0 3.975103,1.83467 2.6272836,3.5038063 77.92 0 0 2.876055,-3.3015 2.6272836,3.5038063 77.92 0 0 -2.989068,-1.938797 z m -16.37678,1.099 c 0,0 -2.212336,2.412248 -2.350928,8.149617 -0.138624,5.73737 3.547476,6.091144 3.547476,6.091144 0,0 1.62853,0.408954 4.865812,-3.088781 3.237278,-3.497706 3.465472,-3.341377 3.465472,-3.341377 0,0 0.914081,-0.644152 1.021468,0.977174 0.107357,1.62129 0.456919,6.535423 -4.48694,9.195438 -4.94386,2.660015 -7.343064,-3.855427 -7.343064,-3.855427 0,0 0.616227,9.783074 8.355678,8.49301 7.739444,-1.290023 7.400678,-10.287818 7.400678,-10.287818 0,0 0.0076,-3.980002 -3.718067,-5.998065 -3.09489,-1.781996 -4.87364,0.143719 -5.178269,0.447568 -0.304671,0.303891 -6.589854,8.176287 -5.579316,-6.782483 z m 17.30519,4.797164 a 2.6798294,2.6798294 0 0 0 -2.594657,3.500908 c 0,0 1.567245,6.204831 9.953228,6.403568 0,0 -4.844163,-3.468754 -4.73068,-7.429452 a 2.6798294,2.6798294 0 0 0 -2.627891,-2.475024 z" />
      <path
         id="path77-7-2"
         style="fill:url(#linearGradient26);fill-opacity:1;stroke-width:0.287501"
         class="cls-2"
         d="m 15.998178,19.387649 c 0,0 -2.212332,2.412249 -2.350923,8.149618 -0.138624,5.73737 3.547473,6.091144 3.547473,6.091144 0,0 1.628532,0.408954 4.865817,-3.088788 3.237286,-3.497699 3.465465,-3.34137 3.465465,-3.34137 0,0 0.914095,-0.644152 1.021467,0.977168 0.107357,1.621288 0.456935,6.535428 -4.486932,9.195444 -4.943861,2.660021 -7.34307,-3.855433 -7.34307,-3.855433 0,0 0.61623,9.783086 8.355681,8.493021 7.739455,-1.290028 7.400674,-10.287823 7.400674,-10.287823 0,0 0.0076,-3.980008 -3.718053,-5.998065 -3.0949,-1.782002 -4.87365,0.143719 -5.178279,0.447568 -0.304668,0.303884 -6.589857,8.176287 -5.57932,-6.782484 z"
         sodipodi:nodetypes="ccccccsccccsc" />
      <path
         style="fill:url(#linearGradient27);fill-opacity:1;stroke-width:0.612762;stroke-linecap:round;stroke-linejoin:round"
         d="m 21.715846,26.057029 c 1.137543,-0.986703 3.835047,-0.625691 4.737785,1.458573 -0.397296,-1.016482 -1.391024,-0.07463 -2.509172,1.071285 l -0.987347,1.026977 -3.084505,-1.779444 c 0.36361,-0.259134 0.747744,-0.588877 1.15805,-1.008626 z"
         id="path78-3-9"
         sodipodi:nodetypes="ccccccc" />
      <path
         style="fill:url(#linearGradient28);fill-opacity:1;stroke-width:0.612762;stroke-linecap:round;stroke-linejoin:round"
         d="m 16.227082,26.226503 c 0.9005,3.919155 3.743972,6.640926 6.240671,3.892315 l -2.454638,-2.387253 c -2.642391,1.716712 -3.231022,0.132847 -3.786033,-1.505062 z"
         id="path79-6-3"
         sodipodi:nodetypes="cccc" />
      <path
         id="path80-1-1"
         style="fill:url(#linearGradient29);fill-opacity:1;stroke-width:0.287501"
         class="cls-2"
         d="m 32.441904,18.23408 c -0.327727,-0.002 -0.65976,0.03224 -0.986016,0.101822 -1.892939,0.405134 -3.180828,1.884525 -2.876074,3.303702 0.304466,1.417965 2.08374,2.239166 3.975102,1.83467 1.89162,-0.405049 3.179067,-1.882945 2.876071,-3.301506 -0.243812,-1.140462 -1.461036,-1.929983 -2.989083,-1.938799 z"
         sodipodi:nodetypes="ccccccc" />
      <path
         id="path81-2-9"
         style="fill:url(#linearGradient30);fill-opacity:1;stroke-width:0.287501"
         class="cls-2"
         d="m 51.962104,37.316167 c 0,0 2.212326,-2.412255 2.35092,-8.149617 0.138594,-5.73737 -3.547479,-6.091152 -3.547479,-6.091152 0,0 -1.628535,-0.408953 -4.865817,3.088789 -3.237281,3.497699 -3.46546,3.341369 -3.46546,3.341369 0,0 -0.914096,0.644154 -1.021468,-0.977166 -0.107357,-1.62129 -0.456934,-6.535429 4.486928,-9.195446 4.943863,-2.660015 7.343078,3.855435 7.343078,3.855435 0,0 -0.616241,-9.783081 -8.35569,-8.493022 -7.739449,1.290027 -7.400668,10.287824 -7.400668,10.287824 0,0 -0.0076,3.980007 3.718052,5.998065 3.094897,1.782002 4.873641,-0.143719 5.178274,-0.447568 0.304678,-0.303885 6.589865,-8.176287 5.57933,6.782489 z"
         sodipodi:nodetypes="ccccccsccccsc" />
      <path
         style="fill:url(#linearGradient31);fill-opacity:1;stroke-width:0.612762;stroke-linecap:round;stroke-linejoin:round"
         d="m 46.244423,30.64678 c -1.137529,0.986703 -3.835053,0.625698 -4.737776,-1.458573 0.397296,1.01649 1.391015,0.07464 2.509164,-1.071278 l 0.987351,-1.026984 3.08451,1.779444 c -0.363619,0.259135 -0.747753,0.588879 -1.15806,1.008626 z"
         id="path82-9-4"
         sodipodi:nodetypes="ccccccc" />
      <path
         style="fill:url(#linearGradient32);fill-opacity:1;stroke-width:0.612762;stroke-linecap:round;stroke-linejoin:round"
         d="M 51.733198,30.477308 C 50.832688,26.558151 47.989216,23.83638 45.49253,26.584993 l 2.454638,2.387251 c 2.642375,-1.716705 3.231019,-0.132831 3.78603,1.505064 z"
         id="path83-3-7"
         sodipodi:nodetypes="cccc" />
      <path
         id="path84-1-8"
         style="fill:url(#linearGradient33);fill-opacity:1;stroke-width:0.287501"
         class="cls-2"
         d="m 33.351208,24.129255 c -1.835834,-0.03004 -3.157462,1.753217 -2.594657,3.500908 0,0 1.567245,6.204831 9.953228,6.403568 0,0 -4.844163,-3.468754 -4.73068,-7.429452 -0.105537,-1.379762 -1.244294,-2.452247 -2.627891,-2.475024 z"
         sodipodi:nodetypes="ccccc" />
      <path
         class="cls-3"
         d="m 32.118756,23.43419 c 0.577863,0.03309 1.120076,-0.196014 1.634282,-0.438696 0.668646,-0.354685 1.299107,-0.885023 1.605423,-1.594399 a 1.9855738,1.9855738 0 0 0 0.110238,-1.691984 c -0.156972,-0.467537 -0.571919,-0.771316 -0.920659,-1.093763 -0.666947,-0.408139 -1.478993,-0.654216 -2.263047,-0.522694 -0.464152,-0.02631 -0.900297,0.107766 -1.315229,0.272377 a 3.9465402,3.9465402 0 0 0 -1.951637,1.619009 c -0.229104,0.497241 -0.478572,1.076793 -0.248619,1.619008 0.195168,0.756046 0.827331,1.317773 1.534158,1.606276 0.572752,0.207043 1.201518,0.33602 1.815014,0.224866 z"
         id="path110-9-4"
         style="fill:url(#linearGradient34);stroke-width:0.320351" />
      <path
         class="cls-4"
         d="m 38.96899,32.089252 c -1.148083,-1.108191 -2.229962,-2.393718 -2.639798,-3.960968 -0.194319,-0.747561 -0.169709,-1.531603 -0.229953,-2.302073 -0.207891,-0.623674 -0.630464,-1.229532 -1.290634,-1.447603 -0.424254,-0.241835 -0.922341,-0.279165 -1.394985,-0.356383 -0.923209,0.02461 -1.882901,0.45481 -2.340259,1.294012 -0.183281,0.351297 -0.236747,0.758591 -0.284254,1.148072 0.05853,1.073395 0.523547,2.088248 1.075086,3.002117 0.509126,0.77217 1.116679,1.494273 1.861687,2.062789 0.424272,0.440392 0.985152,0.700892 1.497672,1.02249 a 8.8247726,8.8247726 0 0 0 3.032666,1.078489 17.378013,17.378013 0 0 0 2.64318,0.294442 c -0.569356,-0.69665 -1.357656,-1.159102 -1.930408,-1.835384 z"
         id="path111-4-5"
         style="fill:url(#linearGradient35);stroke-width:0.320351" />
      <path
         id="path112-7-0"
         style="fill:url(#linearGradient36);fill-opacity:1;stroke-width:0.287501"
         class="cls-2"
         d="m 46.286865,14.515032 c -0.429564,-7.38e-4 -0.883587,0.03524 -1.367132,0.117486 -7.737145,1.290772 -7.402913,10.287824 -7.402913,10.287824 0,0 -0.0076,3.983838 3.715869,5.998059 3.094852,1.782002 4.873641,-0.146069 5.178274,-0.449792 0.304663,-0.303892 6.592822,-8.176134 5.581514,6.778055 0,0 2.214524,-2.409273 2.353148,-8.147385 0.138594,-5.738157 -3.547464,-6.086724 -3.547464,-6.086724 0,0 -1.630764,-0.408947 -4.86806,3.088789 -3.237236,3.497704 -3.463232,3.341375 -3.463232,3.341375 0,0 -0.91408,0.644148 -1.021468,-0.97718 -0.107356,-1.621282 -0.458374,-6.535379 4.4847,-9.195432 4.943119,-2.660021 7.343077,3.855427 7.343077,3.855427 0,0 -0.543229,-8.599141 -6.986313,-8.610459 z m -13.864067,3.718059 a 2.6272836,3.5038063 77.92 0 0 -0.986031,0.101807 2.6272836,3.5038063 77.92 0 0 -2.876059,3.303696 2.6272836,3.5038063 77.92 0 0 3.975103,1.83467 2.6272836,3.5038063 77.92 0 0 2.876055,-3.3015 2.6272836,3.5038063 77.92 0 0 -2.989068,-1.938797 z m -16.37678,1.099 c 0,0 -2.212336,2.412248 -2.350928,8.149617 -0.138624,5.73737 3.547476,6.091144 3.547476,6.091144 0,0 1.62853,0.408954 4.865812,-3.088781 3.237278,-3.497706 3.465472,-3.341377 3.465472,-3.341377 0,0 0.914081,-0.644152 1.021468,0.977174 0.107357,1.62129 0.456919,6.535423 -4.48694,9.195438 -4.94386,2.660015 -7.343064,-3.855427 -7.343064,-3.855427 0,0 0.616227,9.783074 8.355678,8.49301 7.739444,-1.290023 7.400678,-10.287818 7.400678,-10.287818 0,0 0.0076,-3.980002 -3.718067,-5.998065 -3.09489,-1.781996 -4.87364,0.143719 -5.178269,0.447568 -0.304671,0.303891 -6.589854,8.176287 -5.579316,-6.782483 z m 17.30519,4.797164 a 2.6798294,2.6798294 0 0 0 -2.594657,3.500908 c 0,0 1.567245,6.204831 9.953228,6.403568 0,0 -4.844163,-3.468754 -4.73068,-7.429452 a 2.6798294,2.6798294 0 0 0 -2.627891,-2.475024 z" />
      <path
         id="path113-8-3"
         style="fill:url(#linearGradient37);fill-opacity:1;stroke-width:0.287501"
         class="cls-2"
         d="m 15.998178,19.387649 c 0,0 -2.212332,2.412249 -2.350923,8.149618 -0.138624,5.73737 3.547473,6.091144 3.547473,6.091144 0,0 1.628532,0.408954 4.865817,-3.088788 3.237286,-3.497699 3.465465,-3.34137 3.465465,-3.34137 0,0 0.914095,-0.644152 1.021467,0.977168 0.107357,1.621288 0.456935,6.535428 -4.486932,9.195444 -4.943861,2.660021 -7.34307,-3.855433 -7.34307,-3.855433 0,0 0.61623,9.783086 8.355681,8.493021 7.739455,-1.290028 7.400674,-10.287823 7.400674,-10.287823 0,0 0.0076,-3.980008 -3.718053,-5.998065 -3.0949,-1.782002 -4.87365,0.143719 -5.178279,0.447568 -0.304668,0.303884 -6.589857,8.176287 -5.57932,-6.782484 z"
         sodipodi:nodetypes="ccccccsccccsc" />
      <path
         style="fill:url(#linearGradient38);fill-opacity:1;stroke-width:0.612762;stroke-linecap:round;stroke-linejoin:round"
         d="m 21.715846,26.057029 c 1.137543,-0.986703 3.835047,-0.625691 4.737785,1.458573 -0.397296,-1.016482 -1.391024,-0.07463 -2.509172,1.071285 l -0.987347,1.026977 -3.084505,-1.779444 c 0.36361,-0.259134 0.747744,-0.588877 1.15805,-1.008626 z"
         id="path114-4-6"
         sodipodi:nodetypes="ccccccc" />
      <path
         style="fill:url(#linearGradient39);fill-opacity:1;stroke-width:0.612762;stroke-linecap:round;stroke-linejoin:round"
         d="m 16.227082,26.226503 c 0.9005,3.919155 3.743972,6.640926 6.240671,3.892315 l -2.454638,-2.387253 c -2.642391,1.716712 -3.231022,0.132847 -3.786033,-1.505062 z"
         id="path115-5-1"
         sodipodi:nodetypes="cccc" />
      <path
         id="path116-0-0"
         style="fill:url(#linearGradient40);fill-opacity:1;stroke-width:0.287501"
         class="cls-2"
         d="m 32.441904,18.23408 c -0.327727,-0.002 -0.65976,0.03224 -0.986016,0.101822 -1.892939,0.405134 -3.180828,1.884525 -2.876074,3.303702 0.304466,1.417965 2.08374,2.239166 3.975102,1.83467 1.89162,-0.405049 3.179067,-1.882945 2.876071,-3.301506 -0.243812,-1.140462 -1.461036,-1.929983 -2.989083,-1.938799 z"
         sodipodi:nodetypes="ccccccc" />
      <path
         id="path117-3-6"
         style="fill:url(#linearGradient41);fill-opacity:1;stroke-width:0.287501"
         class="cls-2"
         d="m 51.962104,37.316167 c 0,0 2.212326,-2.412255 2.35092,-8.149617 0.138594,-5.73737 -3.547479,-6.091152 -3.547479,-6.091152 0,0 -1.628535,-0.408953 -4.865817,3.088789 -3.237281,3.497699 -3.46546,3.341369 -3.46546,3.341369 0,0 -0.914096,0.644154 -1.021468,-0.977166 -0.107357,-1.62129 -0.456934,-6.535429 4.486928,-9.195446 4.943863,-2.660015 7.343078,3.855435 7.343078,3.855435 0,0 -0.616241,-9.783081 -8.35569,-8.493022 -7.739449,1.290027 -7.400668,10.287824 -7.400668,10.287824 0,0 -0.0076,3.980007 3.718052,5.998065 3.094897,1.782002 4.873641,-0.143719 5.178274,-0.447568 0.304678,-0.303885 6.589865,-8.176287 5.57933,6.782489 z"
         sodipodi:nodetypes="ccccccsccccsc" />
      <path
         style="fill:url(#linearGradient42);fill-opacity:1;stroke-width:0.612762;stroke-linecap:round;stroke-linejoin:round"
         d="m 46.244423,30.64678 c -1.137529,0.986703 -3.835053,0.625698 -4.737776,-1.458573 0.397296,1.01649 1.391015,0.07464 2.509164,-1.071278 l 0.987351,-1.026984 3.08451,1.779444 c -0.363619,0.259135 -0.747753,0.588879 -1.15806,1.008626 z"
         id="path118-6-3"
         sodipodi:nodetypes="ccccccc" />
      <path
         style="fill:url(#linearGradient43);fill-opacity:1;stroke-width:0.612762;stroke-linecap:round;stroke-linejoin:round"
         d="M 51.733198,30.477308 C 50.832688,26.558151 47.989216,23.83638 45.49253,26.584993 l 2.454638,2.387251 c 2.642375,-1.716705 3.231019,-0.132831 3.78603,1.505064 z"
         id="path119-1-2"
         sodipodi:nodetypes="cccc" />
      <path
         id="path120-0-0"
         style="fill:url(#linearGradient44);fill-opacity:1;stroke-width:0.287501"
         class="cls-2"
         d="m 33.351208,24.129255 c -1.835834,-0.03004 -3.157462,1.753217 -2.594657,3.500908 0,0 1.567245,6.204831 9.953228,6.403568 0,0 -4.844163,-3.468754 -4.73068,-7.429452 -0.105537,-1.379762 -1.244294,-2.452247 -2.627891,-2.475024 z"
         sodipodi:nodetypes="ccccc" />
      <path
         class="cls-3"
         d="m 32.118756,23.43419 c 0.577863,0.03309 1.120076,-0.196014 1.634282,-0.438696 0.668646,-0.354685 1.299107,-0.885023 1.605423,-1.594399 a 1.9855738,1.9855738 0 0 0 0.110238,-1.691984 c -0.156972,-0.467537 -0.571919,-0.771316 -0.920659,-1.093763 -0.666947,-0.408139 -1.478993,-0.654216 -2.263047,-0.522694 -0.464152,-0.02631 -0.900297,0.107766 -1.315229,0.272377 a 3.9465402,3.9465402 0 0 0 -1.951637,1.619009 c -0.229104,0.497241 -0.478572,1.076793 -0.248619,1.619008 0.195168,0.756046 0.827331,1.317773 1.534158,1.606276 0.572752,0.207043 1.201518,0.33602 1.815014,0.224866 z"
         id="path146-6-6"
         style="fill:url(#linearGradient89-7);stroke-width:0.320351" />
      <path
         class="cls-4"
         d="m 38.96899,32.089252 c -1.148083,-1.108191 -2.229962,-2.393718 -2.639798,-3.960968 -0.194319,-0.747561 -0.169709,-1.531603 -0.229953,-2.302073 -0.207891,-0.623674 -0.630464,-1.229532 -1.290634,-1.447603 -0.424254,-0.241835 -0.922341,-0.279165 -1.394985,-0.356383 -0.923209,0.02461 -1.882901,0.45481 -2.340259,1.294012 -0.183281,0.351297 -0.236747,0.758591 -0.284254,1.148072 0.05853,1.073395 0.523547,2.088248 1.075086,3.002117 0.509126,0.77217 1.116679,1.494273 1.861687,2.062789 0.424272,0.440392 0.985152,0.700892 1.497672,1.02249 a 8.8247726,8.8247726 0 0 0 3.032666,1.078489 17.378013,17.378013 0 0 0 2.64318,0.294442 c -0.569356,-0.69665 -1.357656,-1.159102 -1.930408,-1.835384 z"
         id="path147-3-1"
         style="fill:url(#linearGradient90-5);stroke-width:0.320351" />
      <path
         id="path148-2-5"
         style="fill:url(#linearGradient91-9);fill-opacity:1;stroke-width:0.287501"
         class="cls-2"
         d="m 46.286865,14.515032 c -0.429564,-7.38e-4 -0.883587,0.03524 -1.367132,0.117486 -7.737145,1.290772 -7.402913,10.287824 -7.402913,10.287824 0,0 -0.0076,3.983838 3.715869,5.998059 3.094852,1.782002 4.873641,-0.146069 5.178274,-0.449792 0.304663,-0.303892 6.592822,-8.176134 5.581514,6.778055 0,0 2.214524,-2.409273 2.353148,-8.147385 0.138594,-5.738157 -3.547464,-6.086724 -3.547464,-6.086724 0,0 -1.630764,-0.408947 -4.86806,3.088789 -3.237236,3.497704 -3.463232,3.341375 -3.463232,3.341375 0,0 -0.91408,0.644148 -1.021468,-0.97718 -0.107356,-1.621282 -0.458374,-6.535379 4.4847,-9.195432 4.943119,-2.660021 7.343077,3.855427 7.343077,3.855427 0,0 -0.543229,-8.599141 -6.986313,-8.610459 z m -13.864067,3.718059 a 2.6272836,3.5038063 77.92 0 0 -0.986031,0.101807 2.6272836,3.5038063 77.92 0 0 -2.876059,3.303696 2.6272836,3.5038063 77.92 0 0 3.975103,1.83467 2.6272836,3.5038063 77.92 0 0 2.876055,-3.3015 2.6272836,3.5038063 77.92 0 0 -2.989068,-1.938797 z m -16.37678,1.099 c 0,0 -2.212336,2.412248 -2.350928,8.149617 -0.138624,5.73737 3.547476,6.091144 3.547476,6.091144 0,0 1.62853,0.408954 4.865812,-3.088781 3.237278,-3.497706 3.465472,-3.341377 3.465472,-3.341377 0,0 0.914081,-0.644152 1.021468,0.977174 0.107357,1.62129 0.456919,6.535423 -4.48694,9.195438 -4.94386,2.660015 -7.343064,-3.855427 -7.343064,-3.855427 0,0 0.616227,9.783074 8.355678,8.49301 7.739444,-1.290023 7.400678,-10.287818 7.400678,-10.287818 0,0 0.0076,-3.980002 -3.718067,-5.998065 -3.09489,-1.781996 -4.87364,0.143719 -5.178269,0.447568 -0.304671,0.303891 -6.589854,8.176287 -5.579316,-6.782483 z m 17.30519,4.797164 a 2.6798294,2.6798294 0 0 0 -2.594657,3.500908 c 0,0 1.567245,6.204831 9.953228,6.403568 0,0 -4.844163,-3.468754 -4.73068,-7.429452 a 2.6798294,2.6798294 0 0 0 -2.627891,-2.475024 z" />
      <path
         id="path149-0-5"
         style="fill:url(#linearGradient92-7);fill-opacity:1;stroke-width:0.287501"
         class="cls-2"
         d="m 15.998178,19.387649 c 0,0 -2.212332,2.412249 -2.350923,8.149618 -0.138624,5.73737 3.547473,6.091144 3.547473,6.091144 0,0 1.628532,0.408954 4.865817,-3.088788 3.237286,-3.497699 3.465465,-3.34137 3.465465,-3.34137 0,0 0.914095,-0.644152 1.021467,0.977168 0.107357,1.621288 0.456935,6.535428 -4.486932,9.195444 -4.943861,2.660021 -7.34307,-3.855433 -7.34307,-3.855433 0,0 0.61623,9.783086 8.355681,8.493021 7.739455,-1.290028 7.400674,-10.287823 7.400674,-10.287823 0,0 0.0076,-3.980008 -3.718053,-5.998065 -3.0949,-1.782002 -4.87365,0.143719 -5.178279,0.447568 -0.304668,0.303884 -6.589857,8.176287 -5.57932,-6.782484 z"
         sodipodi:nodetypes="ccccccsccccsc" />
      <path
         style="fill:url(#linearGradient93-3);fill-opacity:1;stroke-width:0.612762;stroke-linecap:round;stroke-linejoin:round"
         d="m 21.715846,26.057029 c 1.137543,-0.986703 3.835047,-0.625691 4.737785,1.458573 -0.397296,-1.016482 -1.391024,-0.07463 -2.509172,1.071285 l -0.987347,1.026977 -3.084505,-1.779444 c 0.36361,-0.259134 0.747744,-0.588877 1.15805,-1.008626 z"
         id="path150-6-4"
         sodipodi:nodetypes="ccccccc" />
      <path
         style="fill:url(#linearGradient94-0);fill-opacity:1;stroke-width:0.612762;stroke-linecap:round;stroke-linejoin:round"
         d="m 16.227082,26.226503 c 0.9005,3.919155 3.743972,6.640926 6.240671,3.892315 l -2.454638,-2.387253 c -2.642391,1.716712 -3.231022,0.132847 -3.786033,-1.505062 z"
         id="path151-1-7"
         sodipodi:nodetypes="cccc" />
      <path
         id="path152-5-6"
         style="fill:url(#linearGradient95-2);fill-opacity:1;stroke-width:0.287501"
         class="cls-2"
         d="m 32.441904,18.23408 c -0.327727,-0.002 -0.65976,0.03224 -0.986016,0.101822 -1.892939,0.405134 -3.180828,1.884525 -2.876074,3.303702 0.304466,1.417965 2.08374,2.239166 3.975102,1.83467 1.89162,-0.405049 3.179067,-1.882945 2.876071,-3.301506 -0.243812,-1.140462 -1.461036,-1.929983 -2.989083,-1.938799 z"
         sodipodi:nodetypes="ccccccc" />
      <path
         id="path153-5-5"
         style="fill:url(#linearGradient96-8);fill-opacity:1;stroke-width:0.287501"
         class="cls-2"
         d="m 51.962104,37.316167 c 0,0 2.212326,-2.412255 2.35092,-8.149617 0.138594,-5.73737 -3.547479,-6.091152 -3.547479,-6.091152 0,0 -1.628535,-0.408953 -4.865817,3.088789 -3.237281,3.497699 -3.46546,3.341369 -3.46546,3.341369 0,0 -0.914096,0.644154 -1.021468,-0.977166 -0.107357,-1.62129 -0.456934,-6.535429 4.486928,-9.195446 4.943863,-2.660015 7.343078,3.855435 7.343078,3.855435 0,0 -0.616241,-9.783081 -8.35569,-8.493022 -7.739449,1.290027 -7.400668,10.287824 -7.400668,10.287824 0,0 -0.0076,3.980007 3.718052,5.998065 3.094897,1.782002 4.873641,-0.143719 5.178274,-0.447568 0.304678,-0.303885 6.589865,-8.176287 5.57933,6.782489 z"
         sodipodi:nodetypes="ccccccsccccsc" />
      <path
         style="fill:url(#linearGradient97-9);fill-opacity:1;stroke-width:0.612762;stroke-linecap:round;stroke-linejoin:round"
         d="m 46.244423,30.64678 c -1.137529,0.986703 -3.835053,0.625698 -4.737776,-1.458573 0.397296,1.01649 1.391015,0.07464 2.509164,-1.071278 l 0.987351,-1.026984 3.08451,1.779444 c -0.363619,0.259135 -0.747753,0.588879 -1.15806,1.008626 z"
         id="path154-4-6"
         sodipodi:nodetypes="ccccccc" />
      <path
         style="fill:url(#linearGradient98-0);fill-opacity:1;stroke-width:0.612762;stroke-linecap:round;stroke-linejoin:round"
         d="M 51.733198,30.477308 C 50.832688,26.558151 47.989216,23.83638 45.49253,26.584993 l 2.454638,2.387251 c 2.642375,-1.716705 3.231019,-0.132831 3.78603,1.505064 z"
         id="path155-7-9"
         sodipodi:nodetypes="cccc" />
      <path
         id="path156-6-3"
         style="fill:url(#linearGradient99-3);fill-opacity:1;stroke-width:0.287501"
         class="cls-2"
         d="m 33.351208,24.129255 c -1.835834,-0.03004 -3.157462,1.753217 -2.594657,3.500908 0,0 1.567245,6.204831 9.953228,6.403568 0,0 -4.844163,-3.468754 -4.73068,-7.429452 -0.105537,-1.379762 -1.244294,-2.452247 -2.627891,-2.475024 z"
         sodipodi:nodetypes="ccccc" />
    </g>
  </g>
</svg>
