<?xml version="1.0" encoding="UTF-8" standalone="no"?>
<!-- Created with Inkscape (http://www.inkscape.org/) -->

<svg
   width="256"
   height="256"
   viewBox="0 0 67.733332 67.733333"
   version="1.1"
   id="svg1"
   inkscape:version="1.3 (0e150ed6c4, 2023-07-21)"
   sodipodi:docname="logo.svg"
   xmlns:inkscape="http://www.inkscape.org/namespaces/inkscape"
   xmlns:sodipodi="http://sodipodi.sourceforge.net/DTD/sodipodi-0.dtd"
   xmlns:xlink="http://www.w3.org/1999/xlink"
   xmlns="http://www.w3.org/2000/svg"
   xmlns:svg="http://www.w3.org/2000/svg">
  <sodipodi:namedview
     id="namedview1"
     pagecolor="#ffffff"
     bordercolor="#000000"
     borderopacity="0.25"
     inkscape:showpageshadow="2"
     inkscape:pageopacity="0.0"
     inkscape:pagecheckerboard="0"
     inkscape:deskcolor="#d1d1d1"
     inkscape:document-units="mm"
     inkscape:zoom="2.054307"
     inkscape:cx="202.25799"
     inkscape:cy="190.08844"
     inkscape:window-width="3440"
     inkscape:window-height="1358"
     inkscape:window-x="2560"
     inkscape:window-y="0"
     inkscape:window-maximized="1"
     inkscape:current-layer="layer1" />
  <defs
     id="defs1">
    <linearGradient
       inkscape:collect="always"
       xlink:href="#linear-gradient-35"
       id="linearGradient89"
       gradientUnits="userSpaceOnUse"
       gradientTransform="matrix(0.05595944,0,0,-0.05595944,83.553132,126.44536)"
       x1="70.739998"
       y1="207.69"
       x2="304.39001"
       y2="456.44" />
    <linearGradient
       id="linear-gradient-35"
       x1="70.739998"
       y1="207.69"
       x2="304.39001"
       y2="456.44"
       gradientTransform="matrix(1,0,0,-1,16.81,529.63)"
       gradientUnits="userSpaceOnUse">
      <stop
         offset="0"
         stop-color="#2d85c6"
         id="stop369" />
      <stop
         offset="1"
         stop-color="#04bacc"
         id="stop371" />
    </linearGradient>
    <linearGradient
       inkscape:collect="always"
       xlink:href="#linear-gradient-35"
       id="linearGradient90"
       gradientTransform="matrix(0.05595944,0,0,0.05595944,82.612454,96.807558)"
       x1="146.39"
       y1="136.63"
       x2="380.04001"
       y2="385.38" />
    <linearGradient
       inkscape:collect="always"
       xlink:href="#linearGradient14872"
       id="linearGradient91"
       gradientUnits="userSpaceOnUse"
       gradientTransform="matrix(0.1348514,0,0,0.1348514,71.631,94.079846)"
       x1="328.03387"
       y1="201.04596"
       x2="284.53772"
       y2="38.716057" />
    <linearGradient
       inkscape:collect="always"
       id="linearGradient14872">
      <stop
         style="stop-color:#283efd;stop-opacity:1;"
         offset="0"
         id="stop14868" />
      <stop
         style="stop-color:#10f3ff;stop-opacity:1;"
         offset="1"
         id="stop14870" />
    </linearGradient>
    <linearGradient
       inkscape:collect="always"
       xlink:href="#linearGradient3753"
       id="linearGradient92"
       gradientUnits="userSpaceOnUse"
       gradientTransform="matrix(0.1348514,0,0,0.1348514,71.619386,94.122722)"
       x1="102.5537"
       y1="201.07986"
       x2="161.90266"
       y2="130.75484" />
    <linearGradient
       inkscape:collect="always"
       id="linearGradient3753">
      <stop
         style="stop-color:#000000;stop-opacity:1;"
         offset="0"
         id="stop3749" />
      <stop
         style="stop-color:#000000;stop-opacity:0;"
         offset="1"
         id="stop3751" />
    </linearGradient>
    <linearGradient
       inkscape:collect="always"
       xlink:href="#linearGradient3753"
       id="linearGradient93"
       gradientUnits="userSpaceOnUse"
       gradientTransform="matrix(0.1348514,0,0,0.1348514,71.619386,94.122722)"
       x1="136.71155"
       y1="112.77216"
       x2="127.96666"
       y2="124.48015" />
    <linearGradient
       inkscape:collect="always"
       xlink:href="#linearGradient3753"
       id="linearGradient94"
       gradientUnits="userSpaceOnUse"
       gradientTransform="matrix(0.1348514,0,0,0.1348514,71.619386,94.122722)"
       x1="108.50922"
       y1="138.97209"
       x2="115.03763"
       y2="130.46425" />
    <linearGradient
       inkscape:collect="always"
       xlink:href="#linearGradient4025"
       id="linearGradient95"
       gradientUnits="userSpaceOnUse"
       gradientTransform="matrix(0.16145699,0,0,0.16145699,79.923985,86.209665)"
       x1="89.06459"
       y1="139.31154"
       x2="105.55106"
       y2="114.01978" />
    <linearGradient
       inkscape:collect="always"
       id="linearGradient4025">
      <stop
         style="stop-color:#091f2d;stop-opacity:1;"
         offset="0"
         id="stop4021" />
      <stop
         style="stop-color:#091f2d;stop-opacity:0;"
         offset="1"
         id="stop4023" />
    </linearGradient>
    <linearGradient
       inkscape:collect="always"
       xlink:href="#linearGradient3753"
       id="linearGradient96"
       gradientUnits="userSpaceOnUse"
       gradientTransform="matrix(-0.1348514,0,0,-0.1348514,121.8915,128.38597)"
       x1="180.99303"
       y1="52.836334"
       x2="107.37358"
       y2="184.64915" />
    <linearGradient
       inkscape:collect="always"
       xlink:href="#linearGradient3753"
       id="linearGradient97"
       gradientUnits="userSpaceOnUse"
       gradientTransform="matrix(-0.1348514,0,0,-0.1348514,121.8915,128.38597)"
       x1="136.71155"
       y1="112.77216"
       x2="127.96666"
       y2="124.48015" />
    <linearGradient
       inkscape:collect="always"
       xlink:href="#linearGradient3753"
       id="linearGradient98"
       gradientUnits="userSpaceOnUse"
       gradientTransform="matrix(-0.1348514,0,0,-0.1348514,121.8915,128.38597)"
       x1="108.50922"
       y1="138.97209"
       x2="115.03763"
       y2="130.46425" />
    <linearGradient
       inkscape:collect="always"
       xlink:href="#linearGradient4754"
       id="linearGradient99"
       gradientUnits="userSpaceOnUse"
       gradientTransform="matrix(0.16145699,0,0,0.16145699,81.305955,102.72278)"
       x1="93.887825"
       y1="67.032059"
       x2="105.47661"
       y2="46.598228" />
    <linearGradient
       inkscape:collect="always"
       id="linearGradient4754">
      <stop
         style="stop-color:#134865;stop-opacity:1;"
         offset="0"
         id="stop4750" />
      <stop
         style="stop-color:#134865;stop-opacity:0;"
         offset="1"
         id="stop4752" />
    </linearGradient>
    <linearGradient
       inkscape:collect="always"
       xlink:href="#linear-gradient-35"
       id="linearGradient1"
       gradientUnits="userSpaceOnUse"
       gradientTransform="matrix(0.05595944,0,0,-0.05595944,83.553132,126.44536)"
       x1="70.739998"
       y1="207.69"
       x2="304.39001"
       y2="456.44" />
    <linearGradient
       inkscape:collect="always"
       xlink:href="#linear-gradient-35"
       id="linearGradient2"
       gradientTransform="matrix(0.05595944,0,0,0.05595944,82.612454,96.807558)"
       x1="146.39"
       y1="136.63"
       x2="380.04001"
       y2="385.38" />
    <linearGradient
       inkscape:collect="always"
       xlink:href="#linearGradient14872"
       id="linearGradient3"
       gradientUnits="userSpaceOnUse"
       gradientTransform="matrix(0.1348514,0,0,0.1348514,71.631,94.079846)"
       x1="328.03387"
       y1="201.04596"
       x2="284.53772"
       y2="38.716057" />
    <linearGradient
       inkscape:collect="always"
       xlink:href="#linearGradient3753"
       id="linearGradient4"
       gradientUnits="userSpaceOnUse"
       gradientTransform="matrix(0.1348514,0,0,0.1348514,71.619386,94.122722)"
       x1="102.5537"
       y1="201.07986"
       x2="161.90266"
       y2="130.75484" />
    <linearGradient
       inkscape:collect="always"
       xlink:href="#linearGradient3753"
       id="linearGradient5"
       gradientUnits="userSpaceOnUse"
       gradientTransform="matrix(0.1348514,0,0,0.1348514,71.619386,94.122722)"
       x1="136.71155"
       y1="112.77216"
       x2="127.96666"
       y2="124.48015" />
    <linearGradient
       inkscape:collect="always"
       xlink:href="#linearGradient3753"
       id="linearGradient6"
       gradientUnits="userSpaceOnUse"
       gradientTransform="matrix(0.1348514,0,0,0.1348514,71.619386,94.122722)"
       x1="108.50922"
       y1="138.97209"
       x2="115.03763"
       y2="130.46425" />
    <linearGradient
       inkscape:collect="always"
       xlink:href="#linearGradient4025"
       id="linearGradient7"
       gradientUnits="userSpaceOnUse"
       gradientTransform="matrix(0.16145699,0,0,0.16145699,79.923985,86.209665)"
       x1="89.06459"
       y1="139.31154"
       x2="105.55106"
       y2="114.01978" />
    <linearGradient
       inkscape:collect="always"
       xlink:href="#linearGradient3753"
       id="linearGradient8"
       gradientUnits="userSpaceOnUse"
       gradientTransform="matrix(-0.1348514,0,0,-0.1348514,121.8915,128.38597)"
       x1="180.99303"
       y1="52.836334"
       x2="107.37358"
       y2="184.64915" />
    <linearGradient
       inkscape:collect="always"
       xlink:href="#linearGradient3753"
       id="linearGradient9"
       gradientUnits="userSpaceOnUse"
       gradientTransform="matrix(-0.1348514,0,0,-0.1348514,121.8915,128.38597)"
       x1="136.71155"
       y1="112.77216"
       x2="127.96666"
       y2="124.48015" />
    <linearGradient
       inkscape:collect="always"
       xlink:href="#linearGradient3753"
       id="linearGradient10"
       gradientUnits="userSpaceOnUse"
       gradientTransform="matrix(-0.1348514,0,0,-0.1348514,121.8915,128.38597)"
       x1="108.50922"
       y1="138.97209"
       x2="115.03763"
       y2="130.46425" />
    <linearGradient
       inkscape:collect="always"
       xlink:href="#linearGradient4754"
       id="linearGradient11"
       gradientUnits="userSpaceOnUse"
       gradientTransform="matrix(0.16145699,0,0,0.16145699,81.305955,102.72278)"
       x1="93.887825"
       y1="67.032059"
       x2="105.47661"
       y2="46.598228" />
    <linearGradient
       inkscape:collect="always"
       xlink:href="#linear-gradient-35"
       id="linearGradient12"
       gradientUnits="userSpaceOnUse"
       gradientTransform="matrix(0.05595944,0,0,-0.05595944,83.553132,126.44536)"
       x1="70.739998"
       y1="207.69"
       x2="304.39001"
       y2="456.44" />
    <linearGradient
       inkscape:collect="always"
       xlink:href="#linear-gradient-35"
       id="linearGradient13"
       gradientTransform="matrix(0.05595944,0,0,0.05595944,82.612454,96.807558)"
       x1="146.39"
       y1="136.63"
       x2="380.04001"
       y2="385.38" />
    <linearGradient
       inkscape:collect="always"
       xlink:href="#linearGradient14872"
       id="linearGradient14"
       gradientUnits="userSpaceOnUse"
       gradientTransform="matrix(0.1348514,0,0,0.1348514,71.631,94.079846)"
       x1="328.03387"
       y1="201.04596"
       x2="284.53772"
       y2="38.716057" />
    <linearGradient
       inkscape:collect="always"
       xlink:href="#linearGradient3753"
       id="linearGradient15"
       gradientUnits="userSpaceOnUse"
       gradientTransform="matrix(0.1348514,0,0,0.1348514,71.619386,94.122722)"
       x1="102.5537"
       y1="201.07986"
       x2="161.90266"
       y2="130.75484" />
    <linearGradient
       inkscape:collect="always"
       xlink:href="#linearGradient3753"
       id="linearGradient16"
       gradientUnits="userSpaceOnUse"
       gradientTransform="matrix(0.1348514,0,0,0.1348514,71.619386,94.122722)"
       x1="136.71155"
       y1="112.77216"
       x2="127.96666"
       y2="124.48015" />
    <linearGradient
       inkscape:collect="always"
       xlink:href="#linearGradient3753"
       id="linearGradient17"
       gradientUnits="userSpaceOnUse"
       gradientTransform="matrix(0.1348514,0,0,0.1348514,71.619386,94.122722)"
       x1="108.50922"
       y1="138.97209"
       x2="115.03763"
       y2="130.46425" />
    <linearGradient
       inkscape:collect="always"
       xlink:href="#linearGradient4025"
       id="linearGradient18"
       gradientUnits="userSpaceOnUse"
       gradientTransform="matrix(0.16145699,0,0,0.16145699,79.923985,86.209665)"
       x1="89.06459"
       y1="139.31154"
       x2="105.55106"
       y2="114.01978" />
    <linearGradient
       inkscape:collect="always"
       xlink:href="#linearGradient3753"
       id="linearGradient19"
       gradientUnits="userSpaceOnUse"
       gradientTransform="matrix(-0.1348514,0,0,-0.1348514,121.8915,128.38597)"
       x1="180.99303"
       y1="52.836334"
       x2="107.37358"
       y2="184.64915" />
    <linearGradient
       inkscape:collect="always"
       xlink:href="#linearGradient3753"
       id="linearGradient20"
       gradientUnits="userSpaceOnUse"
       gradientTransform="matrix(-0.1348514,0,0,-0.1348514,121.8915,128.38597)"
       x1="136.71155"
       y1="112.77216"
       x2="127.96666"
       y2="124.48015" />
    <linearGradient
       inkscape:collect="always"
       xlink:href="#linearGradient3753"
       id="linearGradient21"
       gradientUnits="userSpaceOnUse"
       gradientTransform="matrix(-0.1348514,0,0,-0.1348514,121.8915,128.38597)"
       x1="108.50922"
       y1="138.97209"
       x2="115.03763"
       y2="130.46425" />
    <linearGradient
       inkscape:collect="always"
       xlink:href="#linearGradient4754"
       id="linearGradient22"
       gradientUnits="userSpaceOnUse"
       gradientTransform="matrix(0.16145699,0,0,0.16145699,81.305955,102.72278)"
       x1="93.887825"
       y1="67.032059"
       x2="105.47661"
       y2="46.598228" />
  </defs>
  <g
     inkscape:label="Camada 1"
     inkscape:groupmode="layer"
     id="layer1">
    <g
       id="g22"
       transform="matrix(2.3014723,0,0,2.3014723,-188.83804,-222.13424)"
       style="stroke-width:0.434504">
      <path
         class="cls-3"
         d="m 95.527893,108.0112 c 0.38109,0.0218 0.73867,-0.12927 1.07778,-0.28931 0.44096,-0.23391 0.85674,-0.58366 1.05875,-1.05148 a 1.3094509,1.3094509 0 0 0 0.0727,-1.11583 c -0.10352,-0.30834 -0.37717,-0.50867 -0.60716,-0.72132 -0.43984,-0.26916 -0.97537,-0.43144 -1.49244,-0.34471 -0.3061,-0.0174 -0.59373,0.0711 -0.86737,0.17963 a 2.6026736,2.6026736 0 0 0 -1.28707,1.06771 c -0.15109,0.32792 -0.31561,0.71012 -0.16396,1.0677 0.12871,0.4986 0.54561,0.86905 1.01175,1.05931 0.37772,0.13655 0.79238,0.2216 1.19697,0.1483 z"
         id="path74-2"
         style="fill:url(#linearGradient1);stroke-width:0.158672" />
      <path
         class="cls-4"
         d="m 100.0455,113.71906 c -0.757137,-0.73083 -1.470617,-1.57861 -1.740897,-2.61219 -0.12815,-0.493 -0.11192,-1.01006 -0.15165,-1.51817 -0.1371,-0.41131 -0.41578,-0.81086 -0.85115,-0.95467 -0.27979,-0.15949 -0.60827,-0.18411 -0.91997,-0.23503 -0.60884,0.0162 -1.24174,0.29994 -1.54336,0.85338 -0.12087,0.23167 -0.15613,0.50027 -0.18746,0.75713 0.0386,0.70788 0.34527,1.37716 0.709,1.97984 0.33576,0.50924 0.73643,0.98545 1.22775,1.36038 0.2798,0.29043 0.64969,0.46222 0.98769,0.67431 a 5.8197818,5.8197818 0 0 0 1.99999,0.71125 11.460493,11.460493 0 0 0 1.743127,0.19417 c -0.37548,-0.45942 -0.89535,-0.7644 -1.27307,-1.2104 z"
         id="path75-8"
         style="fill:url(#linearGradient2);stroke-width:0.158672" />
      <path
         id="path76-9"
         style="fill:url(#linearGradient3);fill-opacity:1;stroke-width:0.142402"
         class="cls-2"
         d="m 104.87151,102.12917 c -0.28329,-4.8e-4 -0.58271,0.0232 -0.9016,0.0775 -5.102507,0.85124 -4.882087,6.78464 -4.882087,6.78464 0,0 -0.005,2.62727 2.450547,3.95561 2.041,1.1752 3.21408,-0.0963 3.41498,-0.29663 0.20092,-0.20041 4.34785,-5.39201 3.68091,4.47001 0,0 1.46044,-1.58887 1.55186,-5.37305 0.0914,-3.78422 -2.33949,-4.01409 -2.33949,-4.01409 0,0 -1.07546,-0.26969 -3.2104,2.037 -2.1349,2.30667 -2.28394,2.20358 -2.28394,2.20358 0,0 -0.60282,0.4248 -0.67364,-0.64443 -0.0708,-1.06921 -0.30229,-4.30997 2.95758,-6.06423 3.2599,-1.75424 4.84263,2.54259 4.84263,2.54259 0,0 -0.35825,-5.67099 -4.60735,-5.67845 z m -9.143107,2.452 a 1.7326472,2.3106984 77.92 0 0 -0.65027,0.0671 1.7326472,2.3106984 77.92 0 0 -1.89671,2.17873 1.7326472,2.3106984 77.92 0 0 2.62151,1.20993 1.7326472,2.3106984 77.92 0 0 1.89671,-2.17728 1.7326472,2.3106984 77.92 0 0 -1.97124,-1.2786 z m -10.800197,0.72477 c 0,0 -1.458997,1.59083 -1.550396,5.37453 -0.09142,3.78369 2.339498,4.017 2.339498,4.017 0,0 1.073987,0.2697 3.208917,-2.037 2.134928,-2.30667 2.285418,-2.20358 2.285418,-2.20358 0,0 0.60282,-0.4248 0.67364,0.64443 0.0708,1.06921 0.30133,4.31 -2.959058,6.06423 -3.260388,1.75423 -4.842621,-2.54259 -4.842621,-2.54259 0,0 0.406391,6.45177 5.510422,5.60099 5.104027,-0.85074 4.880617,-6.78463 4.880617,-6.78463 0,0 0.005,-2.62474 -2.452,-3.95562 -2.041025,-1.17519 -3.214079,0.0948 -3.414977,0.29517 -0.200925,0.20041 -4.345892,5.39211 -3.67946,-4.47293 z m 11.412467,3.16364 a 1.7673002,1.7673002 0 0 0 -1.71113,2.30879 c 0,0 1.03357,4.09198 6.563977,4.22304 0,0 -3.194637,-2.28758 -3.119797,-4.89959 a 1.7673002,1.7673002 0 0 0 -1.73305,-1.63224 z" />
      <path
         id="path77-7"
         style="fill:url(#linearGradient4);fill-opacity:1;stroke-width:0.142402"
         class="cls-2"
         d="m 84.896656,105.34258 c 0,0 -1.458994,1.59083 -1.550392,5.37453 -0.09142,3.78369 2.339496,4.017 2.339496,4.017 0,0 1.073988,0.2697 3.20892,-2.037 2.134933,-2.30667 2.285413,-2.20358 2.285413,-2.20358 0,0 0.60283,-0.4248 0.67364,0.64443 0.0708,1.06921 0.30134,4.31 -2.959053,6.06423 -3.260389,1.75424 -4.842625,-2.54259 -4.842625,-2.54259 0,0 0.406393,6.45177 5.510424,5.601 5.104034,-0.85075 4.880614,-6.78464 4.880614,-6.78464 0,0 0.005,-2.62474 -2.45199,-3.95562 -2.041032,-1.1752 -3.214086,0.0948 -3.414984,0.29517 -0.200923,0.2004 -4.345894,5.39211 -3.679463,-4.47293 z"
         sodipodi:nodetypes="ccccccsccccsc" />
      <path
         style="fill:url(#linearGradient5);fill-opacity:1;stroke-width:0.303506;stroke-linecap:round;stroke-linejoin:round"
         d="m 88.667357,109.74092 c 0.75019,-0.65072 2.529146,-0.41264 3.124486,0.9619 -0.26201,-0.67035 -0.917356,-0.0492 -1.654755,0.70649 l -0.651138,0.67728 -2.034176,-1.17352 c 0.239794,-0.17089 0.493124,-0.38835 0.763713,-0.66517 z"
         id="path78-3"
         sodipodi:nodetypes="ccccccc" />
      <path
         style="fill:url(#linearGradient6);fill-opacity:1;stroke-width:0.303506;stroke-linecap:round;stroke-linejoin:round"
         d="m 85.047614,109.85268 c 0.593864,2.58462 2.469084,4.37957 4.115613,2.56691 l -1.618791,-1.57435 c -1.74261,1.13214 -2.130802,0.0876 -2.496822,-0.99256 z"
         id="path79-6"
         sodipodi:nodetypes="cccc" />
      <path
         id="path80-1"
         style="fill:url(#linearGradient7);fill-opacity:1;stroke-width:0.142402"
         class="cls-2"
         d="m 95.741003,104.58182 c -0.21613,-10e-4 -0.4351,0.0213 -0.65026,0.0672 -1.24836,0.26718 -2.0977,1.24281 -1.89672,2.17873 0.20079,0.93512 1.37419,1.47669 2.62151,1.20993 1.24749,-0.26712 2.09654,-1.24176 1.89672,-2.17728 -0.16079,-0.75212 -0.96353,-1.27279 -1.97125,-1.2786 z"
         sodipodi:nodetypes="ccccccc" />
      <path
         id="path81-2"
         style="fill:url(#linearGradient8);fill-opacity:1;stroke-width:0.142402"
         class="cls-2"
         d="m 108.61423,117.16612 c 0,0 1.45899,-1.59084 1.55039,-5.37453 0.0914,-3.78369 -2.3395,-4.01701 -2.3395,-4.01701 0,0 -1.07399,-0.26969 -3.20892,2.037 -2.13493,2.30668 -2.28541,2.20358 -2.28541,2.20358 0,0 -0.60283,0.42481 -0.67364,-0.64443 -0.0708,-1.06921 -0.30134,-4.31 2.95905,-6.06423 3.26039,-1.75423 4.84263,2.54259 4.84263,2.54259 0,0 -0.4064,-6.45177 -5.51043,-5.601 -5.104027,0.85075 -4.880607,6.78464 -4.880607,6.78464 0,0 -0.005,2.62475 2.451987,3.95562 2.04103,1.1752 3.21408,-0.0948 3.41498,-0.29516 0.20093,-0.20041 4.3459,-5.39212 3.67947,4.47293 z"
         sodipodi:nodetypes="ccccccsccccsc" />
      <path
         style="fill:url(#linearGradient9);fill-opacity:1;stroke-width:0.303506;stroke-linecap:round;stroke-linejoin:round"
         d="m 104.84352,112.76778 c -0.75018,0.65071 -2.52915,0.41263 -3.12448,-0.96191 0.26201,0.67036 0.91735,0.0492 1.65475,-0.70649 l 0.65114,-0.67727 2.03418,1.17351 c -0.2398,0.17089 -0.49313,0.38835 -0.76372,0.66517 z"
         id="path82-9"
         sodipodi:nodetypes="ccccccc" />
      <path
         style="fill:url(#linearGradient10);fill-opacity:1;stroke-width:0.303506;stroke-linecap:round;stroke-linejoin:round"
         d="m 108.46327,112.65601 c -0.59387,-2.58461 -2.46909,-4.37957 -4.11561,-2.56691 l 1.61879,1.57435 c 1.7426,-1.13214 2.1308,-0.0876 2.49682,0.99256 z"
         id="path83-3"
         sodipodi:nodetypes="cccc" />
      <path
         id="path84-1"
         style="fill:url(#linearGradient11);fill-opacity:1;stroke-width:0.142402"
         class="cls-2"
         d="m 96.340673,108.46958 c -1.2107,-0.0198 -2.08229,1.15622 -1.71113,2.30879 0,0 1.03357,4.09198 6.563977,4.22304 0,0 -3.194637,-2.28758 -3.119797,-4.89959 -0.0696,-0.90993 -0.82059,-1.61722 -1.73305,-1.63224 z"
         sodipodi:nodetypes="ccccc" />
      <path
         class="cls-3"
         d="m 95.527893,108.0112 c 0.38109,0.0218 0.73867,-0.12927 1.07778,-0.28931 0.44096,-0.23391 0.85674,-0.58366 1.05875,-1.05148 a 1.3094509,1.3094509 0 0 0 0.0727,-1.11583 c -0.10352,-0.30834 -0.37717,-0.50867 -0.60716,-0.72132 -0.43984,-0.26916 -0.97537,-0.43144 -1.49244,-0.34471 -0.3061,-0.0174 -0.59373,0.0711 -0.86737,0.17963 a 2.6026736,2.6026736 0 0 0 -1.28707,1.06771 c -0.15109,0.32792 -0.31561,0.71012 -0.16396,1.0677 0.12871,0.4986 0.54561,0.86905 1.01175,1.05931 0.37772,0.13655 0.79238,0.2216 1.19697,0.1483 z"
         id="path110-9"
         style="fill:url(#linearGradient12);stroke-width:0.158672" />
      <path
         class="cls-4"
         d="m 100.0455,113.71906 c -0.757137,-0.73083 -1.470617,-1.57861 -1.740897,-2.61219 -0.12815,-0.493 -0.11192,-1.01006 -0.15165,-1.51817 -0.1371,-0.41131 -0.41578,-0.81086 -0.85115,-0.95467 -0.27979,-0.15949 -0.60827,-0.18411 -0.91997,-0.23503 -0.60884,0.0162 -1.24174,0.29994 -1.54336,0.85338 -0.12087,0.23167 -0.15613,0.50027 -0.18746,0.75713 0.0386,0.70788 0.34527,1.37716 0.709,1.97984 0.33576,0.50924 0.73643,0.98545 1.22775,1.36038 0.2798,0.29043 0.64969,0.46222 0.98769,0.67431 a 5.8197818,5.8197818 0 0 0 1.99999,0.71125 11.460493,11.460493 0 0 0 1.743127,0.19417 c -0.37548,-0.45942 -0.89535,-0.7644 -1.27307,-1.2104 z"
         id="path111-4"
         style="fill:url(#linearGradient13);stroke-width:0.158672" />
      <path
         id="path112-7"
         style="fill:url(#linearGradient14);fill-opacity:1;stroke-width:0.142402"
         class="cls-2"
         d="m 104.87151,102.12917 c -0.28329,-4.8e-4 -0.58271,0.0232 -0.9016,0.0775 -5.102507,0.85124 -4.882087,6.78464 -4.882087,6.78464 0,0 -0.005,2.62727 2.450547,3.95561 2.041,1.1752 3.21408,-0.0963 3.41498,-0.29663 0.20092,-0.20041 4.34785,-5.39201 3.68091,4.47001 0,0 1.46044,-1.58887 1.55186,-5.37305 0.0914,-3.78422 -2.33949,-4.01409 -2.33949,-4.01409 0,0 -1.07546,-0.26969 -3.2104,2.037 -2.1349,2.30667 -2.28394,2.20358 -2.28394,2.20358 0,0 -0.60282,0.4248 -0.67364,-0.64443 -0.0708,-1.06921 -0.30229,-4.30997 2.95758,-6.06423 3.2599,-1.75424 4.84263,2.54259 4.84263,2.54259 0,0 -0.35825,-5.67099 -4.60735,-5.67845 z m -9.143107,2.452 a 1.7326472,2.3106984 77.92 0 0 -0.65027,0.0671 1.7326472,2.3106984 77.92 0 0 -1.89671,2.17873 1.7326472,2.3106984 77.92 0 0 2.62151,1.20993 1.7326472,2.3106984 77.92 0 0 1.89671,-2.17728 1.7326472,2.3106984 77.92 0 0 -1.97124,-1.2786 z m -10.800197,0.72477 c 0,0 -1.458997,1.59083 -1.550396,5.37453 -0.09142,3.78369 2.339498,4.017 2.339498,4.017 0,0 1.073987,0.2697 3.208917,-2.037 2.134928,-2.30667 2.285418,-2.20358 2.285418,-2.20358 0,0 0.60282,-0.4248 0.67364,0.64443 0.0708,1.06921 0.30133,4.31 -2.959058,6.06423 -3.260388,1.75423 -4.842621,-2.54259 -4.842621,-2.54259 0,0 0.406391,6.45177 5.510422,5.60099 5.104027,-0.85074 4.880617,-6.78463 4.880617,-6.78463 0,0 0.005,-2.62474 -2.452,-3.95562 -2.041025,-1.17519 -3.214079,0.0948 -3.414977,0.29517 -0.200925,0.20041 -4.345892,5.39211 -3.67946,-4.47293 z m 11.412467,3.16364 a 1.7673002,1.7673002 0 0 0 -1.71113,2.30879 c 0,0 1.03357,4.09198 6.563977,4.22304 0,0 -3.194637,-2.28758 -3.119797,-4.89959 a 1.7673002,1.7673002 0 0 0 -1.73305,-1.63224 z" />
      <path
         id="path113-8"
         style="fill:url(#linearGradient15);fill-opacity:1;stroke-width:0.142402"
         class="cls-2"
         d="m 84.896656,105.34258 c 0,0 -1.458994,1.59083 -1.550392,5.37453 -0.09142,3.78369 2.339496,4.017 2.339496,4.017 0,0 1.073988,0.2697 3.20892,-2.037 2.134933,-2.30667 2.285413,-2.20358 2.285413,-2.20358 0,0 0.60283,-0.4248 0.67364,0.64443 0.0708,1.06921 0.30134,4.31 -2.959053,6.06423 -3.260389,1.75424 -4.842625,-2.54259 -4.842625,-2.54259 0,0 0.406393,6.45177 5.510424,5.601 5.104034,-0.85075 4.880614,-6.78464 4.880614,-6.78464 0,0 0.005,-2.62474 -2.45199,-3.95562 -2.041032,-1.1752 -3.214086,0.0948 -3.414984,0.29517 -0.200923,0.2004 -4.345894,5.39211 -3.679463,-4.47293 z"
         sodipodi:nodetypes="ccccccsccccsc" />
      <path
         style="fill:url(#linearGradient16);fill-opacity:1;stroke-width:0.303506;stroke-linecap:round;stroke-linejoin:round"
         d="m 88.667357,109.74092 c 0.75019,-0.65072 2.529146,-0.41264 3.124486,0.9619 -0.26201,-0.67035 -0.917356,-0.0492 -1.654755,0.70649 l -0.651138,0.67728 -2.034176,-1.17352 c 0.239794,-0.17089 0.493124,-0.38835 0.763713,-0.66517 z"
         id="path114-4"
         sodipodi:nodetypes="ccccccc" />
      <path
         style="fill:url(#linearGradient17);fill-opacity:1;stroke-width:0.303506;stroke-linecap:round;stroke-linejoin:round"
         d="m 85.047614,109.85268 c 0.593864,2.58462 2.469084,4.37957 4.115613,2.56691 l -1.618791,-1.57435 c -1.74261,1.13214 -2.130802,0.0876 -2.496822,-0.99256 z"
         id="path115-5"
         sodipodi:nodetypes="cccc" />
      <path
         id="path116-0"
         style="fill:url(#linearGradient18);fill-opacity:1;stroke-width:0.142402"
         class="cls-2"
         d="m 95.741003,104.58182 c -0.21613,-10e-4 -0.4351,0.0213 -0.65026,0.0672 -1.24836,0.26718 -2.0977,1.24281 -1.89672,2.17873 0.20079,0.93512 1.37419,1.47669 2.62151,1.20993 1.24749,-0.26712 2.09654,-1.24176 1.89672,-2.17728 -0.16079,-0.75212 -0.96353,-1.27279 -1.97125,-1.2786 z"
         sodipodi:nodetypes="ccccccc" />
      <path
         id="path117-3"
         style="fill:url(#linearGradient19);fill-opacity:1;stroke-width:0.142402"
         class="cls-2"
         d="m 108.61423,117.16612 c 0,0 1.45899,-1.59084 1.55039,-5.37453 0.0914,-3.78369 -2.3395,-4.01701 -2.3395,-4.01701 0,0 -1.07399,-0.26969 -3.20892,2.037 -2.13493,2.30668 -2.28541,2.20358 -2.28541,2.20358 0,0 -0.60283,0.42481 -0.67364,-0.64443 -0.0708,-1.06921 -0.30134,-4.31 2.95905,-6.06423 3.26039,-1.75423 4.84263,2.54259 4.84263,2.54259 0,0 -0.4064,-6.45177 -5.51043,-5.601 -5.104027,0.85075 -4.880607,6.78464 -4.880607,6.78464 0,0 -0.005,2.62475 2.451987,3.95562 2.04103,1.1752 3.21408,-0.0948 3.41498,-0.29516 0.20093,-0.20041 4.3459,-5.39212 3.67947,4.47293 z"
         sodipodi:nodetypes="ccccccsccccsc" />
      <path
         style="fill:url(#linearGradient20);fill-opacity:1;stroke-width:0.303506;stroke-linecap:round;stroke-linejoin:round"
         d="m 104.84352,112.76778 c -0.75018,0.65071 -2.52915,0.41263 -3.12448,-0.96191 0.26201,0.67036 0.91735,0.0492 1.65475,-0.70649 l 0.65114,-0.67727 2.03418,1.17351 c -0.2398,0.17089 -0.49313,0.38835 -0.76372,0.66517 z"
         id="path118-6"
         sodipodi:nodetypes="ccccccc" />
      <path
         style="fill:url(#linearGradient21);fill-opacity:1;stroke-width:0.303506;stroke-linecap:round;stroke-linejoin:round"
         d="m 108.46327,112.65601 c -0.59387,-2.58461 -2.46909,-4.37957 -4.11561,-2.56691 l 1.61879,1.57435 c 1.7426,-1.13214 2.1308,-0.0876 2.49682,0.99256 z"
         id="path119-1"
         sodipodi:nodetypes="cccc" />
      <path
         id="path120-0"
         style="fill:url(#linearGradient22);fill-opacity:1;stroke-width:0.142402"
         class="cls-2"
         d="m 96.340673,108.46958 c -1.2107,-0.0198 -2.08229,1.15622 -1.71113,2.30879 0,0 1.03357,4.09198 6.563977,4.22304 0,0 -3.194637,-2.28758 -3.119797,-4.89959 -0.0696,-0.90993 -0.82059,-1.61722 -1.73305,-1.63224 z"
         sodipodi:nodetypes="ccccc" />
      <path
         class="cls-3"
         d="m 95.527893,108.0112 c 0.38109,0.0218 0.73867,-0.12927 1.07778,-0.28931 0.44096,-0.23391 0.85674,-0.58366 1.05875,-1.05148 a 1.3094509,1.3094509 0 0 0 0.0727,-1.11583 c -0.10352,-0.30834 -0.37717,-0.50867 -0.60716,-0.72132 -0.43984,-0.26916 -0.97537,-0.43144 -1.49244,-0.34471 -0.3061,-0.0174 -0.59373,0.0711 -0.86737,0.17963 a 2.6026736,2.6026736 0 0 0 -1.28707,1.06771 c -0.15109,0.32792 -0.31561,0.71012 -0.16396,1.0677 0.12871,0.4986 0.54561,0.86905 1.01175,1.05931 0.37772,0.13655 0.79238,0.2216 1.19697,0.1483 z"
         id="path146-6"
         style="fill:url(#linearGradient89);stroke-width:0.158672" />
      <path
         class="cls-4"
         d="m 100.0455,113.71906 c -0.757137,-0.73083 -1.470617,-1.57861 -1.740897,-2.61219 -0.12815,-0.493 -0.11192,-1.01006 -0.15165,-1.51817 -0.1371,-0.41131 -0.41578,-0.81086 -0.85115,-0.95467 -0.27979,-0.15949 -0.60827,-0.18411 -0.91997,-0.23503 -0.60884,0.0162 -1.24174,0.29994 -1.54336,0.85338 -0.12087,0.23167 -0.15613,0.50027 -0.18746,0.75713 0.0386,0.70788 0.34527,1.37716 0.709,1.97984 0.33576,0.50924 0.73643,0.98545 1.22775,1.36038 0.2798,0.29043 0.64969,0.46222 0.98769,0.67431 a 5.8197818,5.8197818 0 0 0 1.99999,0.71125 11.460493,11.460493 0 0 0 1.743127,0.19417 c -0.37548,-0.45942 -0.89535,-0.7644 -1.27307,-1.2104 z"
         id="path147-3"
         style="fill:url(#linearGradient90);stroke-width:0.158672" />
      <path
         id="path148-2"
         style="fill:url(#linearGradient91);fill-opacity:1;stroke-width:0.142402"
         class="cls-2"
         d="m 104.87151,102.12917 c -0.28329,-4.8e-4 -0.58271,0.0232 -0.9016,0.0775 -5.102507,0.85124 -4.882087,6.78464 -4.882087,6.78464 0,0 -0.005,2.62727 2.450547,3.95561 2.041,1.1752 3.21408,-0.0963 3.41498,-0.29663 0.20092,-0.20041 4.34785,-5.39201 3.68091,4.47001 0,0 1.46044,-1.58887 1.55186,-5.37305 0.0914,-3.78422 -2.33949,-4.01409 -2.33949,-4.01409 0,0 -1.07546,-0.26969 -3.2104,2.037 -2.1349,2.30667 -2.28394,2.20358 -2.28394,2.20358 0,0 -0.60282,0.4248 -0.67364,-0.64443 -0.0708,-1.06921 -0.30229,-4.30997 2.95758,-6.06423 3.2599,-1.75424 4.84263,2.54259 4.84263,2.54259 0,0 -0.35825,-5.67099 -4.60735,-5.67845 z m -9.143107,2.452 a 1.7326472,2.3106984 77.92 0 0 -0.65027,0.0671 1.7326472,2.3106984 77.92 0 0 -1.89671,2.17873 1.7326472,2.3106984 77.92 0 0 2.62151,1.20993 1.7326472,2.3106984 77.92 0 0 1.89671,-2.17728 1.7326472,2.3106984 77.92 0 0 -1.97124,-1.2786 z m -10.800197,0.72477 c 0,0 -1.458997,1.59083 -1.550396,5.37453 -0.09142,3.78369 2.339498,4.017 2.339498,4.017 0,0 1.073987,0.2697 3.208917,-2.037 2.134928,-2.30667 2.285418,-2.20358 2.285418,-2.20358 0,0 0.60282,-0.4248 0.67364,0.64443 0.0708,1.06921 0.30133,4.31 -2.959058,6.06423 -3.260388,1.75423 -4.842621,-2.54259 -4.842621,-2.54259 0,0 0.406391,6.45177 5.510422,5.60099 5.104027,-0.85074 4.880617,-6.78463 4.880617,-6.78463 0,0 0.005,-2.62474 -2.452,-3.95562 -2.041025,-1.17519 -3.214079,0.0948 -3.414977,0.29517 -0.200925,0.20041 -4.345892,5.39211 -3.67946,-4.47293 z m 11.412467,3.16364 a 1.7673002,1.7673002 0 0 0 -1.71113,2.30879 c 0,0 1.03357,4.09198 6.563977,4.22304 0,0 -3.194637,-2.28758 -3.119797,-4.89959 a 1.7673002,1.7673002 0 0 0 -1.73305,-1.63224 z" />
      <path
         id="path149-0"
         style="fill:url(#linearGradient92);fill-opacity:1;stroke-width:0.142402"
         class="cls-2"
         d="m 84.896656,105.34258 c 0,0 -1.458994,1.59083 -1.550392,5.37453 -0.09142,3.78369 2.339496,4.017 2.339496,4.017 0,0 1.073988,0.2697 3.20892,-2.037 2.134933,-2.30667 2.285413,-2.20358 2.285413,-2.20358 0,0 0.60283,-0.4248 0.67364,0.64443 0.0708,1.06921 0.30134,4.31 -2.959053,6.06423 -3.260389,1.75424 -4.842625,-2.54259 -4.842625,-2.54259 0,0 0.406393,6.45177 5.510424,5.601 5.104034,-0.85075 4.880614,-6.78464 4.880614,-6.78464 0,0 0.005,-2.62474 -2.45199,-3.95562 -2.041032,-1.1752 -3.214086,0.0948 -3.414984,0.29517 -0.200923,0.2004 -4.345894,5.39211 -3.679463,-4.47293 z"
         sodipodi:nodetypes="ccccccsccccsc" />
      <path
         style="fill:url(#linearGradient93);fill-opacity:1;stroke-width:0.303506;stroke-linecap:round;stroke-linejoin:round"
         d="m 88.667357,109.74092 c 0.75019,-0.65072 2.529146,-0.41264 3.124486,0.9619 -0.26201,-0.67035 -0.917356,-0.0492 -1.654755,0.70649 l -0.651138,0.67728 -2.034176,-1.17352 c 0.239794,-0.17089 0.493124,-0.38835 0.763713,-0.66517 z"
         id="path150-6"
         sodipodi:nodetypes="ccccccc" />
      <path
         style="fill:url(#linearGradient94);fill-opacity:1;stroke-width:0.303506;stroke-linecap:round;stroke-linejoin:round"
         d="m 85.047614,109.85268 c 0.593864,2.58462 2.469084,4.37957 4.115613,2.56691 l -1.618791,-1.57435 c -1.74261,1.13214 -2.130802,0.0876 -2.496822,-0.99256 z"
         id="path151-1"
         sodipodi:nodetypes="cccc" />
      <path
         id="path152-5"
         style="fill:url(#linearGradient95);fill-opacity:1;stroke-width:0.142402"
         class="cls-2"
         d="m 95.741003,104.58182 c -0.21613,-10e-4 -0.4351,0.0213 -0.65026,0.0672 -1.24836,0.26718 -2.0977,1.24281 -1.89672,2.17873 0.20079,0.93512 1.37419,1.47669 2.62151,1.20993 1.24749,-0.26712 2.09654,-1.24176 1.89672,-2.17728 -0.16079,-0.75212 -0.96353,-1.27279 -1.97125,-1.2786 z"
         sodipodi:nodetypes="ccccccc" />
      <path
         id="path153-5"
         style="fill:url(#linearGradient96);fill-opacity:1;stroke-width:0.142402"
         class="cls-2"
         d="m 108.61423,117.16612 c 0,0 1.45899,-1.59084 1.55039,-5.37453 0.0914,-3.78369 -2.3395,-4.01701 -2.3395,-4.01701 0,0 -1.07399,-0.26969 -3.20892,2.037 -2.13493,2.30668 -2.28541,2.20358 -2.28541,2.20358 0,0 -0.60283,0.42481 -0.67364,-0.64443 -0.0708,-1.06921 -0.30134,-4.31 2.95905,-6.06423 3.26039,-1.75423 4.84263,2.54259 4.84263,2.54259 0,0 -0.4064,-6.45177 -5.51043,-5.601 -5.104027,0.85075 -4.880607,6.78464 -4.880607,6.78464 0,0 -0.005,2.62475 2.451987,3.95562 2.04103,1.1752 3.21408,-0.0948 3.41498,-0.29516 0.20093,-0.20041 4.3459,-5.39212 3.67947,4.47293 z"
         sodipodi:nodetypes="ccccccsccccsc" />
      <path
         style="fill:url(#linearGradient97);fill-opacity:1;stroke-width:0.303506;stroke-linecap:round;stroke-linejoin:round"
         d="m 104.84352,112.76778 c -0.75018,0.65071 -2.52915,0.41263 -3.12448,-0.96191 0.26201,0.67036 0.91735,0.0492 1.65475,-0.70649 l 0.65114,-0.67727 2.03418,1.17351 c -0.2398,0.17089 -0.49313,0.38835 -0.76372,0.66517 z"
         id="path154-4"
         sodipodi:nodetypes="ccccccc" />
      <path
         style="fill:url(#linearGradient98);fill-opacity:1;stroke-width:0.303506;stroke-linecap:round;stroke-linejoin:round"
         d="m 108.46327,112.65601 c -0.59387,-2.58461 -2.46909,-4.37957 -4.11561,-2.56691 l 1.61879,1.57435 c 1.7426,-1.13214 2.1308,-0.0876 2.49682,0.99256 z"
         id="path155-7"
         sodipodi:nodetypes="cccc" />
      <path
         id="path156-6"
         style="fill:url(#linearGradient99);fill-opacity:1;stroke-width:0.142402"
         class="cls-2"
         d="m 96.340673,108.46958 c -1.2107,-0.0198 -2.08229,1.15622 -1.71113,2.30879 0,0 1.03357,4.09198 6.563977,4.22304 0,0 -3.194637,-2.28758 -3.119797,-4.89959 -0.0696,-0.90993 -0.82059,-1.61722 -1.73305,-1.63224 z"
         sodipodi:nodetypes="ccccc" />
    </g>
  </g>
</svg>
